<svg width="867" height="839" viewBox="0 0 867 839" fill="none" xmlns="http://www.w3.org/2000/svg">
<g opacity="0.05" clip-path="url(#clip0_60_1665)">
<path fill-rule="evenodd" clip-rule="evenodd" d="M813.28 0.254942C821.688 17.2001 838.771 27.5095 855.679 37.7115C877.291 50.7517 898.504 63.5537 883.973 92.9956C867.262 119.066 860.534 142.815 863.791 164.239C867.165 186.441 880.907 205.241 905.014 220.643C910.809 224.333 918.504 222.629 922.198 216.839C925.891 211.045 924.185 203.359 918.39 199.669C900.71 188.373 890.745 175.33 888.495 160.535C886.152 145.119 891.762 126.906 905.326 105.902H905.323C905.551 105.543 905.766 105.167 905.961 104.781C931.474 54.3011 900.31 35.5007 868.568 16.3514C860.064 11.2185 851.502 6.05207 844.911 0.261651H813.28V0.254942ZM949.783 448.325C943.504 445.59 940.634 438.287 943.37 432.013C946.106 425.74 953.416 422.872 959.694 425.606C975.199 432.359 988.431 442.843 998.433 455.813C1008.44 468.782 1015.21 484.248 1017.8 500.962C1020.38 517.682 1018.61 534.46 1013 549.818C1007.38 565.21 997.933 579.206 985.191 590.327C980.041 594.83 972.208 594.31 967.702 589.163C963.196 584.017 963.716 576.194 968.867 571.688C978.406 563.365 985.476 552.888 989.68 541.371C993.897 529.817 995.24 517.239 993.306 504.749C991.372 492.253 986.296 480.678 978.802 470.956C971.308 461.237 961.39 453.38 949.776 448.321L949.783 448.325ZM1063.47 687.547C1057.3 684.544 1054.73 677.11 1057.74 670.944C1060.74 664.778 1068.18 662.214 1074.35 665.217C1109.85 682.525 1137.32 710.655 1154.05 744.149C1168.43 772.94 1174.85 805.703 1171.59 838.96H1146.62C1149.97 809.615 1144.49 780.623 1131.8 755.217C1117.46 726.503 1093.91 702.385 1063.47 687.547H1063.47ZM1064.17 446.174C1095.2 470.007 1113.65 504.122 1118.37 540.029C1123.1 575.945 1114.12 613.674 1090.32 644.716C1086.16 650.157 1087.2 657.937 1092.65 662.094C1098.1 666.25 1105.88 665.207 1110.04 659.762C1137.98 623.332 1148.51 579.025 1142.96 536.825C1137.4 494.614 1115.75 454.531 1079.33 426.562C1073.91 422.378 1066.13 423.378 1061.94 428.796C1057.75 434.211 1058.75 441.991 1064.18 446.174H1064.17ZM1039.45 636.04C1027.52 646.256 1019.02 659.417 1014.48 673.819C1009.96 688.147 1009.4 703.757 1013.31 718.961C1017.23 734.182 1025.29 747.611 1036.2 758.015C1047.11 768.421 1060.9 775.832 1076.26 779.023C1082.96 780.418 1089.53 776.114 1090.93 769.411C1092.32 762.708 1088.02 756.146 1081.31 754.75C1070.58 752.523 1060.94 747.336 1053.3 740.053C1045.66 732.766 1040.03 723.413 1037.31 712.842C1034.58 702.254 1035 691.307 1038.19 681.196C1041.35 671.158 1047.27 661.99 1055.58 654.874C1060.78 650.426 1061.39 642.599 1056.94 637.399C1052.48 632.199 1044.65 631.588 1039.45 636.04H1039.45ZM910.174 686.339C910.953 679.529 917.108 674.641 923.923 675.416C930.739 676.194 935.631 682.343 934.855 689.154C931.924 714.352 934.855 734.91 943.649 750.825C952.217 766.341 966.735 777.882 987.199 785.45L987.585 785.601C997.228 789.496 1005.51 795.787 1011.81 803.681C1018.07 811.534 1022.34 821.008 1024 831.321C1024.41 833.871 1024.65 836.42 1024.73 838.96H999.91C999.85 837.708 999.719 836.457 999.518 835.206C998.561 829.251 996.056 823.736 992.376 819.119C988.73 814.543 983.902 810.887 978.258 808.605C952.183 798.88 933.392 783.599 921.885 762.765C910.544 742.23 906.639 716.754 910.178 686.336L910.174 686.339ZM963.834 402.702C984.637 413.2 1001.86 428.783 1014.23 447.523C1026.62 466.28 1034.18 488.247 1035.65 511.496C1037.12 534.751 1032.39 557.497 1022.47 577.67C1012.56 597.799 997.439 615.418 978.11 628.458C977.459 628.898 976.861 629.391 976.321 629.924C962.917 641.673 953.389 656.703 948.329 673.114C943.185 689.794 942.652 707.874 947.342 725.359C952.036 742.868 961.544 758.263 974.336 770.132C987.088 781.961 1003.11 790.285 1020.9 793.693C1041.99 798.108 1060.86 808.374 1075.72 822.763C1080.83 827.701 1085.46 833.126 1089.55 838.96H1118.58C1111.85 826.299 1103.2 814.852 1093.02 804.996C1074.83 787.393 1051.77 774.836 1026.01 769.435L1025.63 769.354C1012.51 766.865 1000.67 760.722 991.241 751.976C981.813 743.23 974.803 731.874 971.338 718.951C967.866 706.008 968.249 692.666 972.033 680.394C975.74 668.377 982.703 657.353 992.5 648.701C1015.16 633.283 1032.96 612.426 1044.71 588.543C1056.53 564.526 1062.17 537.506 1060.43 509.943C1058.68 482.376 1049.68 456.272 1034.93 433.932C1020.17 411.576 999.692 393.024 975.008 380.567C968.89 377.484 961.43 379.94 958.345 386.052C955.259 392.165 957.717 399.619 963.834 402.702ZM512.039 14.1842C518.915 13.8621 524.227 8.02806 523.901 1.15739C523.887 0.8521 523.861 0.550166 523.824 0.251587H447.034C442.592 1.73442 438.315 3.36486 434.209 5.13956C412.324 14.5968 395.282 28.1234 383.087 45.7161C379.179 51.3723 380.599 59.1287 386.26 63.0337C391.921 66.9387 399.683 65.5196 403.592 59.8634C413.093 46.1589 426.584 35.5275 444.07 27.9725C462.338 20.0786 484.994 15.4825 512.035 14.1842H512.039ZM279.357 180.375H279.176C264.95 180.59 252.128 186.464 242.858 195.831C233.548 205.241 227.806 218.157 227.806 232.385C227.806 246.613 233.548 259.529 242.858 268.939C252.168 278.349 265.058 284.234 279.357 284.398H279.693C293.942 284.244 306.798 278.4 316.092 269.04C325.459 259.606 331.244 246.65 331.244 232.388C331.244 218.127 325.462 205.171 316.092 195.737C306.768 186.347 293.858 180.489 279.552 180.379H279.357V180.375ZM260.629 213.296C265.454 208.418 272.105 205.362 279.465 205.255C286.865 205.342 293.56 208.401 298.418 213.296C303.256 218.171 306.244 224.914 306.244 232.385C306.244 239.856 303.256 246.603 298.418 251.474C293.56 256.369 286.865 259.428 279.465 259.515C272.105 259.408 265.451 256.352 260.629 251.474C255.788 246.583 252.803 239.836 252.803 232.382C252.803 224.927 255.791 218.184 260.629 213.289V213.296ZM393.737 212.786C392.092 206.107 385.337 202.02 378.652 203.664C371.967 205.308 367.878 212.058 369.523 218.738C374.422 238.561 383.574 256.852 396.098 272.499C408.604 288.122 424.452 301.061 442.753 310.203C461.082 319.362 480.962 324.273 500.976 324.894C520.966 325.515 541.088 321.851 559.927 313.86C566.262 311.166 569.214 303.849 566.518 297.519C563.821 291.188 556.499 288.239 550.163 290.933C534.658 297.509 518.102 300.525 501.661 300.015C485.243 299.505 468.928 295.472 453.887 287.958C438.818 280.429 425.791 269.801 415.531 256.983C405.287 244.187 397.783 229.151 393.741 212.783L393.737 212.786ZM437.667 202.359C437.865 209.877 439.876 217.134 443.391 223.582C446.893 230 451.923 235.612 458.181 239.88C464.443 244.147 471.507 246.781 478.763 247.7C486.055 248.622 493.573 247.837 500.694 245.267C507.164 242.949 514.292 246.314 516.608 252.779C518.928 259.244 515.561 266.366 509.091 268.681C498.243 272.596 486.777 273.79 475.64 272.381C464.463 270.965 453.642 266.953 444.123 260.461C434.601 253.97 426.916 245.365 421.521 235.481C416.145 225.628 413.073 214.504 412.768 202.94C412.606 196.069 418.049 190.369 424.925 190.208C431.801 190.047 437.506 195.485 437.667 202.356V202.359ZM94.4597 491.384C100.554 488.203 102.914 480.692 99.731 474.603C96.5481 468.514 89.0307 466.155 82.9368 469.336C64.3698 479.075 44.0905 484.339 23.6433 485.073C15.7264 485.358 7.78587 484.963 -0.0908203 483.882V508.976C8.08805 509.922 16.3139 510.245 24.523 509.949C48.6332 509.084 72.5554 502.871 94.4597 491.384ZM-0.0874628 650.939C13.6212 664.892 30.6437 675.922 50.2045 682.689C56.7013 684.923 63.7856 681.474 66.0217 674.98C68.2578 668.488 64.8063 661.409 58.3095 659.175C33.5816 650.62 13.8764 633.641 1.59464 612.382C1.01715 611.382 0.456452 610.376 -0.0874628 609.359V650.939ZM37.4091 538.72C36.9122 558.457 43.1605 577.096 54.2906 592.119C65.4241 607.145 81.436 618.555 100.456 623.835C107.087 625.667 110.979 632.524 109.145 639.154C107.312 645.779 100.45 649.667 93.8151 647.836C69.2718 641.022 48.6198 626.311 34.2732 606.947C19.9232 587.58 11.8686 563.559 12.5099 538.133C12.671 531.263 18.3754 525.824 25.2516 525.985C32.1278 526.146 37.5703 531.846 37.4091 538.717V538.72ZM385.679 625.603C386.841 617.803 386.29 610 384.172 602.703C382.046 595.376 378.346 588.496 373.226 582.578C368.099 576.65 361.814 571.99 354.861 568.82C348.206 565.787 340.92 564.113 333.437 563.992C304.028 568.89 280.777 582.826 263.688 605.79C263.366 606.223 263.023 606.628 262.664 607.011C247.612 622.691 228.82 633.631 208.521 639.211C188.268 644.776 166.539 644.971 145.558 639.184C124.56 633.393 106.006 622.091 91.4917 606.944C76.9403 591.76 66.428 572.728 61.5495 551.516C60.0118 544.806 64.2087 538.123 70.9237 536.587C77.6387 535.05 84.3268 539.244 85.8645 545.953C89.7156 562.704 98.0019 577.717 109.461 589.673C120.954 601.667 135.623 610.611 152.202 615.183C168.798 619.759 185.979 619.608 201.984 615.21C217.73 610.882 232.372 602.401 244.221 590.24C265.487 562.026 294.238 545.031 330.472 539.254V539.26C331.11 539.16 331.761 539.109 332.426 539.109C343.865 539.079 355.035 541.548 365.222 546.191C375.412 550.834 384.605 557.641 392.082 566.29C399.569 574.946 404.982 585.03 408.104 595.782C411.237 606.568 412.069 617.964 410.394 629.22C409.397 636.037 403.058 640.754 396.235 639.757C389.413 638.761 384.692 632.427 385.689 625.61L385.679 625.603ZM384.749 769.502C388.738 763.899 387.428 756.123 381.821 752.134C376.214 748.145 368.432 749.457 364.443 755.059C351.248 773.611 342.347 792.338 337.748 811.232C335.501 820.461 334.289 829.704 334.108 838.956H359.031C359.212 831.663 360.189 824.373 361.962 817.086C365.799 801.325 373.394 785.464 384.749 769.498V769.502ZM338.721 615.992C342.767 610.443 341.542 602.666 335.988 598.624C330.435 594.585 322.652 595.806 318.61 601.355C301.037 625.436 275.953 642.23 243.365 651.741C209.679 661.57 167.952 663.691 118.191 658.098C111.341 657.343 105.177 662.278 104.421 669.122C103.666 675.966 108.605 682.125 115.454 682.88C168.419 688.832 213.369 686.419 250.295 675.644C288.322 664.549 317.797 644.662 338.721 615.988V615.992ZM306.577 713.449C255.445 727.184 210.582 733.568 171.988 732.599C132.346 731.606 99.261 722.86 72.7334 706.364C66.8812 702.727 65.0917 695.038 68.7312 689.191C72.3708 683.343 80.0661 681.555 85.9149 685.192C108.652 699.332 137.54 706.84 172.572 707.719C208.652 708.625 251.174 702.499 300.133 689.348C306.791 687.57 313.634 691.522 315.413 698.178C317.193 704.831 313.234 711.668 306.577 713.446V713.449ZM370.913 666.18C366.343 690.667 358.729 711.537 348.069 728.788C337.113 746.508 323.042 760.333 305.855 770.253C299.895 773.702 292.267 771.669 288.815 765.717C285.364 759.763 287.398 752.14 293.355 748.692C306.973 740.831 318.146 729.838 326.876 715.714C335.898 701.12 342.408 683.112 346.403 661.695C347.642 654.931 354.136 650.456 360.904 651.694C367.673 652.932 372.152 659.42 370.913 666.183V666.18ZM163.571 781.784C156.748 780.814 150.433 785.554 149.462 792.368C148.492 799.185 153.236 805.495 160.055 806.465C178.908 809.192 193.687 814.899 204.384 823.585C209.689 827.892 214.061 833.015 217.489 838.956H244.99C239.709 825.014 231.412 813.45 220.104 804.268C205.808 792.663 186.962 785.165 163.571 781.784ZM119.369 750.232C112.711 751.929 108.689 758.699 110.384 765.355C112.083 772.008 118.859 776.027 125.52 774.333C163.154 764.684 196.239 766.704 224.774 780.388C248.445 791.741 269.365 811.266 287.536 838.963H316.767C294.328 800.175 267.243 773.168 235.512 757.948C201.554 741.66 162.839 739.09 119.366 750.235L119.369 750.232ZM25.7955 700.61C19.4062 698.078 12.1708 701.201 9.63586 707.585C7.10095 713.969 10.2268 721.199 16.6161 723.732C40.6659 733.296 58.0644 747.511 68.8118 766.372C79.6632 785.414 84.028 809.612 81.9128 838.96H106.94C109.098 805.415 103.619 777.117 90.4912 754.08C76.8664 730.17 55.3012 712.346 25.7955 700.61ZM-0.0874628 778.13V745.716C36.7913 772.971 54.2201 804.053 52.2123 838.96H27.2325C28.8609 817.271 19.752 796.994 -0.0874628 778.13ZM12.4226 838.96H-0.0874628V821.427C4.22021 825.178 7.95039 829.643 10.905 834.713C11.6873 836.065 12.1876 837.504 12.4259 838.96H12.4226ZM61.5361 0.254942C59.6458 2.36512 57.8999 4.63298 56.3152 7.05852C50.2381 16.3648 47.1996 26.9861 47.1996 37.5773C47.1996 48.1685 50.2381 58.7898 56.3152 68.0927C62.4023 77.4091 70.9203 84.4777 80.6336 88.745C90.3602 93.0191 101.312 94.5254 112.254 92.7171L112.396 92.6936V92.7171C125.792 90.362 137.379 83.3605 145.625 73.5477C153.861 63.7449 158.746 51.1442 158.746 37.574C158.746 24.0037 153.861 11.403 145.625 1.60022C145.242 1.14397 144.852 0.694423 144.456 0.251587H61.5327L61.5361 0.254942ZM90.6926 9.23579C95.9068 6.94445 101.746 6.08226 107.594 6.91761L108.108 7.01826C115.531 8.32328 121.944 12.188 126.494 17.6027C131.053 23.0275 133.756 30.0256 133.756 37.5773C133.756 45.129 131.05 52.1238 126.494 57.5485C121.944 62.9632 115.535 66.828 108.108 68.133V68.1565C102.095 69.1227 96.0646 68.2773 90.696 65.9155C85.2736 63.5335 80.5496 59.6352 77.2156 54.5292C73.8716 49.4098 72.1995 43.5053 72.1995 37.574C72.1995 31.6426 73.8716 25.7381 77.2156 20.6187C80.5496 15.5127 85.2736 11.6177 90.696 9.23244L90.6926 9.23579ZM341.82 0.254942C346.605 19.3506 347.783 39.0434 345.477 58.3671C343.113 78.1404 337.086 97.4541 327.521 115.265C324.26 121.327 326.534 128.885 332.597 132.143C338.664 135.404 346.225 133.133 349.489 127.07C360.572 106.432 367.552 84.1019 370.275 61.2925C372.686 41.1032 371.759 20.4778 367.398 0.251587H341.82V0.254942ZM287.929 0.254942C293.761 16.3514 296.675 33.263 296.675 50.2216C296.675 68.814 293.17 87.3595 286.156 104.828C283.594 111.212 286.697 118.465 293.089 121.022C299.479 123.581 306.738 120.478 309.299 114.094C317.549 93.5424 321.672 71.8535 321.672 50.2183C321.672 33.4073 319.181 16.5694 314.201 0.251587H287.929V0.254942ZM240.39 0.254942H266.283C269.812 14.0097 271.108 28.1201 270.201 42.0593C269.026 60.1452 264.161 78.0197 255.677 94.5321C247.196 111.041 235.495 125.41 221.467 136.91C207.372 148.464 190.985 157.14 173.196 162.202C166.565 164.088 159.656 160.243 157.769 153.617C155.882 146.991 159.73 140.087 166.361 138.202C180.932 134.055 194.268 127.02 205.65 117.69C217.099 108.307 226.628 96.6154 233.514 83.2163C240.397 69.8205 244.349 55.2706 245.306 40.4994C246.185 26.9694 244.56 13.3153 240.39 0.254942ZM120.877 113.98C133.212 112.39 144.742 107.666 154.519 100.5C164.262 93.3545 172.226 83.7799 177.464 72.4607C182.702 61.1416 184.847 48.8629 183.977 36.7923C183.111 24.7216 179.24 12.8825 172.451 2.44564C171.995 1.74113 171.615 1.00978 171.316 0.258297H199.711C204.948 11.2822 208.017 23.0878 208.877 35.0377C210.038 51.2146 207.154 67.6902 200.117 82.9009C193.076 98.115 182.369 110.991 169.265 120.599C156.191 130.184 140.679 136.518 124.006 138.665C117.183 139.527 110.955 134.699 110.092 127.886C109.229 121.069 114.061 114.846 120.883 113.983L120.877 113.98ZM33.7897 23.6548C28.8911 33.5717 26.6315 44.3775 26.9807 55.0861C27.3299 65.7712 30.2845 76.3926 35.8143 85.9605C41.3407 95.5251 49.0798 103.399 58.2021 109.065C67.311 114.725 77.7864 118.17 88.7889 118.888C95.6651 119.317 100.889 125.239 100.456 132.109C100.026 138.98 94.1005 144.2 87.2243 143.767C72.0115 142.774 57.5608 138.027 45.0172 130.237C32.487 122.454 21.8404 111.618 14.2323 98.4505C6.6309 85.2862 2.56496 70.6391 2.08148 55.8644C1.60136 41.1099 4.70369 26.2481 11.4288 12.6275C14.474 6.458 21.9512 3.92511 28.1256 6.96794C34.3001 10.0108 36.835 17.4819 33.7897 23.6515V23.6548ZM118.389 185.719C125.077 184.076 129.163 177.326 127.518 170.646C125.873 163.963 119.117 159.881 112.432 161.524C93.1705 166.325 73.3612 165.513 55.1031 159.75C36.8383 153.986 20.1683 143.294 7.1916 128.345C4.57275 125.326 2.14527 122.186 -0.0841053 118.942V156.385C13.863 168.868 30.1535 178.054 47.5857 183.556C70.1044 190.664 94.5705 191.657 118.392 185.719H118.389ZM528.984 70.0251C517.471 65.58 505.21 64.0401 493.227 65.2982C481.287 66.5529 469.634 70.6089 459.279 77.3588C448.978 84.0751 440.584 93.1063 434.601 103.563C428.622 114.014 425.1 125.819 424.536 138.094C424.505 138.796 424.418 139.48 424.277 140.144C422.434 151.01 417.753 160.961 410.944 169.133C403.968 177.507 394.802 184.019 384.219 187.749C373.629 191.48 362.412 192.154 351.735 190.007C341.276 187.903 331.368 183.079 323.119 175.759C315.205 169.623 306.13 165.396 296.588 163.232C286.922 161.041 276.799 160.954 266.931 163.131C257.063 165.309 247.928 169.646 240.095 175.695C232.265 181.744 225.762 189.487 221.168 198.478L221.098 198.612L221.121 198.625C213.208 213.605 201.846 226.132 188.262 235.377C174.657 244.637 158.82 250.615 141.982 252.484C125.127 254.356 108.377 252.001 93.1033 245.969C77.8401 239.937 64.0072 230.204 52.9812 217.308C48.5056 212.082 49.1167 204.218 54.3477 199.746C59.5787 195.274 67.4487 195.885 71.9242 201.111C80.2239 210.817 90.6893 218.164 102.283 222.747C113.869 227.323 126.537 229.114 139.249 227.702C151.977 226.289 163.933 221.774 174.2 214.789C184.488 207.791 193.08 198.32 199.053 187.014L199.073 187.024C205.371 174.749 214.225 164.202 224.862 155.989C235.535 147.746 248.028 141.825 261.563 138.839C275.093 135.853 288.913 135.961 302.057 138.94C315.236 141.929 327.766 147.797 338.671 156.321L338.664 156.328C338.899 156.512 339.128 156.704 339.352 156.908C344.311 161.397 350.298 164.349 356.617 165.617C362.915 166.885 369.58 166.469 375.919 164.239C382.261 162.004 387.707 158.156 391.807 153.235C395.792 148.447 398.552 142.647 399.673 136.326C400.526 120.186 405.156 104.761 412.925 91.1773C420.802 77.4057 431.956 65.4525 445.708 56.4851C459.407 47.5545 474.851 42.1835 490.688 40.5195C506.482 38.8588 522.689 40.9086 537.965 46.8064C544.382 49.2856 547.575 56.4918 545.093 62.9062C542.612 69.3173 535.4 72.5077 528.984 70.0285V70.0251ZM508.235 118.623H508.137C497.544 119.016 488.033 123.561 481.143 130.67C474.277 137.759 470.046 147.394 469.999 157.988C469.952 168.59 474.099 178.275 480.915 185.438C487.673 192.54 497.044 197.149 507.523 197.696L507.862 197.71C515.181 198.105 522.313 196.468 528.561 193.17C534.816 189.869 540.175 184.924 543.945 178.704C547.729 172.461 549.643 165.419 549.673 158.368C549.703 151.346 547.843 144.284 544.089 137.964C540.366 131.693 535.064 126.701 528.88 123.363C522.652 120.002 515.541 118.301 508.235 118.63V118.623ZM540.695 101.406C550.821 106.868 559.487 115.03 565.571 125.276C571.624 135.471 574.623 146.958 574.572 158.462C574.522 169.932 571.406 181.395 565.232 191.58C559.044 201.789 550.321 209.867 540.181 215.218C530.038 220.573 518.468 223.226 506.593 222.589L506.234 222.565C489.11 221.66 473.84 214.162 462.851 202.614C451.768 190.966 445.023 175.189 445.1 157.895C445.177 140.594 452.074 124.866 463.274 113.306C474.431 101.789 489.893 94.4113 507.16 93.7437C519.059 93.2103 530.609 95.9646 540.695 101.406ZM17.8819 208.103C11.8988 206.439 5.86874 205.577 -0.0874628 205.459V180.53C8.06455 180.66 16.324 181.821 24.523 184.106C31.1574 185.938 35.0454 192.795 33.2122 199.424C31.379 206.05 24.5163 209.938 17.8819 208.106V208.103ZM-0.0874628 259.707C10.5155 260.498 20.0575 265.141 27.1419 272.25C34.891 280.02 39.6788 290.762 39.6788 302.642C39.6788 314.521 34.891 325.263 27.1419 333.033C20.0542 340.138 10.5122 344.785 -0.0874628 345.577V370.496C17.4521 369.654 33.2357 362.206 44.8157 350.595C57.0908 338.29 64.6754 321.335 64.6754 302.642C64.6754 283.949 57.0908 266.997 44.8157 254.688C33.2357 243.077 17.4521 235.629 -0.0874628 234.787V259.707ZM155.207 371.503C127.4 418.44 94.8996 447.694 57.7119 459.258C39.3699 464.961 20.1045 466.316 -0.0874628 463.327V438.059C17.7744 441.209 34.5687 440.344 50.2918 435.452C81.3756 425.787 109.186 400.243 133.726 358.821C137.231 352.893 144.879 350.931 150.812 354.43C156.745 357.932 158.709 365.575 155.207 371.503ZM101.581 264.816C111.432 280.319 116.502 297.992 116.757 315.782C117.015 333.513 112.459 351.29 103.068 367.064C93.6539 382.879 80.1568 395.386 64.4068 403.638C48.6735 411.878 30.7344 415.847 12.4058 414.595L12.2413 414.582C8.03433 414.521 3.92811 414.364 -0.0874628 414.112V389.182C4.00869 389.471 8.22907 389.645 12.5804 389.706C13.0706 389.679 13.5641 389.682 14.0644 389.716C27.8066 390.655 41.1964 387.71 52.8838 381.591C64.5511 375.481 74.5666 366.175 81.5871 354.383C88.6311 342.551 92.049 329.272 91.8577 316.074C91.6663 302.933 87.869 289.796 80.4892 278.182C76.7959 272.361 78.5217 264.652 84.347 260.961C90.1722 257.271 97.8877 258.995 101.581 264.816ZM154.22 264.105C149.096 259.499 141.206 259.915 136.596 265.031C131.987 270.15 132.403 278.034 137.523 282.64C149.62 293.516 158.756 306.916 164.45 321.61C170.158 336.337 172.444 352.4 170.836 368.564C169.228 384.727 163.822 400.015 155.331 413.32C146.854 426.599 135.257 437.935 121.246 446.218C115.313 449.72 113.346 457.362 116.851 463.29C120.356 469.218 128.005 471.181 133.937 467.682C151.299 457.416 165.723 443.289 176.322 426.686C186.905 410.107 193.637 391.085 195.638 371.003C197.636 350.921 194.792 330.956 187.691 312.632C180.576 294.275 169.221 277.588 154.22 264.101V264.105ZM180.758 489.055V489.045C173.781 488.861 167.035 490.552 161.14 493.772C155.19 497.02 150.087 501.868 146.474 507.95C142.878 514.005 141.082 520.826 141.082 527.663C141.082 534.5 142.878 541.317 146.474 547.376C150.087 553.461 155.19 558.306 161.14 561.553C166.975 564.74 173.646 566.428 180.546 566.283L180.758 566.27C190.981 565.663 200.08 561.13 206.62 554.196C213.154 547.268 217.136 537.918 217.136 527.663C217.136 517.407 213.154 508.054 206.62 501.129C200.08 494.195 190.981 489.663 180.758 489.055ZM224.784 484.057C214.014 472.637 199.039 465.176 182.225 464.18V464.196L181.882 464.18C170.302 463.774 159.061 466.551 149.227 471.919C139.35 477.314 130.915 485.295 124.993 495.269C119.053 505.273 116.085 516.478 116.085 527.663C116.085 538.848 119.053 550.053 124.993 560.057C130.912 570.034 139.35 578.012 149.227 583.406C158.877 588.677 169.879 591.448 181.231 591.166C181.56 591.173 181.889 591.166 182.225 591.146C199.039 590.15 214.014 582.688 224.784 571.269C235.562 559.839 242.136 544.467 242.136 527.659C242.136 510.852 235.565 495.48 224.784 484.053V484.057ZM310.81 461.378C280.193 464.85 254.243 465.193 232.957 462.401C210.394 459.442 192.821 452.901 180.241 442.772C174.875 438.461 174.022 430.621 178.337 425.26C182.651 419.899 190.498 419.047 195.863 423.358C204.838 430.584 218.278 435.372 236.176 437.717C255.355 440.233 279.32 439.857 308.074 436.596C314.923 435.841 321.088 440.776 321.843 447.62C322.599 454.464 317.656 460.623 310.81 461.378ZM347.736 415.015C354.585 414.313 359.568 408.198 358.866 401.354C358.165 394.51 352.044 389.531 345.194 390.233C309.88 393.926 281.681 393.779 260.599 389.786C241.844 386.237 229.425 379.809 223.337 370.506C219.564 364.739 211.825 363.126 206.056 366.896C200.285 370.667 198.67 378.4 202.444 384.164C212.385 399.358 230.24 409.395 256.013 414.277C279.451 418.715 310.028 418.96 347.736 415.015ZM362.62 354.836C333.386 368.872 306.197 376.015 281.06 376.27C255.18 376.531 231.691 369.56 210.599 355.363C204.885 351.511 203.374 343.755 207.231 338.045C211.086 332.335 218.848 330.829 224.563 334.68C241.421 346.026 260.189 351.598 280.865 351.39C302.282 351.176 325.953 344.842 351.879 332.395C358.081 329.433 365.514 332.053 368.479 338.25C371.443 344.446 368.821 351.874 362.62 354.836ZM365.967 280.845C355.398 297.925 340.276 311.082 322.813 319.281C305.358 327.474 285.585 330.708 265.716 327.937C245.776 325.156 227.618 316.645 213.097 304.01C198.569 291.369 187.634 274.562 182.134 255.198C180.274 248.572 184.142 241.691 190.776 239.833C197.407 237.974 204.294 241.839 206.154 248.468C210.277 262.988 218.523 275.632 229.502 285.183C240.484 294.741 254.159 301.169 269.13 303.256C284.172 305.352 299.109 302.923 312.264 296.747C325.412 290.574 336.804 280.657 344.775 267.775C348.387 261.927 356.059 260.116 361.911 263.726C367.764 267.335 369.577 275.001 365.964 280.849L365.967 280.845ZM453.961 505.93C461.529 506.205 468.334 509.429 473.276 514.482L473.3 514.505L473.276 514.529C478.309 519.672 481.405 526.707 481.405 534.456C481.405 542.206 478.309 549.288 473.276 554.431C468.244 559.57 461.283 562.821 453.551 562.992L453.209 563.002V562.992C447.9 563.254 442.76 562.056 438.278 559.664C433.802 557.276 429.961 553.686 427.245 549.157C424.552 544.672 423.209 539.582 423.209 534.453C423.209 529.323 424.556 524.234 427.245 519.749C429.961 515.223 433.802 511.63 438.278 509.241C442.757 506.849 447.9 505.652 453.209 505.913C453.46 505.927 453.709 505.927 453.957 505.927L453.961 505.93ZM491.122 497.09C481.818 487.596 468.986 481.547 454.696 481.058L454.384 481.037C444.556 480.554 434.974 482.805 426.567 487.294C418.153 491.786 410.941 498.513 405.868 506.97C400.768 515.471 398.22 524.982 398.22 534.456C398.22 543.93 400.768 553.441 405.868 561.942C410.941 570.4 418.153 577.126 426.567 581.618C434.974 586.107 444.56 588.358 454.384 587.875V587.865C468.808 587.456 481.774 581.377 491.145 571.799C500.593 562.147 506.402 548.959 506.402 534.456C506.402 519.953 500.59 506.715 491.145 497.067L491.122 497.09ZM409.021 374.243C409.642 367.4 404.592 361.351 397.743 360.73C390.893 360.11 384.84 365.155 384.219 371.999C381.264 404.343 366.186 432.906 343.707 453.38C321.219 473.865 291.347 486.234 258.826 486.19C251.95 486.19 246.377 491.759 246.377 498.63C246.377 505.501 251.95 511.07 258.826 511.07C297.82 511.124 333.598 496.325 360.501 471.822C387.415 447.308 405.475 413.065 409.021 374.247V374.243ZM454.951 392.088C452.208 420.547 441.891 447.124 425.721 469.423C409.551 491.729 387.496 509.812 361.294 521.282C354.985 524.029 347.639 521.148 344.889 514.844C342.139 508.54 345.023 501.2 351.332 498.452C373.327 488.824 391.874 473.596 405.509 454.789C419.15 435.976 427.849 413.622 430.149 389.746C430.797 382.902 436.874 377.88 443.72 378.528C450.57 379.175 455.596 385.247 454.948 392.088H454.951ZM552.416 364.917C517.757 379.742 480.327 379.554 447.524 367.148C414.698 354.732 386.502 330.087 370.342 296.019C367.404 289.796 370.07 282.368 376.298 279.433C382.527 276.497 389.96 279.161 392.898 285.384C406.177 313.38 429.344 333.63 456.314 343.832C483.312 354.044 514.12 354.195 542.652 341.994C548.988 339.3 556.311 342.249 559.007 348.579C561.703 354.91 558.752 362.227 552.416 364.92V364.917ZM603.406 347.11C601.197 340.591 594.113 337.096 587.589 339.303C581.066 341.511 577.567 348.589 579.776 355.108C583.721 366.709 589.953 377.243 597.974 386.153C605.988 395.057 615.809 402.364 626.946 407.513C638.019 412.636 649.945 415.38 661.978 415.726C674.021 416.071 686.085 414.022 697.416 409.55C703.833 407.017 706.982 399.767 704.447 393.353C701.912 386.941 694.657 383.795 688.237 386.328C679.964 389.592 671.258 391.091 662.66 390.846C654.048 390.598 645.446 388.605 637.391 384.878C629.397 381.181 622.319 375.911 616.524 369.47C610.736 363.035 606.24 355.45 603.403 347.106L603.406 347.11ZM569.445 379.735C566.373 373.593 558.896 371.103 552.748 374.176C546.601 377.246 544.11 384.717 547.182 390.86C559.296 414.978 578.863 433.325 601.932 444.064C625.042 454.82 651.684 458.003 677.896 451.77C684.611 450.18 688.761 443.453 687.173 436.744C685.581 430.034 678.849 425.884 672.134 427.474C651.546 432.369 630.622 429.873 612.478 421.426C594.294 412.961 578.91 398.579 569.442 379.735H569.445ZM541.706 392.742C541.837 414.75 550.895 434.65 565.44 449.039C579.961 463.401 599.962 472.234 622.007 472.14C628.883 472.114 634.48 477.663 634.504 484.533C634.53 491.404 628.977 496.993 622.104 497.02C593.173 497.144 566.924 485.55 547.863 466.699C528.83 447.872 516.974 421.768 516.806 392.843C516.78 385.972 522.333 380.379 529.206 380.353C536.078 380.326 541.679 385.875 541.702 392.745L541.706 392.742ZM497.178 392.148C497.34 385.278 491.897 379.578 485.021 379.417C478.145 379.256 472.44 384.694 472.279 391.564C471.296 428.887 484.652 463.498 507.533 489.854C530.445 516.243 562.881 534.359 600.015 538.653C606.865 539.435 613.049 534.52 613.831 527.676C614.614 520.832 609.695 514.653 602.846 513.871C572.118 510.318 545.298 495.352 526.375 473.56C507.422 451.733 496.359 423.063 497.175 392.148H497.178ZM561.058 556.595C564.104 550.425 561.569 542.957 555.394 539.911C549.22 536.868 541.743 539.401 538.697 545.571C528.588 566.062 511.831 581.454 492.109 590.133C472.37 598.815 449.687 600.774 427.739 594.393C421.134 592.481 414.225 596.282 412.311 602.881C410.397 609.48 414.201 616.384 420.805 618.297C448.595 626.378 477.262 623.919 502.164 612.966C527.08 602.006 548.259 582.534 561.058 556.598V556.595ZM606.942 577.247C610.017 571.104 607.523 563.633 601.375 560.563C595.228 557.49 587.754 559.983 584.678 566.122C575.62 584.155 562.405 599.459 546.43 611.03C530.495 622.571 511.834 630.34 491.83 633.336C485.008 634.333 480.287 640.667 481.284 647.483C482.281 654.3 488.62 659.017 495.443 658.021C519.509 654.418 541.941 645.085 561.075 631.229C580.166 617.404 596.006 599.01 606.942 577.25V577.247ZM456.405 656.84C463.09 655.143 467.136 648.349 465.437 641.67C463.738 634.99 456.939 630.948 450.254 632.645C427.329 638.503 408.342 652.415 395.792 670.742C383.255 689.05 377.161 711.745 379.998 735.185C380.808 742.029 387.016 746.92 393.865 746.112C400.714 745.303 405.609 739.1 404.8 732.256C402.705 714.959 407.181 698.245 416.394 684.789C425.593 671.353 439.54 661.148 456.405 656.84ZM461.435 795.85C455.394 799.138 453.165 806.693 456.455 812.729C459.746 818.764 467.307 820.991 473.347 817.704C485.404 811.155 498.73 807.944 512.025 808.055C525.301 808.166 538.556 811.605 550.509 818.358C559.89 823.659 567.934 830.704 574.317 838.96H603.843C602.782 836.95 601.66 834.974 600.472 833.039C591.343 818.157 578.494 805.563 562.811 796.699C547.128 787.836 529.696 783.323 512.22 783.179C494.768 783.032 477.272 787.252 461.435 795.854V795.85ZM569.593 771.82C551.956 758.655 531.153 751.855 510.276 751.469C489.325 751.084 468.254 757.109 450.163 769.599C432.12 782.059 419.049 799.615 411.999 819.348C409.732 825.692 408.091 832.26 407.11 838.956H381.912C383.034 829.382 385.243 819.988 388.469 810.957C397.216 786.48 413.493 764.657 436.005 749.111C458.473 733.595 484.642 726.114 510.666 726.59C536.763 727.07 562.673 735.504 584.531 751.818C590.057 755.941 591.195 763.762 587.069 769.284C582.942 774.806 575.119 775.943 569.59 771.82H569.593ZM633.09 810.065C630.609 788.946 622.937 769.18 611.156 752.315C599.361 735.43 583.433 721.404 564.459 711.795C545.463 702.177 524.697 697.628 504.061 698.111C483.48 698.591 462.992 704.096 444.486 714.58C438.499 717.975 430.891 715.878 427.497 709.897C424.099 703.915 426.198 696.313 432.184 692.921C454.303 680.391 478.857 673.809 503.574 673.232C528.239 672.658 553.034 678.079 575.69 689.553C598.37 701.036 617.427 717.831 631.566 738.074C645.721 758.337 654.927 782.012 657.892 807.237C658.674 814.08 653.755 820.26 646.906 821.042C640.057 821.823 633.872 816.909 633.09 810.065ZM816.356 813.218C816.034 806.348 810.195 801.04 803.322 801.366C796.446 801.688 791.134 807.522 791.46 814.389C791.903 823.31 794.428 831.65 798.548 838.96H832.7C830.289 837.678 828.07 836.088 826.093 834.236C820.445 828.952 816.776 821.548 816.359 813.218H816.356ZM837.397 721.263C840.184 748.782 849.454 774.839 864.006 797.545C874.011 813.158 886.487 827.168 901.049 838.96H864.667C856.612 830.284 849.37 820.928 843.014 811.007C826.391 785.065 815.792 755.244 812.599 723.702C812.159 719.24 814.133 715.1 817.457 712.57C815.077 713.761 812.3 714.204 809.483 713.654C773.635 706.616 741.987 688.57 718.048 663.234C694.146 637.936 677.953 605.33 672.977 569.132C672.061 562.315 676.848 556.048 683.667 555.132C690.49 554.216 696.762 559 697.678 565.814C701.922 596.681 715.765 624.523 736.206 646.158C756.612 667.757 783.63 683.149 814.261 689.164C821.029 690.482 825.445 697.038 824.122 703.797C823.511 706.924 821.778 709.548 819.425 711.336C820.747 710.675 822.211 710.242 823.769 710.088C830.619 709.414 836.716 714.415 837.391 721.259L837.397 721.263ZM889.324 708.659C890.483 701.868 885.917 695.427 879.121 694.27C872.325 693.112 865.879 697.675 864.717 704.465C860.715 727.647 864.694 750.748 874.991 770.582C885.305 790.442 901.945 807.019 923.255 817.113C929.483 820.049 936.917 817.385 939.855 811.162C942.793 804.939 940.127 797.511 933.899 794.576C917.672 786.89 905.004 774.276 897.157 759.169C889.298 744.032 886.266 726.385 889.324 708.662V708.659ZM739.375 732.116H739.254C732.267 731.844 725.509 733.481 719.623 736.675C713.741 739.869 708.701 744.629 705.145 750.604C701.593 756.569 699.817 763.285 699.817 770.015C699.817 776.745 701.593 783.461 705.145 789.426C708.701 795.404 713.744 800.165 719.623 803.355C725.509 806.552 732.271 808.189 739.254 807.921H739.305C749.531 807.592 758.724 803.228 765.362 796.377C771.953 789.577 775.999 780.274 775.999 770.015C775.999 759.756 771.953 750.453 765.362 743.653C758.738 736.819 749.575 732.458 739.375 732.112V732.116ZM783.234 726.288C794.243 737.644 800.999 753.08 800.999 770.015C800.999 786.95 794.243 802.389 783.234 813.742C772.285 825.037 757.089 832.243 740.137 832.797C728.658 833.243 717.494 830.519 707.714 825.208C697.927 819.894 689.557 812 683.667 802.107C677.772 792.204 674.824 781.103 674.824 770.012C674.824 758.921 677.772 747.823 683.667 737.919C689.557 728.026 697.927 720.132 707.714 714.818C717.494 709.507 728.658 706.787 740.137 707.229L740.325 707.24C757.203 707.84 772.326 715.033 783.234 726.285V726.288ZM584.044 624.755C606.804 633.846 624.888 646.789 638.291 663.57C651.711 680.374 660.256 700.798 663.932 724.846C664.956 731.663 660.256 738.017 653.437 739.04C646.614 740.063 640.255 735.366 639.231 728.553C636.226 708.897 629.404 692.408 618.764 679.083C608.107 665.74 593.441 655.337 574.767 647.876C568.378 645.316 565.272 638.067 567.834 631.679C570.395 625.295 577.651 622.191 584.044 624.751V624.755ZM661.407 491.917C664.426 485.721 661.847 478.253 655.646 475.234C649.444 472.218 641.967 474.794 638.949 480.99C622.997 513.673 618.663 548.033 625.942 584.064C633.05 619.253 651.278 655.753 680.622 693.562C684.829 699.003 692.652 700.01 698.101 695.806C703.547 691.603 704.554 683.783 700.347 678.341C673.346 643.548 656.68 610.497 650.354 579.183C644.2 548.714 647.883 519.625 661.407 491.914V491.917ZM744.646 530.477C744.646 523.607 739.073 518.038 732.197 518.038C725.321 518.038 719.747 523.607 719.747 530.477C719.808 570.987 734.309 608.571 758.748 637.838C783.18 667.096 817.575 688.077 857.432 695.39C864.2 696.628 870.69 692.153 871.933 685.39C873.171 678.626 868.693 672.141 861.924 670.9C828.016 664.677 798.726 646.792 777.886 621.836C757.056 596.889 744.697 564.905 744.646 530.474V530.477ZM788.556 530.447C787.505 523.657 781.142 519.007 774.35 520.057C767.555 521.107 762.901 527.465 763.952 534.252C770.613 576.485 788.139 608.608 816.524 630.609C844.445 652.251 882.499 663.61 930.679 664.677C937.555 664.811 943.236 659.349 943.373 652.482C943.508 645.612 938.042 639.932 931.169 639.798C888.529 638.852 855.394 629.22 831.76 610.899C808.59 592.941 794.19 566.122 788.562 530.447H788.556ZM670.644 510.328C664.684 513.777 662.653 521.399 666.104 527.354C669.556 533.309 677.184 535.339 683.144 531.89C720.073 510.449 749.837 500.569 772.44 502.253C792.252 503.729 806.757 515.065 815.946 536.258C816.279 537.392 816.682 538.714 817.152 540.223C826.637 570.557 841.211 591.542 860.876 603.176C880.874 615.009 905.226 616.797 933.929 608.541C934.819 608.286 935.997 607.927 937.448 607.474C944.025 605.427 947.698 598.436 945.65 591.864C943.602 585.292 936.605 581.622 930.027 583.668C929.312 583.893 928.339 584.181 927.093 584.537C905.226 590.827 887.384 589.885 873.571 581.712C859.419 573.339 848.554 557.038 840.98 532.809C840.668 531.809 840.281 530.518 839.825 528.934L839.788 528.944C839.65 528.465 839.486 527.992 839.288 527.518C826.166 496.339 804.504 479.625 774.296 477.374C746.59 475.311 712.042 486.294 670.647 510.328H670.644ZM915.043 489.062C920.848 489.488 926.005 492.129 929.712 496.114C933.398 500.079 935.641 505.42 935.641 511.278C935.641 517.135 933.402 522.473 929.712 526.442C926.005 530.43 920.848 533.067 915.043 533.493C914.794 533.51 914.546 533.537 914.301 533.571C910.101 533.987 905.968 533.215 902.321 531.454C898.591 529.652 895.361 526.821 893.071 523.177C890.815 519.584 889.687 515.451 889.687 511.281C889.687 507.111 890.815 502.978 893.071 499.385C895.361 495.738 898.594 492.907 902.321 491.109C906.041 489.314 910.268 488.546 914.556 489.019L915.046 489.062V489.069L915.043 489.062ZM947.97 479.139C940.137 470.711 929.228 465.129 916.916 464.193C908.026 463.28 899.242 464.914 891.48 468.665C883.617 472.463 876.801 478.427 871.976 486.113C867.118 493.853 864.687 502.585 864.687 511.278C864.687 519.97 867.118 528.706 871.976 536.442C876.801 544.128 883.617 550.096 891.48 553.891C899.246 557.641 908.026 559.275 916.916 558.363C929.225 557.423 940.133 551.841 947.97 543.417C955.85 534.943 960.638 523.624 960.638 511.278C960.638 498.932 955.85 487.616 947.97 479.139ZM916.574 437.965C899.007 439.616 884.1 443.464 871.852 449.512C860.188 455.272 850.955 463.076 844.153 472.922C840.244 478.578 832.482 480.001 826.821 476.092C821.16 472.187 819.737 464.431 823.648 458.775C832.912 445.369 845.301 434.835 860.823 427.169C875.76 419.792 893.595 415.129 914.331 413.183C921.18 412.562 927.234 417.608 927.855 424.452C928.476 431.296 923.427 437.344 916.577 437.965H916.574ZM926.435 406.248C933.093 407.946 939.872 403.927 941.57 397.271C943.269 390.618 939.247 383.845 932.586 382.147C904.181 374.854 876.089 376.287 848.309 386.452C821.197 396.372 794.529 414.619 768.303 441.196C763.479 446.1 763.542 453.984 768.451 458.805C773.36 463.626 781.25 463.562 786.075 458.657C809.631 434.788 833.241 418.524 856.901 409.865C879.897 401.451 903.073 400.247 926.435 406.245V406.248ZM850.871 365.232C785.171 378.397 741.517 412.354 719.912 467.108C717.404 473.519 710.168 476.686 703.752 474.18C697.336 471.674 694.166 464.445 696.674 458.033C721.631 394.785 771.406 355.685 845.989 340.742C852.758 339.397 859.335 343.785 860.685 350.548C862.035 357.312 857.64 363.884 850.871 365.232ZM794.952 339.474C781.549 342.007 770.459 345.875 761.692 351.075C753.571 355.893 747.507 361.841 743.505 368.919C740.134 374.901 732.549 377.018 726.563 373.653C720.576 370.285 718.458 362.706 721.825 356.725C728.064 345.694 737.122 336.656 748.998 329.611C760.225 322.948 774.014 318.074 790.362 314.984C797.131 313.719 803.644 318.174 804.91 324.934C806.176 331.698 801.717 338.206 794.952 339.471V339.474ZM683.187 270.798C686.424 264.735 684.127 257.201 678.06 253.967C671.993 250.732 664.452 253.027 661.219 259.089C656.754 267.453 653.786 276.256 652.322 285.498C650.858 294.724 650.871 304.255 652.352 314.095C653.376 320.912 659.739 325.605 666.558 324.582C673.38 323.559 678.077 317.202 677.053 310.388C675.932 302.94 675.888 295.942 676.926 289.4C677.96 282.878 680.048 276.675 683.187 270.794V270.798ZM836.682 312.528C816.255 299.854 797.856 293.986 781.488 294.929C765.836 295.828 751.492 303.198 738.462 317.037C738.304 317.205 738.14 317.369 737.975 317.527C716.208 341.145 695.066 355.5 674.552 360.579C652.295 366.091 631.411 361.022 611.898 345.372C611.169 344.785 610.521 344.134 609.96 343.433C595.694 327.863 590.003 310.388 592.884 291.007C595.594 272.77 606.116 253.356 624.445 232.774C629.027 227.628 636.918 227.172 642.068 231.751C647.218 236.33 647.678 244.214 643.092 249.36C628.064 266.238 619.559 281.325 617.585 294.62C615.869 306.161 619.365 316.752 628.067 326.397C640.984 336.549 654.494 339.88 668.596 336.388C684.299 332.499 701.321 320.603 719.656 300.706C719.858 300.454 720.073 300.209 720.298 299.968C737.868 281.312 757.808 271.341 780.118 270.056C801.714 268.815 824.961 275.917 849.86 291.363C855.712 294.999 857.502 302.689 853.862 308.533C850.223 314.38 842.528 316.168 836.679 312.532L836.682 312.528ZM900.804 307.949C903.909 307.157 907.052 307.352 909.839 308.392C912.625 309.428 915.127 311.334 916.947 313.954C918.733 316.524 919.626 319.53 919.626 322.546C919.626 325.562 918.733 328.568 916.947 331.137C915.123 333.761 912.625 335.663 909.839 336.7C907.052 337.736 903.909 337.931 900.804 337.139C900.434 337.045 900.062 336.971 899.692 336.911C896.268 336.267 893.313 334.469 891.215 331.973C889.066 329.416 887.793 326.115 887.793 322.546C887.793 318.976 889.069 315.672 891.215 313.119C893.35 310.576 896.372 308.761 899.877 308.147C900.189 308.093 900.498 308.026 900.804 307.949ZM918.528 285.072C911.125 282.315 902.956 281.718 895.025 283.66C885.792 285.415 877.798 290.306 872.077 297.116C866.252 304.047 862.793 312.954 862.793 322.546C862.793 332.137 866.252 341.044 872.077 347.975C877.801 354.786 885.792 359.677 895.025 361.431C902.956 363.374 911.125 362.777 918.528 360.019C926.049 357.218 932.707 352.209 937.451 345.382C942.232 338.505 944.622 330.52 944.622 322.546C944.622 314.571 942.232 306.587 937.451 299.709C932.707 292.882 926.049 287.874 918.528 285.072ZM800.955 235.599C771.785 251.434 739.019 255.198 708.711 248.273C678.41 241.349 650.542 223.736 631.163 196.817C627.147 191.241 628.413 183.465 633.993 179.453C639.573 175.437 647.356 176.705 651.375 182.281C667.071 204.087 689.677 218.362 714.278 223.981C738.871 229.6 765.433 226.564 789.043 213.746C795.083 210.458 802.644 212.685 805.934 218.721C809.224 224.756 806.995 232.311 800.955 235.599ZM569.395 0.254942H596.651C589.046 15.2912 585.424 31.2099 585.779 48.0074C586.206 68.1129 592.307 89.681 604.078 112.708C619.237 142.275 621.654 175.145 613.167 204.882C604.672 234.639 585.249 261.307 556.74 278.44C550.835 281.969 543.186 280.047 539.654 274.149C536.122 268.248 538.046 260.606 543.952 257.076C566.763 243.365 582.321 221.965 589.147 198.055C595.98 174.122 594.062 147.719 581.915 124.028C568.401 97.5917 561.391 72.4137 560.884 48.4972C560.524 31.6963 563.365 15.6167 569.398 0.258297L569.395 0.254942ZM673.786 2.33157C674.397 1.68409 674.924 0.986292 675.368 0.254942H643.495C631.478 17.6497 624.169 37.4968 621.792 57.9142C618.707 84.4207 623.968 111.927 638.052 136.303L638.073 136.34L638.052 136.353C652.134 160.719 673.37 179.033 697.933 189.638C722.48 200.236 750.364 203.134 777.751 196.686C784.466 195.123 788.64 188.42 787.075 181.71C785.51 175.001 778.802 170.831 772.087 172.394C750.032 177.591 727.573 175.252 707.794 166.714C688.032 158.183 670.949 143.455 659.631 123.867L659.611 123.877C648.313 104.305 644.103 82.1494 646.594 60.7423C649.078 39.3788 658.275 18.8004 673.786 2.33157ZM744.015 6.63581L744.401 6.64587C763.65 7.46109 780.85 15.7643 793.223 28.6636C805.639 41.6064 813.24 59.1287 813.24 78.3283C813.24 97.5279 805.639 115.05 793.223 127.993C780.85 140.892 763.65 149.192 744.401 150.004H744.304C731.223 150.454 718.538 147.313 707.452 141.248C696.312 135.152 686.8 126.145 680.122 114.886C673.427 103.593 670.076 90.9491 670.076 78.3283C670.076 65.7075 673.424 53.0598 680.122 41.7675C686.8 30.5087 696.312 21.501 707.452 15.4087C718.458 9.38676 731.038 6.25 744.015 6.63916V6.63581ZM719.361 37.2586C726.556 33.3234 734.789 31.2669 743.293 31.5152L743.424 31.5219C755.941 32.0519 767.158 37.4867 775.257 45.9275C783.311 54.3246 788.243 65.7511 788.243 78.3216C788.243 90.8921 783.311 102.319 775.257 110.716C767.158 119.16 755.941 124.591 743.424 125.121C734.876 125.396 726.596 123.343 719.364 119.385C712.156 115.443 705.975 109.568 701.603 102.194C697.252 94.8541 695.073 86.5946 695.073 78.3182C695.073 70.0419 697.249 61.7823 701.603 54.442C705.975 47.0681 712.159 41.1938 719.364 37.2519L719.361 37.2586ZM854.413 96.0317C844.666 109.914 838.727 125.796 836.773 142.164C834.815 158.552 836.853 175.407 843.061 191.211C849.269 207.016 859.234 220.737 871.795 231.389C884.372 242.057 899.548 249.659 916.161 253.215C922.903 254.641 927.207 261.26 925.78 267.996C924.35 274.733 917.729 279.034 910.987 277.608C890.265 273.173 871.348 263.702 855.686 250.414C840.003 237.112 827.567 219.992 819.824 200.283C812.082 180.576 809.54 159.602 811.971 139.232C814.405 118.844 821.825 99.0342 834.006 81.6831C837.968 76.0537 845.751 74.6984 851.388 78.6604C857.022 82.6191 858.378 90.3956 854.417 96.0283L854.413 96.0317Z" fill="#2C364F"/>
</g>
<defs>
<clipPath id="clip0_60_1665">
<rect width="1343" height="839" fill="white"/>
</clipPath>
</defs>
</svg>
