<svg width="867" height="800" viewBox="0 0 867 800" fill="none" xmlns="http://www.w3.org/2000/svg">
<rect x="383" width="484" height="800" fill="#41BA6C"/>
<g opacity="0.05" clip-path="url(#clip0_0_1)">
<path fill-rule="evenodd" clip-rule="evenodd" d="M813.281 0.253355C821.689 17.1985 838.772 27.5079 855.68 37.7099C877.292 50.7501 898.505 63.5521 883.974 92.994C867.263 119.064 860.535 142.813 863.792 164.237C867.166 186.439 880.908 205.24 905.015 220.642C910.81 224.332 918.505 222.628 922.199 216.837C925.892 211.043 924.186 203.357 918.391 199.667C900.711 188.371 890.746 175.328 888.496 160.533C886.153 145.118 891.763 126.905 905.327 105.9H905.324C905.552 105.541 905.767 105.165 905.962 104.779C931.475 54.2995 900.311 35.4991 868.569 16.3498C860.065 11.2169 851.503 6.05048 844.912 0.260064H813.281V0.253355ZM949.784 448.323C943.505 445.589 940.635 438.285 943.371 432.012C946.107 425.738 953.417 422.87 959.695 425.604C975.2 432.357 988.432 442.841 998.434 455.811C1008.44 468.781 1015.21 484.246 1017.8 500.96C1020.39 517.681 1018.61 534.458 1013 549.816C1007.39 565.208 997.934 579.205 985.192 590.326C980.042 594.828 972.209 594.308 967.703 589.162C963.197 584.015 963.717 576.192 968.868 571.686C978.407 563.363 985.477 552.886 989.681 541.369C993.898 529.815 995.241 517.238 993.307 504.748C991.373 492.251 986.297 480.677 978.803 470.955C971.309 461.236 961.391 453.379 949.777 448.32L949.784 448.323ZM1063.47 687.545C1057.3 684.543 1054.73 677.108 1057.74 670.942C1060.74 664.776 1068.18 662.213 1074.35 665.215C1109.85 682.523 1137.32 710.653 1154.05 744.148C1168.43 772.939 1174.85 805.702 1171.59 838.958H1146.62C1149.97 809.614 1144.49 780.621 1131.8 755.215C1117.46 726.501 1093.91 702.383 1063.48 687.545H1063.47ZM1064.17 446.173C1095.2 470.005 1113.65 504.12 1118.37 540.027C1123.1 575.944 1114.12 613.672 1090.32 644.714C1086.16 650.156 1087.2 657.936 1092.65 662.092C1098.1 666.249 1105.88 665.205 1110.04 659.761C1137.98 623.331 1148.51 579.023 1142.96 536.823C1137.4 494.613 1115.75 454.529 1079.33 426.56C1073.91 422.377 1066.13 423.377 1061.94 428.795C1057.75 434.209 1058.75 441.989 1064.18 446.173H1064.17ZM1039.45 636.039C1027.52 646.254 1019.02 659.415 1014.48 673.817C1009.96 688.146 1009.4 703.756 1013.31 718.96C1017.23 734.181 1025.29 747.61 1036.2 758.013C1047.11 768.42 1060.9 775.831 1076.26 779.021C1082.97 780.417 1089.53 776.112 1090.93 769.409C1092.32 762.707 1088.02 756.144 1081.31 754.749C1070.58 752.521 1060.94 747.335 1053.3 740.051C1045.66 732.765 1040.03 723.412 1037.31 712.841C1034.58 702.253 1035 691.306 1038.19 681.194C1041.35 671.157 1047.28 661.988 1055.58 654.873C1060.78 650.424 1061.39 642.597 1056.94 637.397C1052.48 632.197 1044.65 631.587 1039.45 636.039H1039.45ZM910.175 686.337C910.954 679.527 917.109 674.639 923.924 675.414C930.74 676.192 935.632 682.342 934.856 689.152C931.925 714.35 934.856 734.909 943.65 750.824C952.218 766.34 966.736 777.88 987.2 785.449L987.586 785.6C997.229 789.495 1005.51 795.785 1011.81 803.679C1018.07 811.533 1022.34 821.007 1024 831.319C1024.41 833.869 1024.65 836.419 1024.73 838.958H999.911C999.851 837.707 999.72 836.456 999.519 835.204C998.562 829.249 996.057 823.734 992.377 819.118C988.731 814.542 983.903 810.885 978.259 808.604C952.184 798.878 933.393 783.597 921.886 762.764C910.545 742.229 906.64 716.752 910.179 686.334L910.175 686.337ZM963.835 402.701C984.638 413.198 1001.86 428.781 1014.23 447.521C1026.62 466.278 1034.18 488.245 1035.65 511.494C1037.12 534.75 1032.39 557.496 1022.47 577.668C1012.57 597.797 997.44 615.417 978.111 628.457C977.46 628.896 976.862 629.389 976.322 629.923C962.918 641.671 953.39 656.701 948.33 673.113C943.186 689.793 942.653 707.872 947.343 725.357C952.037 742.866 961.545 758.261 974.337 770.131C987.089 781.96 1003.11 790.283 1020.9 793.692C1041.99 798.107 1060.86 808.372 1075.72 822.761C1080.83 827.699 1085.46 833.124 1089.55 838.958H1118.58C1111.85 826.297 1103.2 814.85 1093.02 804.994C1074.83 787.391 1051.77 774.834 1026.02 769.433L1025.63 769.352C1012.51 766.863 1000.67 760.72 991.242 751.974C981.814 743.228 974.804 731.872 971.339 718.95C967.867 706.007 968.25 692.665 972.034 680.393C975.741 668.376 982.704 657.352 992.501 648.7C1015.16 633.281 1032.97 612.424 1044.71 588.541C1056.53 564.524 1062.17 537.504 1060.43 509.941C1058.68 482.374 1049.68 456.271 1034.93 433.931C1020.17 411.574 999.693 393.022 975.009 380.566C968.891 377.483 961.431 379.938 958.346 386.051C955.26 392.163 957.718 399.618 963.835 402.701ZM512.04 14.1826C518.916 13.8605 524.227 8.02647 523.902 1.1558C523.888 0.850513 523.862 0.548579 523.825 0.25H447.035C442.593 1.73283 438.316 3.36327 434.21 5.13797C412.325 14.5952 395.283 28.1218 383.088 45.7145C379.18 51.3707 380.6 59.1271 386.261 63.0321C391.922 66.9371 399.684 65.518 403.592 59.8618C413.094 46.1574 426.585 35.5259 444.07 27.9709C462.339 20.077 484.995 15.4809 512.036 14.1826H512.04ZM279.358 180.374H279.177C264.951 180.588 252.129 186.463 242.859 195.829C233.549 205.24 227.807 218.156 227.807 232.383C227.807 246.611 233.549 259.527 242.859 268.937C252.169 278.348 265.059 284.232 279.358 284.396H279.694C293.943 284.242 306.799 278.398 316.093 269.038C325.46 259.604 331.245 246.648 331.245 232.387C331.245 218.125 325.463 205.169 316.093 195.735C306.769 186.345 293.859 180.488 279.553 180.377H279.358V180.374ZM260.63 213.294C265.455 208.417 272.106 205.36 279.466 205.253C286.866 205.34 293.56 208.4 298.419 213.294C303.257 218.169 306.245 224.912 306.245 232.383C306.245 239.855 303.257 246.601 298.419 251.472C293.56 256.367 286.866 259.427 279.466 259.514C272.106 259.406 265.451 256.35 260.63 251.472C255.789 246.581 252.804 239.834 252.804 232.38C252.804 224.926 255.792 218.182 260.63 213.288V213.294ZM393.738 212.785C392.093 206.105 385.338 202.019 378.653 203.663C371.968 205.307 367.879 212.057 369.524 218.736C374.423 238.56 383.575 256.85 396.099 272.497C408.605 288.12 424.453 301.06 442.754 310.202C461.083 319.36 480.963 324.272 500.977 324.893C520.967 325.513 541.089 321.85 559.928 313.859C566.263 311.165 569.215 303.848 566.519 297.517C563.822 291.187 556.5 288.238 550.164 290.932C534.659 297.507 518.103 300.523 501.662 300.013C485.244 299.503 468.929 295.471 453.888 287.956C438.819 280.428 425.792 269.8 415.532 256.981C405.288 244.186 397.784 229.149 393.742 212.781L393.738 212.785ZM437.668 202.358C437.866 209.876 439.877 217.132 443.392 223.58C446.894 229.998 451.924 235.611 458.182 239.878C464.444 244.145 471.508 246.779 478.764 247.698C486.056 248.621 493.573 247.836 500.695 245.266C507.165 242.948 514.293 246.313 516.609 252.777C518.929 259.242 515.562 266.364 509.092 268.679C498.244 272.594 486.778 273.789 475.641 272.38C464.464 270.964 453.643 266.951 444.124 260.46C434.602 253.968 426.917 245.363 421.522 235.48C416.146 225.627 413.074 214.502 412.769 202.938C412.607 196.067 418.05 190.368 424.926 190.207C431.802 190.046 437.507 195.484 437.668 202.354V202.358ZM94.4607 491.382C100.555 488.202 102.915 480.69 99.732 474.601C96.5491 468.512 89.0316 466.154 82.9378 469.334C64.3708 479.073 44.0915 484.337 23.6443 485.072C15.7273 485.357 7.78685 484.961 -0.0898438 483.881V508.975C8.08903 509.921 16.3149 510.243 24.524 509.948C48.6342 509.082 72.5564 502.869 94.4607 491.382ZM-0.0864862 650.937C13.6222 664.89 30.6447 675.921 50.2055 682.687C56.7023 684.922 63.7866 681.473 66.0227 674.978C68.2588 668.486 64.8073 661.408 58.3105 659.173C33.5825 650.619 13.8774 633.64 1.59562 612.38C1.01813 611.381 0.457429 610.374 -0.0864862 609.358V650.937ZM37.4101 538.719C36.9132 558.455 43.1615 577.094 54.2916 592.117C65.4251 607.144 81.437 618.553 100.457 623.834C107.088 625.666 110.98 632.523 109.146 639.152C107.313 645.778 100.45 649.666 93.8161 647.834C69.2728 641.021 48.6208 626.31 34.2742 606.946C19.9242 587.578 11.8696 563.558 12.5109 538.132C12.672 531.261 18.3764 525.823 25.2526 525.984C32.1287 526.145 37.5712 531.845 37.4101 538.715V538.719ZM385.68 625.602C386.842 617.802 386.291 609.999 384.173 602.702C382.047 595.375 378.347 588.494 373.227 582.576C368.1 576.648 361.815 571.988 354.862 568.818C348.207 565.785 340.921 564.111 333.438 563.991C304.029 568.889 280.778 582.824 263.689 605.788C263.366 606.221 263.024 606.627 262.665 607.009C247.613 622.69 228.821 633.63 208.522 639.209C188.269 644.775 166.54 644.969 145.559 639.182C124.561 633.392 106.007 622.089 91.4927 606.942C76.9413 591.758 66.429 572.726 61.5505 551.514C60.0128 544.804 64.2096 538.121 70.9246 536.585C77.6396 535.048 84.3278 539.242 85.8655 545.952C89.7166 562.702 98.0029 577.715 109.462 589.672C120.955 601.665 135.624 610.609 152.203 615.182C168.799 619.758 185.979 619.607 201.985 615.209C217.731 610.881 232.373 602.4 244.222 590.239C265.488 562.025 294.239 545.029 330.473 539.252V539.259C331.111 539.158 331.762 539.108 332.427 539.108C343.866 539.078 355.036 541.547 365.223 546.19C375.413 550.833 384.606 557.64 392.083 566.289C399.57 574.944 404.982 585.029 408.105 595.781C411.238 606.567 412.07 617.963 410.395 629.218C409.398 636.035 403.059 640.752 396.236 639.756C389.414 638.759 384.693 632.425 385.69 625.608L385.68 625.602ZM384.75 769.5C388.739 763.897 387.429 756.121 381.822 752.132C376.215 748.143 368.433 749.455 364.444 755.058C351.249 773.61 342.348 792.336 337.749 811.231C335.502 820.46 334.29 829.702 334.109 838.955H359.032C359.213 831.661 360.19 824.371 361.963 817.085C365.8 801.324 373.395 785.462 384.75 769.497V769.5ZM338.722 615.99C342.768 610.441 341.543 602.665 335.989 598.622C330.436 594.583 322.653 595.804 318.611 601.353C301.038 625.434 275.954 642.228 243.366 651.739C209.68 661.569 167.953 663.689 118.192 658.097C111.342 657.342 105.178 662.277 104.422 669.12C103.667 675.964 108.606 682.124 115.455 682.879C168.42 688.83 213.37 686.418 250.296 675.642C288.323 664.548 317.798 644.66 338.722 615.987V615.99ZM306.578 713.448C255.446 727.182 210.583 733.567 171.989 732.597C132.347 731.604 99.2619 722.858 72.7343 706.362C66.8822 702.726 65.0927 695.036 68.7322 689.189C72.3717 683.342 80.0671 681.553 85.9159 685.19C108.653 699.331 137.541 706.839 172.573 707.718C208.653 708.623 251.175 702.498 300.134 689.347C306.792 687.569 313.635 691.521 315.414 698.177C317.194 704.829 313.235 711.666 306.578 713.444V713.448ZM370.914 666.178C366.344 690.665 358.73 711.535 348.069 728.786C337.114 746.506 323.043 760.331 305.856 770.251C299.896 773.7 292.268 771.667 288.816 765.716C285.365 759.761 287.399 752.139 293.356 748.69C306.974 740.83 318.147 729.836 326.877 715.712C335.899 701.119 342.409 683.11 346.404 661.693C347.643 654.93 354.137 650.454 360.905 651.692C367.674 652.93 372.153 659.418 370.914 666.182V666.178ZM163.571 781.782C156.749 780.813 150.434 785.553 149.463 792.366C148.493 799.183 153.237 805.494 160.056 806.463C178.909 809.191 193.688 814.897 204.385 823.583C209.69 827.891 214.062 833.013 217.49 838.955H244.991C239.71 825.012 231.413 813.448 220.105 804.266C205.809 792.662 186.963 785.164 163.571 781.782ZM119.37 750.23C112.712 751.927 108.69 758.698 110.385 765.354C112.084 772.006 118.86 776.025 125.521 774.331C163.155 764.683 196.24 766.702 224.775 780.386C248.446 791.739 269.366 811.264 287.537 838.962H316.768C294.329 800.173 267.244 773.167 235.513 757.946C201.555 741.658 162.84 739.089 119.367 750.233L119.37 750.23ZM25.7965 700.609C19.4072 698.076 12.1717 701.199 9.63683 707.583C7.10192 713.968 10.2278 721.197 16.6171 723.73C40.6669 733.295 58.0654 747.509 68.8128 766.37C79.6642 785.412 84.029 809.61 81.9137 838.958H106.941C109.099 805.413 103.62 777.115 90.4921 754.078C76.8674 730.168 55.3022 712.344 25.7965 700.609ZM-0.0864862 778.129V745.714C36.7923 772.969 54.2211 804.051 52.2133 838.958H27.2335C28.8619 817.269 19.753 796.993 -0.0864862 778.129ZM12.4236 838.958H-0.0864862V821.426C4.22119 825.177 7.95137 829.642 10.906 834.711C11.6883 836.063 12.1885 837.502 12.4269 838.958H12.4236ZM61.5371 0.253355C59.6468 2.36354 57.9009 4.63139 56.3162 7.05693C50.2391 16.3632 47.2005 26.9846 47.2005 37.5757C47.2005 48.1669 50.2391 58.7882 56.3162 68.0912C62.4033 77.4075 70.9213 84.4761 80.6345 88.7434C90.3612 93.0175 101.313 94.5238 112.255 92.7155L112.396 92.692V92.7155C125.793 90.3604 137.38 83.3589 145.626 73.5461C153.862 63.7433 158.747 51.1426 158.747 37.5724C158.747 24.0021 153.862 11.4014 145.626 1.59864C145.243 1.14238 144.853 0.692836 144.457 0.25H61.5337L61.5371 0.253355ZM90.6936 9.23421C95.9078 6.94286 101.746 6.08068 107.595 6.91603L108.109 7.01667C115.532 8.3217 121.945 12.1864 126.495 17.6011C131.054 23.0259 133.757 30.024 133.757 37.5757C133.757 45.1274 131.051 52.1222 126.495 57.547C121.945 62.9616 115.536 66.8264 108.109 68.1314V68.1549C102.096 69.1211 96.0656 68.2757 90.697 65.9139C85.2746 63.532 80.5506 59.6337 77.2166 54.5276C73.8725 49.4082 72.2005 43.5037 72.2005 37.5724C72.2005 31.641 73.8725 25.7366 77.2166 20.6171C80.5506 15.5111 85.2746 11.6161 90.697 9.23085L90.6936 9.23421ZM341.821 0.253355C346.606 19.349 347.784 39.0418 345.477 58.3655C343.114 78.1388 337.087 97.4525 327.522 115.263C324.261 121.325 326.534 128.884 332.598 132.141C338.665 135.402 346.226 133.131 349.49 127.069C360.573 106.43 367.553 84.1004 370.276 61.2909C372.687 41.1016 371.76 20.4762 367.399 0.25H341.821V0.253355ZM287.93 0.253355C293.762 16.3498 296.676 33.2614 296.676 50.22C296.676 68.8124 293.171 87.3579 286.157 104.826C283.595 111.211 286.698 118.464 293.09 121.02C299.48 123.58 306.739 120.477 309.3 114.092C317.55 93.5408 321.673 71.8519 321.673 50.2167C321.673 33.4057 319.182 16.5678 314.202 0.25H287.93V0.253355ZM240.391 0.253355H266.284C269.813 14.0081 271.109 28.1185 270.202 42.0578C269.027 60.1436 264.162 78.0181 255.678 94.5305C247.197 111.04 235.496 125.408 221.468 136.909C207.373 148.463 190.985 157.138 173.197 162.201C166.566 164.086 159.657 160.241 157.77 153.616C155.883 146.99 159.731 140.086 166.362 138.2C180.933 134.054 194.269 127.019 205.651 117.689C217.1 108.305 226.629 96.6138 233.515 83.2147C240.398 69.8189 244.35 55.269 245.306 40.4978C246.186 26.9678 244.561 13.3137 240.391 0.253355ZM120.878 113.978C133.213 112.388 144.743 107.665 154.52 100.499C164.263 93.353 172.227 83.7783 177.465 72.4591C182.703 61.14 184.848 48.8613 183.978 36.7907C183.112 24.7201 179.241 12.8809 172.452 2.44405C171.995 1.73954 171.616 1.00819 171.317 0.25671H199.712C204.949 11.2806 208.018 23.0863 208.878 35.0361C210.039 51.2131 207.155 67.6886 200.118 82.8993C193.077 98.1134 182.37 110.989 169.266 120.597C156.192 130.182 140.68 136.516 124.007 138.663C117.184 139.525 110.956 134.698 110.093 127.884C109.23 121.067 114.062 114.844 120.884 113.982L120.878 113.978ZM33.7907 23.6532C28.8921 33.5701 26.6325 44.3759 26.9817 55.0845C27.3309 65.7696 30.2855 76.391 35.8153 85.9589C41.3417 95.5235 49.0807 103.397 58.2031 109.064C67.312 114.723 77.7874 118.169 88.7899 118.886C95.6661 119.316 100.89 125.237 100.457 132.108C100.027 138.978 94.1015 144.199 87.2253 143.766C72.0125 142.773 57.5618 138.026 45.0182 130.236C32.488 122.453 21.8413 111.617 14.2333 98.4489C6.63187 85.2846 2.56594 70.6375 2.08246 55.8628C1.60234 41.1083 4.70467 26.2465 11.4297 12.6259C14.475 6.45642 21.9521 3.92353 28.1266 6.96635C34.301 10.0092 36.8359 17.4804 33.7907 23.6499V23.6532ZM118.39 185.718C125.078 184.074 129.164 177.324 127.519 170.645C125.873 163.962 119.118 159.879 112.433 161.523C93.1714 166.324 73.3622 165.512 55.1041 159.748C36.8393 153.985 20.1693 143.293 7.19257 128.344C4.57372 125.324 2.14625 122.184 -0.0831287 118.94V156.383C13.8639 168.867 30.1545 178.052 47.5867 183.554C70.1054 190.663 94.5715 191.656 118.393 185.718H118.39ZM528.985 70.0235C517.472 65.5784 505.211 64.0385 493.228 65.2966C481.288 66.5513 469.635 70.6073 459.28 77.3572C448.979 84.0735 440.585 93.1047 434.602 103.562C428.623 114.012 425.101 125.818 424.537 138.093C424.506 138.794 424.419 139.478 424.278 140.143C422.435 151.009 417.754 160.959 410.945 169.132C403.969 177.505 394.803 184.017 384.22 187.748C373.63 191.478 362.413 192.152 351.736 190.005C341.277 187.902 331.369 183.078 323.12 175.757C315.206 169.621 306.131 165.394 296.589 163.23C286.923 161.04 276.8 160.953 266.932 163.13C257.064 165.307 247.929 169.645 240.096 175.694C232.266 181.742 225.762 189.485 221.169 198.476L221.099 198.61L221.122 198.624C213.209 213.603 201.847 226.13 188.263 235.376C174.658 244.635 158.821 250.613 141.983 252.482C125.128 254.354 108.378 251.999 93.1043 245.967C77.8411 239.935 64.0082 230.203 52.9822 217.307C48.5066 212.08 49.1177 204.216 54.3487 199.744C59.5796 195.272 67.4496 195.883 71.9252 201.11C80.2249 210.815 90.6902 218.162 102.284 222.745C113.87 227.321 126.538 229.112 139.25 227.7C151.978 226.288 163.934 221.772 174.201 214.787C184.489 207.789 193.081 198.319 199.054 187.013L199.074 187.023C205.372 174.748 214.226 164.2 224.863 155.987C235.536 147.745 248.029 141.823 261.563 138.838C275.094 135.852 288.914 135.959 302.058 138.938C315.237 141.927 327.767 147.795 338.672 156.32L338.665 156.326C338.9 156.511 339.128 156.702 339.353 156.907C344.312 161.395 350.299 164.348 356.618 165.616C362.916 166.884 369.581 166.468 375.92 164.237C382.262 162.003 387.708 158.155 391.808 153.233C395.793 148.446 398.553 142.645 399.674 136.325C400.527 120.185 405.157 104.759 412.926 91.1757C420.803 77.4041 431.957 65.4509 445.709 56.4835C459.408 47.553 474.852 42.1819 490.689 40.5179C506.483 38.8573 522.69 40.9071 537.966 46.8048C544.383 49.284 547.576 56.4902 545.094 62.9046C542.613 69.3157 535.401 72.5061 528.985 70.0269V70.0235ZM508.236 118.621H508.138C497.545 119.014 488.034 123.56 481.144 130.669C474.278 137.757 470.047 147.392 470 157.987C469.953 168.588 474.1 178.273 480.916 185.436C487.674 192.538 497.045 197.148 507.524 197.695L507.863 197.708C515.182 198.104 522.314 196.467 528.562 193.169C534.817 189.868 540.176 184.923 543.946 178.703C547.73 172.46 549.644 165.418 549.674 158.366C549.704 151.344 547.844 144.282 544.09 137.962C540.367 131.692 535.065 126.7 528.881 123.362C522.653 120 515.542 118.299 508.236 118.628V118.621ZM540.696 101.405C550.822 106.866 559.488 115.028 565.572 125.274C571.625 135.469 574.624 146.956 574.573 158.46C574.523 169.93 571.407 181.393 565.233 191.579C559.045 201.787 550.322 209.866 540.182 215.217C530.039 220.571 518.469 223.225 506.594 222.587L506.235 222.564C489.111 221.658 473.841 214.16 462.852 202.613C451.769 190.965 445.024 175.187 445.101 157.893C445.178 140.592 452.075 124.865 463.275 113.304C474.432 101.787 489.894 94.4097 507.161 93.7421C519.06 93.2087 530.61 95.963 540.696 101.405ZM17.8829 208.101C11.8998 206.437 5.86972 205.575 -0.0864862 205.458V180.528C8.06552 180.659 16.325 181.82 24.524 184.104C31.1584 185.936 35.0464 192.793 33.2132 199.422C31.38 206.048 24.5173 209.936 17.8829 208.105V208.101ZM-0.0864862 259.705C10.5165 260.497 20.0585 265.14 27.1428 272.249C34.8919 280.018 39.6797 290.761 39.6797 302.64C39.6797 314.519 34.8919 325.262 27.1428 333.031C20.0552 340.137 10.5131 344.783 -0.0864862 345.575V370.495C17.4531 369.653 33.2367 362.205 44.8167 350.594C57.0917 338.288 64.6763 321.333 64.6763 302.64C64.6763 283.947 57.0917 266.995 44.8167 254.686C33.2367 243.075 17.4531 235.627 -0.0864862 234.785V259.705ZM155.208 371.501C127.401 418.438 94.9006 447.692 57.7129 459.256C39.3709 464.96 20.1055 466.315 -0.0864862 463.326V438.057C17.7754 441.207 34.5696 440.342 50.2928 435.451C81.3765 425.785 109.187 400.242 133.727 358.82C137.232 352.892 144.88 350.929 150.813 354.428C156.746 357.931 158.71 365.573 155.208 371.501ZM101.582 264.814C111.433 280.317 116.503 297.99 116.758 315.781C117.016 333.511 112.46 351.288 103.069 367.063C93.6549 382.877 80.1578 395.384 64.4077 403.637C48.6745 411.876 30.7354 415.845 12.4068 414.594L12.2423 414.58C8.03531 414.52 3.92908 414.362 -0.0864862 414.111V389.181C4.00966 389.469 8.23004 389.644 12.5814 389.704C13.0716 389.677 13.5651 389.681 14.0654 389.714C27.8076 390.654 41.1973 387.708 52.8848 381.589C64.5521 375.48 74.5675 366.174 81.5881 354.381C88.6321 342.549 92.05 329.271 91.8587 316.073C91.6673 302.932 87.8699 289.794 80.4902 278.18C76.7969 272.359 78.5227 264.65 84.3479 260.96C90.1732 257.269 97.8887 258.994 101.582 264.814ZM154.221 264.103C149.097 259.497 141.207 259.913 136.597 265.029C131.987 270.149 132.404 278.032 137.524 282.639C149.621 293.515 158.757 306.914 164.451 321.608C170.159 336.336 172.445 352.399 170.837 368.562C169.229 384.726 163.823 400.014 155.332 413.319C146.855 426.597 135.258 437.933 121.247 446.216C115.314 449.719 113.347 457.361 116.852 463.289C120.357 469.217 128.006 471.179 133.938 467.68C151.3 457.415 165.724 443.287 176.323 426.684C186.906 410.105 193.638 391.083 195.639 371.001C197.637 350.919 194.793 330.955 187.692 312.631C180.577 294.273 169.222 277.586 154.221 264.1V264.103ZM180.759 489.054V489.044C173.782 488.859 167.036 490.55 161.141 493.771C155.191 497.018 150.088 501.866 146.475 507.948C142.879 514.004 141.083 520.824 141.083 527.661C141.083 534.498 142.879 541.315 146.475 547.374C150.088 553.46 155.191 558.304 161.141 561.552C166.976 564.739 173.647 566.426 180.547 566.282L180.759 566.268C190.982 565.661 200.081 561.129 206.621 554.194C213.155 547.267 217.137 537.917 217.137 527.661C217.137 517.405 213.155 508.052 206.621 501.128C200.081 494.193 190.982 489.661 180.759 489.054ZM224.785 484.055C214.015 472.635 199.04 465.174 182.226 464.178V464.195L181.883 464.178C170.303 463.772 159.062 466.55 149.228 471.917C139.35 477.312 130.916 485.293 124.994 495.267C119.054 505.271 116.086 516.476 116.086 527.661C116.086 538.846 119.054 550.051 124.994 560.055C130.913 570.033 139.35 578.01 149.228 583.405C158.878 588.675 169.88 591.446 181.232 591.165C181.561 591.171 181.89 591.165 182.226 591.144C199.04 590.148 214.015 582.687 224.785 571.267C235.563 559.837 242.137 544.465 242.137 527.658C242.137 510.85 235.566 495.478 224.785 484.052V484.055ZM310.811 461.377C280.194 464.849 254.244 465.191 232.958 462.4C210.395 459.441 192.822 452.899 180.242 442.771C174.876 438.46 174.023 430.62 178.338 425.259C182.652 419.898 190.499 419.046 195.864 423.356C204.839 430.583 218.279 435.37 236.177 437.715C255.355 440.231 279.321 439.855 308.075 436.595C314.924 435.84 321.089 440.775 321.844 447.619C322.6 454.462 317.657 460.622 310.811 461.377ZM347.737 415.013C354.586 414.312 359.569 408.196 358.867 401.352C358.165 394.508 352.045 389.53 345.195 390.231C309.881 393.925 281.682 393.777 260.6 389.785C241.845 386.235 229.426 379.808 223.338 370.505C219.565 364.738 211.825 363.124 206.057 366.895C200.286 370.666 198.671 378.399 202.445 384.162C212.386 399.356 230.241 409.394 256.014 414.275C279.452 418.713 310.029 418.958 347.737 415.013ZM362.621 354.834C333.387 368.871 306.198 376.013 281.061 376.268C255.181 376.53 231.692 369.559 210.6 355.361C204.886 351.51 203.375 343.753 207.232 338.043C211.087 332.334 218.849 330.827 224.564 334.679C241.422 346.025 260.19 351.597 280.866 351.389C302.283 351.174 325.954 344.84 351.88 332.394C358.082 329.432 365.515 332.052 368.48 338.248C371.444 344.444 368.822 351.872 362.621 354.834ZM365.968 280.844C355.399 297.923 340.277 311.081 322.814 319.28C305.359 327.472 285.586 330.706 265.717 327.935C245.777 325.154 227.619 316.643 213.098 304.009C198.57 291.368 187.635 274.56 182.135 255.196C180.275 248.57 184.143 241.69 190.777 239.831C197.408 237.973 204.295 241.837 206.155 248.466C210.278 262.986 218.524 275.63 229.503 285.182C240.485 294.739 254.16 301.167 269.131 303.254C284.173 305.351 299.11 302.922 312.265 296.746C325.413 290.573 336.805 280.656 344.776 267.773C348.388 261.926 356.06 260.114 361.912 263.724C367.765 267.334 369.578 275 365.965 280.847L365.968 280.844ZM453.962 505.929C461.529 506.204 468.335 509.428 473.277 514.48L473.301 514.504L473.277 514.527C478.31 519.67 481.406 526.705 481.406 534.455C481.406 542.204 478.31 549.286 473.277 554.429C468.244 559.569 461.284 562.82 453.552 562.991L453.21 563.001V562.991C447.901 563.252 442.761 562.055 438.279 559.663C433.803 557.274 429.962 553.685 427.246 549.156C424.553 544.67 423.21 539.581 423.21 534.451C423.21 529.322 424.557 524.233 427.246 519.747C429.962 515.221 433.803 511.628 438.279 509.24C442.758 506.848 447.901 505.65 453.21 505.912C453.461 505.925 453.71 505.925 453.958 505.925L453.962 505.929ZM491.123 497.089C481.819 487.595 468.987 481.546 454.697 481.056L454.385 481.036C444.557 480.553 434.975 482.804 426.568 487.293C418.154 491.785 410.942 498.511 405.869 506.969C400.769 515.47 398.22 524.981 398.22 534.455C398.22 543.929 400.769 553.44 405.869 561.941C410.942 570.398 418.154 577.125 426.568 581.617C434.975 586.105 444.561 588.357 454.385 587.873V587.863C468.809 587.454 481.775 581.375 491.146 571.797C500.594 562.145 506.402 548.958 506.402 534.455C506.402 519.952 500.591 506.714 491.146 497.065L491.123 497.089ZM409.022 374.242C409.643 367.398 404.593 361.349 397.744 360.729C390.894 360.108 384.841 365.154 384.22 371.998C381.265 404.341 366.187 432.904 343.708 453.379C321.22 473.863 291.348 486.232 258.827 486.189C251.951 486.189 246.378 491.758 246.378 498.629C246.378 505.499 251.951 511.068 258.827 511.068C297.821 511.122 333.599 496.324 360.502 471.82C387.416 447.307 405.476 413.064 409.022 374.245V374.242ZM454.952 392.086C452.209 420.545 441.891 447.122 425.722 469.421C409.552 491.728 387.497 509.81 361.295 521.28C354.986 524.028 347.64 521.146 344.89 514.842C342.14 508.539 345.024 501.198 351.333 498.451C373.328 488.822 391.875 473.595 405.51 454.788C419.151 435.974 427.85 413.621 430.15 389.745C430.798 382.901 436.875 377.879 443.721 378.526C450.571 379.174 455.597 385.246 454.949 392.086H454.952ZM552.417 364.916C517.758 379.74 480.328 379.553 447.525 367.146C414.699 354.73 386.503 330.086 370.343 296.018C367.405 289.794 370.071 282.367 376.299 279.431C382.528 276.496 389.961 279.16 392.899 285.383C406.178 313.379 429.344 333.628 456.315 343.83C483.313 354.043 514.121 354.194 542.653 341.992C548.989 339.298 556.312 342.247 559.008 348.578C561.704 354.908 558.753 362.225 552.417 364.919V364.916ZM603.407 347.108C601.198 340.59 594.114 337.094 587.59 339.301C581.067 341.509 577.568 348.588 579.777 355.106C583.722 366.707 589.954 377.241 597.975 386.152C605.989 395.055 615.81 402.362 626.947 407.512C638.02 412.634 649.946 415.379 661.979 415.724C674.022 416.07 686.086 414.02 697.417 409.548C703.834 407.015 706.983 399.765 704.448 393.351C701.913 386.94 694.658 383.793 688.238 386.326C679.965 389.59 671.259 391.09 662.661 390.845C654.049 390.597 645.447 388.604 637.392 384.877C629.398 381.18 622.32 375.909 616.525 369.468C610.737 363.033 606.241 355.448 603.404 347.105L603.407 347.108ZM569.446 379.734C566.374 373.591 558.897 371.102 552.749 374.175C546.602 377.244 544.111 384.716 547.183 390.858C559.297 414.976 578.864 433.324 601.933 444.062C625.043 454.818 651.685 458.002 677.897 451.768C684.612 450.178 688.762 443.452 687.174 436.742C685.582 430.033 678.85 425.883 672.135 427.473C651.547 432.368 630.623 429.872 612.479 421.424C594.295 412.96 578.911 398.578 569.443 379.734H569.446ZM541.707 392.74C541.838 414.748 550.896 434.649 565.441 449.038C579.962 463.4 599.963 472.233 622.008 472.139C628.884 472.112 634.481 477.661 634.505 484.532C634.531 491.402 628.978 496.991 622.105 497.018C593.174 497.142 566.925 485.548 547.864 466.697C528.831 447.87 516.975 421.766 516.807 392.841C516.781 385.97 522.334 380.378 529.207 380.351C536.079 380.324 541.68 385.873 541.703 392.744L541.707 392.74ZM497.179 392.147C497.341 385.276 491.898 379.576 485.022 379.415C478.146 379.254 472.441 384.692 472.28 391.563C471.296 428.885 484.653 463.497 507.534 489.852C530.446 516.241 562.882 534.357 600.016 538.652C606.866 539.433 613.05 534.518 613.832 527.675C614.615 520.831 609.696 514.651 602.847 513.869C572.119 510.317 545.299 495.351 526.376 473.558C507.423 451.732 496.36 423.061 497.176 392.147H497.179ZM561.059 556.593C564.105 550.424 561.57 542.956 555.395 539.91C549.221 536.867 541.744 539.4 538.698 545.569C528.589 566.06 511.832 581.452 492.11 590.131C472.371 598.814 449.688 600.773 427.74 594.392C421.135 592.48 414.226 596.281 412.312 602.88C410.398 609.479 414.202 616.383 420.806 618.295C448.596 626.377 477.263 623.918 502.165 612.964C527.081 602.004 548.26 582.533 561.059 556.596V556.593ZM606.943 577.245C610.018 571.103 607.524 563.632 601.376 560.562C595.229 557.489 587.755 559.981 584.679 566.121C575.621 584.153 562.406 599.458 546.431 611.028C530.496 622.569 511.835 630.339 491.831 633.335C485.008 634.331 480.288 640.665 481.285 647.482C482.282 654.299 488.621 659.016 495.444 658.019C519.51 654.416 541.942 645.083 561.076 631.228C580.167 617.403 596.007 599.008 606.943 577.249V577.245ZM456.406 656.838C463.091 655.141 467.137 648.347 465.438 641.668C463.739 634.989 456.94 630.946 450.255 632.644C427.33 638.501 408.343 652.413 395.793 670.741C383.256 689.048 377.162 711.743 379.999 735.184C380.808 742.027 387.016 746.919 393.866 746.11C400.715 745.302 405.61 739.099 404.801 732.255C402.706 714.957 407.182 698.244 416.395 684.787C425.594 671.351 439.541 661.146 456.406 656.838ZM461.435 795.849C455.395 799.137 453.166 806.692 456.456 812.727C459.747 818.762 467.308 820.99 473.348 817.702C485.405 811.153 498.731 807.943 512.026 808.054C525.302 808.164 538.557 811.603 550.51 818.356C559.891 823.657 567.935 830.702 574.318 838.958H603.844C602.783 836.949 601.661 834.973 600.473 833.037C591.344 818.155 578.495 805.561 562.812 796.698C547.129 787.834 529.697 783.322 512.221 783.178C494.769 783.03 477.273 787.25 461.435 795.852V795.849ZM569.594 771.818C551.957 758.654 531.154 751.854 510.277 751.468C489.326 751.082 468.255 757.107 450.164 769.597C432.121 782.057 419.05 799.613 412 819.346C409.733 825.69 408.092 832.259 407.111 838.955H381.913C383.035 829.38 385.244 819.987 388.47 810.956C397.217 786.479 413.494 764.656 436.006 749.109C458.474 733.593 484.643 726.112 510.667 726.589C536.764 727.068 562.674 735.502 584.532 751.817C590.058 755.94 591.196 763.76 587.07 769.282C582.943 774.804 575.12 775.941 569.591 771.818H569.594ZM633.091 810.063C630.61 788.945 622.938 769.178 611.156 752.313C599.362 735.428 583.434 721.402 564.46 711.794C545.464 702.175 524.698 697.626 504.062 698.109C483.481 698.589 462.993 704.094 444.487 714.578C438.5 717.973 430.892 715.877 427.498 709.895C424.1 703.913 426.199 696.311 432.185 692.92C454.304 680.389 478.858 673.807 503.575 673.23C528.24 672.656 553.035 678.078 575.691 689.551C598.371 701.035 617.428 717.829 631.567 738.072C645.722 758.335 654.928 782.01 657.893 807.235C658.675 814.079 653.756 820.258 646.907 821.04C640.058 821.822 633.873 816.907 633.091 810.063ZM816.357 813.217C816.034 806.346 810.196 801.039 803.323 801.364C796.447 801.686 791.135 807.52 791.461 814.388C791.904 823.308 794.429 831.648 798.549 838.958H832.701C830.29 837.677 828.071 836.086 826.094 834.235C820.446 828.951 816.776 821.547 816.36 813.217H816.357ZM837.398 721.261C840.185 748.781 849.455 774.838 864.007 797.543C874.012 813.156 886.488 827.166 901.05 838.958H864.668C856.613 830.283 849.371 820.926 843.015 811.006C826.392 785.063 815.793 755.242 812.6 723.7C812.16 719.238 814.134 715.098 817.458 712.569C815.078 713.76 812.301 714.203 809.484 713.652C773.636 706.614 741.988 688.568 718.049 663.233C694.147 637.934 677.954 605.329 672.978 569.13C672.062 562.313 676.849 556.046 683.668 555.13C690.491 554.215 696.763 558.999 697.679 565.812C701.923 596.68 715.766 624.522 736.207 646.157C756.613 667.755 783.631 683.147 814.262 689.162C821.03 690.481 825.446 697.036 824.123 703.796C823.512 706.923 821.779 709.546 819.426 711.334C820.748 710.673 822.212 710.241 823.77 710.086C830.619 709.412 836.717 714.414 837.392 721.258L837.398 721.261ZM889.325 708.657C890.484 701.867 885.917 695.426 879.122 694.268C872.326 693.111 865.88 697.673 864.718 704.464C860.716 727.645 864.695 750.747 874.992 770.58C885.306 790.441 901.946 807.017 923.256 817.112C929.484 820.047 936.918 817.383 939.856 811.16C942.794 804.937 940.128 797.509 933.9 794.574C917.673 786.888 905.005 774.274 897.158 759.167C889.299 744.03 886.267 726.384 889.325 708.66V708.657ZM739.376 732.114H739.255C732.268 731.842 725.51 733.479 719.624 736.673C713.742 739.867 708.702 744.627 705.146 750.602C701.594 756.567 699.818 763.284 699.818 770.013C699.818 776.743 701.594 783.459 705.146 789.424C708.702 795.403 713.745 800.163 719.624 803.353C725.51 806.551 732.272 808.188 739.255 807.919H739.306C749.532 807.591 758.725 803.226 765.363 796.376C771.954 789.575 776 780.272 776 770.013C776 759.754 771.954 750.451 765.363 743.651C758.739 736.817 749.576 732.456 739.376 732.111V732.114ZM783.235 726.287C794.244 737.643 801 753.078 801 770.013C801 786.948 794.244 802.387 783.235 813.74C772.286 825.036 757.09 832.242 740.138 832.795C728.659 833.242 717.495 830.517 707.715 825.207C697.928 819.893 689.557 811.999 683.668 802.105C677.773 792.202 674.825 781.101 674.825 770.01C674.825 758.919 677.773 747.821 683.668 737.918C689.557 728.024 697.928 720.13 707.715 714.816C717.495 709.506 728.659 706.785 740.138 707.228L740.326 707.238C757.204 707.838 772.327 715.031 783.235 726.283V726.287ZM584.045 624.753C606.805 633.845 624.889 646.787 638.292 663.568C651.712 680.373 660.257 700.797 663.933 724.844C664.957 731.661 660.257 738.015 653.437 739.038C646.615 740.061 640.256 735.365 639.232 728.551C636.227 708.895 629.405 692.406 618.765 679.081C608.108 665.739 593.442 655.336 574.768 647.874C568.379 645.315 565.273 638.065 567.835 631.677C570.396 625.293 577.652 622.19 584.045 624.75V624.753ZM661.408 491.916C664.427 485.719 661.848 478.251 655.647 475.232C649.445 472.216 641.968 474.793 638.95 480.989C622.998 513.672 618.664 548.032 625.943 584.062C633.051 619.251 651.279 655.752 680.623 693.56C684.83 699.002 692.653 700.008 698.102 695.805C703.548 691.601 704.555 683.781 700.348 678.34C673.347 643.547 656.681 610.495 650.355 579.181C644.201 548.713 647.884 519.623 661.408 491.912V491.916ZM744.647 530.476C744.647 523.605 739.074 518.036 732.198 518.036C725.322 518.036 719.748 523.605 719.748 530.476C719.809 570.985 734.31 608.569 758.749 637.837C783.181 667.094 817.576 688.075 857.432 695.389C864.201 696.627 870.691 692.151 871.934 685.388C873.172 678.625 868.694 672.14 861.925 670.899C828.017 664.675 798.727 646.791 777.887 621.834C757.057 596.888 744.698 564.903 744.647 530.472V530.476ZM788.557 530.446C787.506 523.656 781.143 519.006 774.351 520.056C767.556 521.106 762.902 527.463 763.953 534.25C770.614 576.484 788.14 608.606 816.525 630.607C844.446 652.249 882.5 663.609 930.68 664.675C937.556 664.81 943.237 659.348 943.374 652.481C943.509 645.61 938.043 639.93 931.17 639.796C888.53 638.85 855.395 629.218 831.761 610.898C808.591 592.939 794.191 566.121 788.563 530.446H788.557ZM670.645 510.327C664.685 513.776 662.654 521.398 666.105 527.353C669.557 533.307 677.185 535.337 683.145 531.888C720.074 510.448 749.838 500.568 772.441 502.252C792.253 503.728 806.758 515.064 815.947 536.256C816.28 537.39 816.683 538.712 817.153 540.222C826.638 570.556 841.212 591.54 860.877 603.175C880.875 615.007 905.227 616.795 933.93 608.539C934.82 608.284 935.998 607.925 937.448 607.472C944.026 605.426 947.699 598.434 945.651 591.862C943.603 585.29 936.606 581.62 930.028 583.667C929.313 583.891 928.34 584.18 927.094 584.535C905.227 590.826 887.385 589.883 873.572 581.711C859.42 573.337 848.555 557.036 840.981 532.807C840.668 531.808 840.282 530.516 839.826 528.933L839.789 528.943C839.651 528.463 839.487 527.99 839.289 527.517C826.167 496.337 804.505 479.623 774.297 477.372C746.591 475.309 712.043 486.293 670.648 510.327H670.645ZM915.044 489.061C920.849 489.487 926.006 492.127 929.713 496.112C933.399 500.078 935.642 505.419 935.642 511.276C935.642 517.134 933.403 522.471 929.713 526.44C926.006 530.429 920.849 533.066 915.044 533.492C914.795 533.509 914.547 533.535 914.302 533.569C910.102 533.985 905.969 533.213 902.322 531.452C898.592 529.651 895.362 526.819 893.072 523.176C890.816 519.583 889.688 515.45 889.688 511.28C889.688 507.11 890.816 502.976 893.072 499.383C895.362 495.737 898.595 492.905 902.322 491.107C906.042 489.312 910.269 488.544 914.557 489.017L915.047 489.061V489.067L915.044 489.061ZM947.971 479.137C940.138 470.71 929.229 465.127 916.917 464.191C908.027 463.279 899.243 464.913 891.481 468.663C883.618 472.461 876.802 478.426 871.977 486.112C867.119 493.851 864.688 502.584 864.688 511.276C864.688 519.969 867.119 528.705 871.977 536.441C876.802 544.127 883.618 550.095 891.481 553.889C899.247 557.64 908.027 559.274 916.917 558.361C929.226 557.422 940.134 551.839 947.971 543.415C955.851 534.941 960.639 523.622 960.639 511.276C960.639 498.93 955.851 487.615 947.971 479.137ZM916.575 437.963C899.008 439.614 884.101 443.462 871.853 449.511C860.189 455.271 850.956 463.074 844.154 472.921C840.245 478.577 832.483 479.999 826.822 476.091C821.161 472.186 819.738 464.43 823.649 458.773C832.913 445.367 845.302 434.833 860.824 427.168C875.761 419.79 893.596 415.127 914.332 413.181C921.181 412.561 927.235 417.606 927.856 424.45C928.477 431.294 923.427 437.343 916.578 437.963H916.575ZM926.436 406.247C933.094 407.944 939.873 403.925 941.571 397.269C943.27 390.617 939.248 383.843 932.587 382.146C904.182 374.852 876.09 376.285 848.31 386.45C821.198 396.37 794.53 414.617 768.304 441.194C763.48 446.099 763.543 453.983 768.452 458.803C773.361 463.624 781.251 463.561 786.076 458.656C809.632 434.786 833.242 418.522 856.902 409.863C879.898 401.449 903.074 400.245 926.436 406.244V406.247ZM850.872 365.231C785.172 378.395 741.518 412.353 719.913 467.107C717.405 473.518 710.169 476.685 703.753 474.179C697.337 471.673 694.167 464.443 696.675 458.032C721.632 394.783 771.407 355.683 845.99 340.741C852.759 339.395 859.336 343.784 860.686 350.547C862.036 357.31 857.641 363.882 850.872 365.231ZM794.953 339.473C781.55 342.005 770.46 345.874 761.693 351.074C753.572 355.891 747.508 361.839 743.506 368.918C740.135 374.899 732.55 377.016 726.564 373.651C720.577 370.283 718.459 362.705 721.826 356.723C728.065 345.692 737.123 336.655 748.999 329.609C760.226 322.947 774.015 318.072 790.363 314.982C797.132 313.718 803.645 318.173 804.911 324.933C806.177 331.696 801.718 338.204 794.953 339.469V339.473ZM683.188 270.796C686.425 264.734 684.128 257.199 678.061 253.965C671.994 250.731 664.453 253.026 661.22 259.088C656.755 267.451 653.787 276.254 652.323 285.497C650.859 294.723 650.872 304.254 652.353 314.093C653.377 320.91 659.74 325.604 666.559 324.581C673.381 323.557 678.078 317.2 677.054 310.386C675.933 302.939 675.889 295.94 676.927 289.399C677.961 282.877 680.049 276.674 683.188 270.793V270.796ZM836.683 312.527C816.256 299.852 797.857 293.985 781.489 294.927C765.837 295.826 751.493 303.197 738.463 317.036C738.305 317.203 738.141 317.368 737.976 317.525C716.209 341.143 695.067 355.499 674.553 360.578C652.296 366.09 631.412 361.021 611.898 345.37C611.17 344.783 610.522 344.132 609.961 343.431C595.695 327.862 590.004 310.386 592.885 291.005C595.594 272.769 606.117 253.354 624.445 232.773C629.028 227.626 636.919 227.17 642.069 231.749C647.219 236.329 647.679 244.212 643.093 249.359C628.065 266.237 619.56 281.323 617.586 294.619C615.87 306.159 619.366 316.75 628.068 326.395C640.985 336.547 654.495 339.879 668.597 336.386C684.3 332.498 701.322 320.602 719.657 300.704C719.859 300.453 720.074 300.208 720.299 299.966C737.869 281.31 757.809 271.34 780.119 270.055C801.715 268.813 824.962 275.916 849.861 291.361C855.713 294.998 857.503 302.687 853.863 308.531C850.224 314.379 842.529 316.167 836.68 312.53L836.683 312.527ZM900.805 307.947C903.91 307.156 907.053 307.35 909.84 308.39C912.626 309.427 915.128 311.332 916.948 313.952C918.734 316.522 919.627 319.528 919.627 322.544C919.627 325.56 918.734 328.566 916.948 331.136C915.124 333.759 912.626 335.661 909.84 336.698C907.053 337.735 903.91 337.929 900.805 337.138C900.435 337.044 900.063 336.97 899.693 336.909C896.269 336.265 893.314 334.467 891.216 331.971C889.067 329.415 887.794 326.114 887.794 322.544C887.794 318.975 889.07 315.67 891.216 313.117C893.351 310.574 896.373 308.759 899.878 308.145C900.19 308.092 900.499 308.024 900.805 307.947ZM918.529 285.071C911.126 282.313 902.957 281.716 895.026 283.658C885.793 285.413 877.799 290.304 872.078 297.115C866.253 304.046 862.794 312.953 862.794 322.544C862.794 332.136 866.253 341.043 872.078 347.974C877.802 354.784 885.793 359.675 895.026 361.43C902.957 363.372 911.126 362.775 918.529 360.017C926.05 357.216 932.708 352.207 937.452 345.38C942.233 338.503 944.623 330.519 944.623 322.544C944.623 314.57 942.233 306.585 937.452 299.708C932.708 292.881 926.05 287.872 918.529 285.071ZM800.956 235.597C771.786 251.432 739.02 255.196 708.712 248.272C678.411 241.347 650.543 223.735 631.164 196.816C627.148 191.24 628.414 183.463 633.994 179.451C639.574 175.435 647.357 176.703 651.376 182.279C667.072 204.085 689.678 218.36 714.279 223.98C738.872 229.599 765.434 226.563 789.044 213.744C795.084 210.456 802.645 212.684 805.935 218.719C809.225 224.755 806.996 232.31 800.956 235.597ZM569.396 0.253355H596.652C589.047 15.2897 585.425 31.2083 585.78 48.0059C586.207 68.1113 592.307 89.6794 604.079 112.707C619.238 142.273 621.655 175.143 613.168 204.881C604.673 234.638 585.25 261.305 556.741 278.438C550.836 281.968 543.187 280.045 539.655 274.148C536.123 268.246 538.047 260.604 543.953 257.075C566.764 243.364 582.322 221.963 589.148 198.054C595.981 174.12 594.063 147.718 581.916 124.026C568.402 97.5901 561.392 72.4122 560.885 48.4957C560.525 31.6947 563.366 15.6151 569.399 0.25671L569.396 0.253355ZM673.787 2.32999C674.398 1.68251 674.925 0.984705 675.369 0.253355H643.496C631.479 17.6481 624.17 37.4952 621.793 57.9126C618.707 84.4191 623.969 111.925 638.053 136.301L638.074 136.338L638.053 136.352C652.135 160.718 673.371 179.032 697.934 189.636C722.481 200.234 750.365 203.133 777.752 196.685C784.467 195.121 788.641 188.418 787.076 181.709C785.511 174.999 778.803 170.829 772.088 172.392C750.033 177.589 727.574 175.251 707.795 166.713C688.033 158.181 670.95 143.454 659.632 123.865L659.612 123.875C648.314 104.303 644.104 82.1479 646.595 60.7407C649.079 39.3773 658.276 18.7988 673.787 2.32999ZM744.016 6.63422L744.402 6.64429C763.651 7.45951 780.851 15.7627 793.224 28.662C805.64 41.6049 813.241 59.1271 813.241 78.3267C813.241 97.5263 805.64 115.049 793.224 127.991C780.851 140.891 763.651 149.191 744.402 150.002H744.305C731.224 150.452 718.539 147.312 707.453 141.246C696.313 135.151 686.801 126.143 680.123 114.884C673.428 103.592 670.077 90.9475 670.077 78.3267C670.077 65.7059 673.425 53.0582 680.123 41.7659C686.801 30.5071 696.313 21.4994 707.453 15.4071C718.459 9.38517 731.039 6.24842 744.016 6.63758V6.63422ZM719.362 37.257C726.557 33.3218 734.79 31.2653 743.294 31.5136L743.425 31.5203C755.942 32.0503 767.159 37.4851 775.258 45.9259C783.312 54.323 788.244 65.7495 788.244 78.32C788.244 90.8905 783.312 102.317 775.258 110.714C767.159 119.158 755.942 124.59 743.425 125.12C734.877 125.395 726.597 123.342 719.365 119.383C712.157 115.441 705.976 109.567 701.604 102.193C697.253 94.8526 695.074 86.593 695.074 78.3166C695.074 70.0403 697.249 61.7807 701.604 54.4404C705.976 47.0665 712.16 41.1922 719.365 37.2503L719.362 37.257ZM854.414 96.0301C844.667 109.912 838.728 125.794 836.774 142.162C834.816 158.551 836.854 175.405 843.062 191.21C849.27 207.014 859.235 220.735 871.796 231.387C884.373 242.055 899.549 249.657 916.162 253.213C922.904 254.639 927.208 261.258 925.781 267.995C924.351 274.731 917.73 279.032 910.988 277.606C890.265 273.171 871.349 263.701 855.687 250.412C840.004 237.11 827.568 219.991 819.825 200.281C812.083 180.575 809.541 159.601 811.972 139.23C814.406 118.843 821.826 99.0327 834.007 81.6815C837.969 76.0521 845.752 74.6968 851.389 78.6588C857.023 82.6175 858.379 90.394 854.417 96.0267L854.414 96.0301Z" fill="#2C364F"/>
</g>
<defs>
<clipPath id="clip0_0_1">
<rect width="1343" height="839" fill="white"/>
</clipPath>
</defs>
</svg>
