<?xml version="1.0" encoding="UTF-8"?>
<svg xmlns="http://www.w3.org/2000/svg" viewBox="0 0 345 122">
  <defs>
    <style>
      .cls-1 {
        fill: #3a3e45;
      }

      .cls-1, .cls-2, .cls-3, .cls-4, .cls-5, .cls-6, .cls-7, .cls-8, .cls-9, .cls-10, .cls-11, .cls-12, .cls-13, .cls-14 {
        stroke-width: 0px;
      }

      .cls-15 {
        isolation: isolate;
      }

      .cls-3 {
        fill: #39b296;
      }

      .cls-4 {
        fill: #3199c4;
      }

      .cls-4, .cls-14 {
        opacity: .2;
      }

      .cls-5 {
        fill: #f6e1c4;
      }

      .cls-6 {
        fill: #93d8f5;
      }

      .cls-7, .cls-16 {
        fill: #fff;
      }

      .cls-8 {
        fill: #efc585;
      }

      .cls-17, .cls-13, .cls-14 {
        mix-blend-mode: multiply;
      }

      .cls-17, .cls-18 {
        opacity: .5;
      }

      .cls-9 {
        fill: #c26826;
      }

      .cls-19 {
        fill: none;
        stroke: #2d4661;
        stroke-linecap: round;
        stroke-miterlimit: 10;
        stroke-width: 1.5px;
      }

      .cls-10 {
        fill: #6b4724;
      }

      .cls-16 {
        font-family: Fredoka-SemiBold, Fredoka;
        font-size: 34.27px;
        font-variation-settings: 'wght' 600, 'wdth' 100;
        font-weight: 600;
      }

      .cls-11 {
        fill: #0f4c00;
      }

      .cls-12 {
        fill: #bd6a1e;
      }

      .cls-13 {
        fill: #d37f3f;
        opacity: .3;
      }

      .cls-14 {
        fill: #2d4661;
      }

      .cls-18 {
        mix-blend-mode: screen;
      }
    </style>
  </defs>
  <g class="cls-15">
    <g id="BACKGROUND">
      <rect class="cls-6" x="-22.72" y="-49.55" width="377.02" height="251.34"/>
    </g>
    <g id="OBJECTS">
      <path class="cls-4" d="M294.3-26.8c45.64,9,22.79,62.68,12.85,92.19-9.93,29.5,47.95,71.76,24.85,105.21-23.1,33.45-68.44,1.05-129.51-8.3-61.07-9.35-117.44,33.56-152.34,18.05-34.91-15.52-4.92-70.87-34.6-99.66C-14.14,51.89-3.89,10.18,27.68-8.7,59.24-27.59,120.97,4.95,168.18,1.21c47.21-3.75,89.08-35.31,126.12-28.01Z"/>
      <path class="cls-11" d="M384.68,14.49c-4.72-.31-9.25-.99-13.88-2.23-11.86-3.19-23.45-8.16-36.49-4.5-3.52.99-8.45-.28-12.72-.77-6.48-.76-12.26-4.77-19.14-3.77-3.03.44-6.3.66-9.17-.91-6.83-3.75-15.25-1.26-21.91-5.74-1.27-.85-3.31-.74-4.24.75-1.21,1.92,1.06,1.97,1.9,2.84.4.41.64,1.45.39,1.91-.51.95-13.6,1.12-14.6.36-3.33-2.49-6.99-4.14-11.01-5.36-3.53-1.07-6.18,1.76-9.16,1.32-7.21-1.07-14.58.29-21.15-5.86-5.86-5.48-15.11-3.46-22.83-4.07-2.55-.2-6.01,2.63-9.5,2.92-1.89.16-3.77,1.11-5.63,1.03-5.24-.21-8.28,5.48-13.62,4.82-1.41-.17-2.47.03-3.05,1.9-.34,1.08-2.57,2.63-3.41,2.35-6.56-2.19-7.19-.73-2.98,4.33.15.19-.05.68-.09,1.03-.22-.11-.52-.16-.64-.33-.95-1.32-2.4-2.57-2.68-4.02-.41-2.15-.68-3.99-3.17-4.48-4.06-.8-5.35,2.27-7.07,4.92-1.18,1.83.07,2.65,1.06,3.7.18.19.3.42.46.64-.31.03-.63.12-.92.07-3.15-.48-6.29-1.36-9.44-1.35-1.72,0-5.94-4.05-5.28,2.22.02.18-1.08.48-1.67.71-4.35,1.65-9.13-1.33-13.39,1.24l.03-.03c-1.17.86-2.32,1.76-3.52,2.59-.74.51-2.09,1.22-2.27.08-.57-3.64-3.3-3.62-5.6-3.19-2.51.47-1.14,3.03-1.45,4.67-.38,1.99-2.49.63-3.4,1.82-.46.59-.56-.04-.46-.59.59-3.52-1.56-4.67-4.48-5.68-5.82-2-12.03-2.59-17.64-5.48-3.44-1.77-7.66-1.73-11.35-.64-5.33,1.57-11.11,1.75-15.98,4.75-1.87,1.15-7.3-.92-4.63,4.77.15.32-.62,1.05-.92,1.61-3.18,6.14-9.52,8.29-14.81,11.77-4.43,2.91-1.94,6.69-.51,9.62,1.22,2.5,4.43,3.63,7.06,1.65,4.18-3.15,5.13-.62,5.84,2.81.15.7.09,1.46.13,2.19-.58-.56-1.45-1.01-1.68-1.68-1.15-3.36-2.86-2.54-4.95-.93-2.13,1.64-1.3,3.9-.85,5.58.84,3.13-.85,4.01-3.12,4.52-2.72.61-4.89,1.66-6.28,4.3-.94,1.77-3.25,2.35-4.82,1.87-1.53-.47.67-1.53.62-2.58-.05-1.3-.52-2.08-1.4-3.04-2.48-2.7-5.4-5.59-5.77-9.19-.31-3.07-2.43-6.53-5.58-6.34-2.59.16-5.29,1.24-5.68,3.42-.55,3.03.27,6.33,3.14,8.54,2.16,1.67,2.17,1.81,1.23,2.66-3,2.75-1.79,6.92-3.41,10.21-.61,1.23,1.33,1.41,2.59.93,3.52-1.37,7.13-2.28,10.95-2.1.36.01.72,0,1.08,0-.1.2-.15.54-.3.6-2.97,1.16-5.88,2.55-8.96,3.31-1.69.41-3.75.04-4.29,2.09-.54,2.09,1.47,2.58,2.88,3.41,3.57,2.11,4.1,5.22,2.79,8.95-1.1,3.14-3.41,1.56-5.31,1.43-2.56-.18-5.11-.74-7.66-.69-2.59.04-5.49.68-5.11,4.11.37,3.39-.38,6.4-1.05,9.64-.53,2.59-2.34,7.09,2.51,7.92,4.62.79,5.59,1.87,3.1,5.86-.96,1.54-2.06,2.95-3.75,3.93-3.12,1.8-5.59,4.1-5.24,8.27.14,1.65-.43,3.59-2,4.29-6.25,2.74-9.88,7.94-12.78,13.64-2.35,4.61-6.7,8.66-3.63,15.01,1.7,3.51.77,7.61-1.21,11.36-2.17,4.11-.23,11.21,3.38,14.37.74.65,1.42,1.48,1.85,2.37,3.16,6.44,6.91,12.35,13.28,16.18,1.8,1.08,3.73,3.29,5.59,2.36,7.35-3.69,16.07.51,23.31-4.66,2.54-1.81,7.33-2.34,9.58,1.57,1.55,2.69,3.2,3.37,5.96,2.95,4.61-.72,6.51,2.25,5.62,6.8-.73,3.69-3.17,7.93-1.11,11.26,2.4,3.87,5.18,7.66,6.98,11.76,3.17,7.24,5.5,14.89,1.5,22.74-2.53,4.95-3.04,10.14-.61,15.06,2.53,5.14,4.42,10.26,5.11,16.02.62,5.2.59,10.81,4.94,14.95,2.53,2.42,3.2,5.96,4.32,9.11,1,2.81-1.19,6.36,2.16,8.84,3.48,2.56,6.24-.85,9.4-.77,14.22.37,21.48-8.62,27.13-20,1.11-2.25-.07-5.63,2.84-6.8,5.07-2.05,6.19-6.09,4.87-10.52-1.94-6.47,1.62-8.87,6.53-11.07,6.8-3.04,11.24-18.13,7.3-24.17-3.12-4.78-2.23-10.07-1.35-15.09,1.24-7.06,6.53-11.79,11.57-16.14,9.85-8.49,16.28-18.83,19.07-31.47.45-2,.4-4.25-2.46-3.93-2.69.3-5.32,1.23-7.93,2.04-8.62,2.66-8.62,2.7-11.53-5.55,0,0-.02-.02-.02-.02,0-.01,0-.02,0-.03-5.85-4.48-10.87-9.69-14.26-16.31-.33-.65-.83-1.34-.83-2.01-.06-9.02-7.55-14.76-10.02-22.71-.31-.97-1.21-1.76-1.83-2.63,1.35.48,3.56.61,3.93,1.5,2.8,6.73,9.82,10.99,10.81,18.77.34,2.65,3.18,3.61,4.59,5.64,3.77,5.44,5.9,11.49,7.61,17.76,0,0,.01.01.02.02,0,.01,0,.02.01.03,1.27,1.18,2.09,3.47,4.33,2.62,3.97-1.52,7.73-3.63,11.75-4.98,4.62-1.55,7.46-5.9,11.79-7.4,6.08-2.1,13.98-10.31,14.37-16.41.04-.71-.46-1.57-.94-2.18-1.54-1.94-3.23-3.64-5.8-4.33-1.61-.43-2.43-2.19-2.05-3.47.31-1.05,1.43.53,2.34.59,2.63.18,5.25.8,7.87.76,8.85-.15,17.26.02,22.01,9.66,1.05,2.13,3.81,4.66,6.94,3.91,1.97-.46,1.93.28,2.09,1.54,1.57,12.39,7.23,23.26,12.85,34.11,1.67,3.23,3.9,4.33,5.92-.04.63-1.37,1.73-2.52,2.61-3.76.14-.14.28-.27.41-.4,1.74-4.2,1.37-8.53.75-12.87-.18-1.3-.63-2.92.96-3.3,4.16-1,5.47-4.76,7.77-7.54,2.55-3.07,5.2-6.71,8.09-8.64,2.72-1.82,8.24-5.17,12.07,1.18,2.03,3.36,5.57,5.79,5.72,10.24.05,1.39-.57,3.1,1.37,3.77,1.79.61,3.56.89,5-.92.44-.55,1.32-1.49,1.83-.04,1.06,2.99,1.73,6.14,2.99,9.04,2.59,5.93-.88,12.9,4.17,18.66,3.63,4.14,3.93,10.6,7.98,14.85h0c1.3.67,2.58,1.38,3.9,1.99,1.33.62,2.9.23,2.49-1.24-1.39-5.02-.92-10.6-6.22-14.36-4.1-2.91-7.15-7.42-6.56-13.06.21-1.98-2.74-7.76,4.07-3.67,3.11,1.87,6.24,4.37,7.17,6.86,2.2,5.95,4.23,2.41,6.56.8.74-.51,1.23-1.43,2-1.84,4.55-2.4,5.75-5.86,4.56-10.91-1.17-4.94-3.82-8.73-7.46-11.85-3.41-2.92-4.23-5.43-.92-9.1,1.67-1.86,3.26-2.32,4.86-1.06,1.65,1.3,1.07,2.85-.74,4.13-1.32.92-1.74,2.58-.18,3.73,1.97,1.46,4.14,2.22,5.98-.3.97-1.32,2.41-2.96.35-4.19-2.79-1.66-1.15-2.39.35-3.29,6.46-3.9,15.38-4.15,18.62-12.87,1.61-4.33,3.7-8.4,3.05-13.31-.85-6.36-5.02-10.72-8.81-15.24-1.89-2.25-1.64-3.4.77-4.56.88-.42,1.61-.99,1.51-2.07-.1-1.1-.79-1.98-1.82-2.19-1.6-.33-3.62-1.05-4.81-.41-2.85,1.55-3.29-2.64-5.53-1.84.79-.7,1.6-1.37,2.35-2.1.24-.24.34-.64.47-.99.3-.84.8-1.6,1.75-1.44.97.15.66,1.15.78,1.82.56,3.14,2.19,3.31,4.42,1.55,2.73-2.14,5.71-1.11,6.55,2.23.2.82.8,2.14,1.3,2.19,3.68.34,4.46,3.48,5.26,5.91,1.72,5.24,4.76,3.28,7.69,1.85,3.81-1.86.53-4.02-.09-5.88-.4-1.2-1.56-2.32-2.66-3.08-4.23-2.96-4.41-6.71-2.68-11.1.89-2.25,1.67-3.9,4.4-2.04,1.02.7,2.12.39,2.91-.64,3.91-5.15,4.63-16.87,1.44-22.36-.4-.69-1.4-1.34-.61-2.37.59.52,1.35.93,1.77,1.57,2.38,3.69,4.7,7.42,6.99,11.17.75,1.24,1.6,2.46,3.19,2.01.97-.27,2.28-.97,2.55-1.77.49-1.46-1.16-2.03-2.04-2.91-.95-.94-3.31-1.84-1.68-3.38,1.87-1.76.51-2.58-.35-3.57-1.18-1.38-2.69-2.47-3.86-3.85-3.83-4.5-9.45-6.58-13.05-8.03-4.46-1.79-9.4-.22-13.48-2.9-.47-.3-1.76-.57-1.1-1.07,2.7-2.05,2.14-5.51,3.74-7.93,1.44-2.18,14.59-3.22,17.6-1.65,2.54,1.33,5.28.61,7.69-.12,1.93-.58-.39-2.41.02-3.53.42-1.15-.58-2.96.95-3.35,1.34-.34,2.69.37,3.92,1.46,1.82,1.6,4.08,4.05,5.8-.29.29-.72.86-.96,1.53-.42.68.55.65,1.16.28,1.95-1.19,2.46-3.22,4.95-3.24,7.44-.04,4.21,1.72,8.05,5.39,10.87,3.17,2.44,6.84,4.28,9.37,7.57.82,1.06,1.72,2.77,3.52,1.93,1.73-.8,1.95-2.56,1.78-4.28-.42-4.21.67-8.37-2.25-12.55-1.78-2.54-2.56-5.29-6.12-5.5-.97-.06-1.21-.69-1.38-1.42-.19-.82.08-1.69.95-1.64,2.53.14,4.94-1.81,7.59-.21,1.97,1.19,3.5.55,4.25-1.72.8-2.46,3.12-3.52,5-4.76,1.11-.73,3.58.77,3.94-1.69.34-2.34-1.86-2.84-3.4-3.75-.58-.34-1.44-1.08-1.37-1.48.21-1.05,1.34-.78,2.08-.68,3.43.47,6.55,2.29,10.12,2.25,1.49-.02,2.06-.25,2.62-1.89,1.85-5.42-1.9-5.88-5.35-6.12ZM89,17.51c.9-.08,1.39.01,1.41.76.02.67-.24,1.06-.95.76-.53-.23-1.01-.57-1.52-.86.43-.27.86-.53,1.05-.66ZM83.11,17.57c.74.23,2.05.17,1.78,1.51-.12.57.33,1.55-.75,1.74-1.06-.4-1.67-1.11-1.78-2.21-.05-.55-.04-1.28.75-1.04ZM37.8,46.9c.18-.78.41-1.04,1.4-1.18,3.01-.41,6.49-.95,7.85-3.87,1.23-2.64,1.38-5.7,4.12-7.62.85-.59.15-1.62-.67-2.26-3.8-3.02-1.99-5.27,1.12-7.17,2.01-1.23,4.27-2.03,5.03-4.69.37-1.29,1.82-1.38,3.01-1.39.33,0,.66.44,1.27.88-.9.74-1.52,1.39-2.27,1.85-5.84,3.64-5.96,8.73-.24,12.29.82.51,1.4.97,1.24,2.15-.14,1.1-.58,1.36-1.59,1.74-2.59.97-3.26,3.23-3.09,5.8.18,2.72-.67,4.04-3.45,2.46-.95-.54-1.72-.39-2.57.04-3.25,1.62-6.68,2.15-10.29,1.71-.63-.07-1.07.14-.87-.75ZM92.36,114.28c-.09.53-1.04,1.35-1.51,1.3-8.53-.9-17.63,2.09-25.45-3.91-3.09-2.37-8.34.35-8.75,4.27-.12,1.19-.79,2.8-1.78,2.01-2.5-2-5.98-1.5-8.34-4.21-2.13-2.44-5.89-2.53-9.11-3.19-2.03-.41-4.92-.3-2.9-4.15,1.08-2.06,1.22-5.09-.17-7.09-1.38-1.99-3.72-1.42-6.17-.83-5.02,1.23-10.3-.28-15.48,1.04-2.54.65-5.1,1.37-7.09,2.74-2.99,2.05-5.84.6-8.74.71-.27.01-.81-.41-.79-.46.38-.96,1.3-.97,2.09-.92,4.78.35,8.44-2.25,9.67-6.16,1.52-4.85,6.32-6.56,8.09-9.69,2.54-4.48,4.59-4.38,8.35-3.75.92.15,2.16-.91,3.11-1.62,2.72-2,3.88-1.62,5.24,1.81,1.29,3.25,4.98,4.85,8.14,6.39,2.01.97,4.68,1.81,4.51,4.11-.2,2.69-3.12,2.14-5.16,2.34-1.06.1-2.38-.04-2.71,1.35-.35,1.44.94,1.83,1.85,2.37,1.76,1.06,3.81,3.42,5.56,1.84,2.28-2.05,3.66-5.14,5.3-7.84.23-.38-.85-1.37.78-1.02,1.99.43,2.03-1.33,1.38-2.22-1.39-1.92-2.05-4.86-4.65-5.37-3.46-.68-5.17-3.31-7.44-5.39-.68-.62-1.21-1.32-.65-2.12.56-.8,1.42.01,1.6.32,2.15,3.65,6.52,4.04,9.5,6.57,3.89,3.29,4.07,8.2,6.5,12.07.77,1.23,1,3.02,2.04,3.79,1.56,1.15,4.22,3.72,5.27,1.78.96-1.79,3.3-4.38,1.47-7.28-.62-.98-2.45-2.52-.65-3.35,1.38-.64,3.81-3.84,5.21,1.26,1.37,4.99,4.11,10.9,10.77,10.32,4.01-.35,7.79,3.02,11.9.05,2.15-1.56,1.55.81,1.61,1.89.84,3.79-1.82,6.77-2.41,10.22ZM107.33,85.34c-.79,1.87-3.25,1.06-5,1.26-2.27.25-4.53-.24-6.37-1.32-5.38-3.14-10.81.48-16.18-.43-2.46-.42-3.33-1.67-2.99-3.95.45-3.04,2.3-5.59,4.16-7.68,1.32-1.47,3.63-.28,4.25,2.03.59,2.23,1.94,3.72,4.13,2.64,5.31-2.63,9.5-.58,13.58,2.61.5.4,1.02.8,1.41,1.29.99,1.26,3.97,1.34,3.03,3.54ZM128.93,91.22c.34-3.4-3.77-7.55-6.51-10.84-2.05-2.47-1.81-4.6.03-6.2,2.46-2.15,5.28-4.57,9.06-2.82.77.36,1.15,1.46.26,2.35-4.13,4.15-3.79,6.78.69,10.78,3.56,3.18,4.89,7.72,6.08,12.2.44,1.66-.62,2.09-2.74,1.95-1.72-2.38-7.57-.4-6.88-7.42ZM149.45,131.93c-1.94,2.7-3.73,5.59-7.8,5.2-.5-.18-1.43-.33-1.44-.55-.46-5.88-6.82-7.6-8.7-12.41-.35-.89-1.52-2.1.13-2.76,1.13-.45,1.97.3,2.62,1.39,3.35,5.6,7.25,10.2,14.85,7.67.46-.15,1.13.32,1.71.5-.46.31-1.06.53-1.37.95Z"/>
      <g>
        <path class="cls-12" d="M308.41,175.91c-7.4,13.66-36.11,16.75-54.88,10.39-3.98-1.35-7.5-3.13-10.29-5.32-1.53-1.19-2.84-2.53-3.87-3.97-11.83-16.53,2.4-40.3,6.99-47.85,1.46-2.41,2.81-5.06,4.04-7.88,1.05-2.38,2-4.86,2.84-7.37,2.24-6.69,3.73-13.61,4.17-19.46.4-5.26-.05-9.63-1.54-12.22l47.86,3.03s1.08,5.66,2.54,13.49c1.77,9.52,4.09,22.22,5.65,31.74,2.67,16.27,2.57,34.19-3.5,45.41Z"/>
        <path class="cls-13" d="M306.26,98.76c-16.15-6.66-44.12-4.83-44.12-4.83-.81.93-3.4.71-4.74.53.4-5.26-.05-9.63-1.54-12.22l47.86,3.03s1.08,5.66,2.54,13.49Z"/>
        <g>
          <path class="cls-12" d="M318.86,83.71c6.39-5.45,4.52-20.99,4.91-21.3,7.42-5.8,12.76-13.27,15.48-16.34-7.2-.6-14.46-.56-21.66.11-7.78-12.5-20.16-22.06-34.23-26.41,2.01-5.51,3.54-11.2,4.57-16.97-15.17,7.53-33,20.06-46.39,30.42l8.03,17.3,2.88,9.03-1.46,20.44-1.48,7.1,4.36,3.78,22.64-11.36,32.82-2.89,5.63,5.25"/>
          <path class="cls-7" d="M251.96,92.36c14.61-4.06,30.24-2.98,45.03.37,5.1,1.16,10.4,2.73,13.99,6.53-.82-2.26-1.65-4.51-2.47-6.77,2.03.08,4.05.56,5.9,1.4-.07-1.37-.31-2.74-.7-4.05,3.93.47,7.76,1.81,11.12,3.9-.38-2.38-1.41-4.66-2.93-6.53.05-4.61.44-10.73-1.76-14.78-1.93-3.54-5.39-6.08-9.17-7.48-3.78-1.4-7.88-1.74-11.91-1.67-18.75.34-37.11,9.96-48.07,25.18"/>
          <path class="cls-7" d="M247.78,90.24c4.86-6.59,8.96-13.51,11.46-23.62,3.03-12.28-1.25-27.72-13.47-32.56-7.71-3.06-13.14-1.56-14.33-1.07,0,0,5.91,4.45,7.99,12.11-2.83-1.02-8.05-2.26-10.68-.93,6.75,5.18,11.71,12.51,14.68,20.48,2.97,7.98,4.01,16.59,3.73,25.1"/>
          <path class="cls-2" d="M250.52,51.39c-.72,1.15-.75,2.75,0,3.89,1.48,2.28,4.61,2.27,6.11-.43.74-1.35.63-2.37-.39-3.52-.58-.65-1.38-1.08-2.22-1.31-1.53-.42-2.79.27-3.48,1.37Z"/>
          <path class="cls-2" d="M290.32,70.71c-.72,1.15-.75,2.75,0,3.89,1.49,2.28,4.61,2.27,6.11-.44.74-1.35.63-2.37-.39-3.52-.58-.65-1.38-1.08-2.22-1.31-1.53-.42-2.79.27-3.48,1.37Z"/>
          <path class="cls-8" d="M276.26,13.81c-2.16,1.82-4.31,3.65-6.47,5.47,2.67.29,5.35.57,8.02.86.11.01.22.02.31-.04.1-.07.13-.21.14-.33.4-2.95,2.91-8.31,4.7-10.68-.91.37-5.95,4.08-6.7,4.72Z"/>
          <path class="cls-8" d="M319.74,51.05c1.18,2.46,1.55,4.05,2.39,5.85,3.34-1.56,8.23-5.85,11.29-7.91-3.06-.08-8.67.54-13.68,2.05Z"/>
          <path class="cls-10" d="M257.26,87.61c-1.5-1.09-3.12-1.98-4.79-2.79-.84-.4-1.68-.79-2.53-1.16-.99-.44-2.51-1.23-3.4-.19-1.3,1.52-.6,4.17-.46,5.95.16,2.07.32,4.99,2.39,6.13.67.37,1.47.46,2.24.38,1.02-.12,1.97-.53,2.89-.93,1.48-.64,2.95-1.28,4.34-2.09.89-.52,1.84-1.28,1.82-2.31-.01-.81-.64-1.47-1.26-2-.4-.35-.82-.67-1.25-.99Z"/>
          <path class="cls-1" d="M268.26,85.81c.47,1.2,1.9,1.9,3.13,1.57,1.24-.33,2.19-1.74,1.91-3.02-.02-.09-.16-.07-.15.02.11,1.22-.56,2.48-1.8,2.82-1.19.33-2.47-.35-2.98-1.44-.03-.06-.13-.02-.11.05h0Z"/>
          <g class="cls-18">
            <path class="cls-10" d="M253.96,86.73s-.04-.03-.06-.04c-1.11-.86-4.12-2.79-5.66-1.93-1.5.84.17,2.59.95,3.26,1.77,1.53,7.58.94,4.77-1.29Z"/>
          </g>
          <g class="cls-17">
            <path class="cls-9" d="M258.82,76.3c.52-.94,1.17-1.79,1.91-2.57.03-.03-.02-.08-.05-.05-.77.75-1.41,1.64-1.92,2.58-.02.04.04.08.07.04h0Z"/>
            <path class="cls-9" d="M264.04,71.15c.74-.96,1.56-1.84,2.4-2.71.03-.04-.02-.09-.05-.05-.88.82-1.67,1.75-2.41,2.7-.04.05.03.11.06.06h0Z"/>
            <path class="cls-9" d="M262.9,68.41c.98-1.39,2.05-2.7,3.15-4,.03-.03-.02-.08-.05-.05-1.16,1.24-2.2,2.61-3.18,4-.04.05.05.1.08.05h0Z"/>
            <path class="cls-9" d="M266.3,66.66c.65-.99,1.35-1.95,2.09-2.88.02-.02-.01-.06-.04-.03-.77.91-1.47,1.87-2.12,2.87-.03.04.04.08.07.04h0Z"/>
            <path class="cls-9" d="M271.03,63.54c1.1-1.09,2.2-2.18,3.29-3.29.02-.02-.01-.06-.04-.04-1.11,1.08-2.21,2.17-3.31,3.27-.04.04.02.09.06.06h0Z"/>
            <path class="cls-9" d="M268.84,56.95c1.29-1.32,2.59-2.63,3.85-3.97.02-.03-.01-.07-.04-.04-1.31,1.3-2.58,2.64-3.87,3.96-.03.04.02.09.06.06h0Z"/>
            <path class="cls-9" d="M270.26,59.96c.3-.45.62-.88.97-1.29.34-.4.71-.77,1.08-1.15.03-.03-.02-.08-.05-.05-.81.7-1.5,1.55-2.09,2.44-.03.05.05.1.08.05h0Z"/>
            <path class="cls-9" d="M266.74,60.86c.43-.72.97-1.34,1.58-1.9.03-.03-.01-.08-.04-.05-.67.51-1.21,1.18-1.64,1.9-.04.06.06.12.1.06h0Z"/>
            <path class="cls-9" d="M268.67,52.49c.73-1.46,1.48-2.92,2.17-4.4.02-.03-.03-.06-.05-.03-.77,1.44-1.47,2.92-2.19,4.38-.03.05.05.1.08.05h0Z"/>
            <path class="cls-9" d="M271.23,51.04c.35-.5.73-.98,1.13-1.43.4-.45.83-.86,1.25-1.28.04-.04-.02-.1-.07-.07-.47.39-.89.85-1.29,1.31-.4.45-.77.93-1.11,1.42-.04.06.05.11.09.05h0Z"/>
            <path class="cls-9" d="M274.65,52.79c.57-.56,1.15-1.1,1.69-1.68.03-.04-.02-.09-.05-.05-.59.54-1.14,1.11-1.71,1.67-.04.04.02.11.07.07h0Z"/>
            <path class="cls-9" d="M276.82,56.19c.89-.71,1.78-1.41,2.65-2.14.03-.02,0-.07-.04-.05-.9.7-1.78,1.42-2.67,2.13-.04.03.02.09.06.06h0Z"/>
            <path class="cls-9" d="M280.63,49.01c.86-.66,1.75-1.29,2.59-1.98.03-.03-.01-.08-.04-.06-.88.62-1.73,1.3-2.59,1.96-.05.03,0,.11.05.08h0Z"/>
            <path class="cls-9" d="M285.88,49.63c.73-.52,1.48-1.03,2.19-1.58.04-.03,0-.1-.04-.07-.75.5-1.47,1.04-2.2,1.57-.05.03,0,.11.05.08h0Z"/>
            <path class="cls-9" d="M278.43,52.77c.52-.61,1.11-1.15,1.73-1.66.03-.03-.01-.09-.05-.06-.65.46-1.23,1.04-1.74,1.65-.04.05.03.11.07.07h0Z"/>
            <path class="cls-9" d="M280.87,45.1c.64-.76,1.34-1.46,2.07-2.14.03-.02-.01-.06-.04-.04-.76.64-1.45,1.36-2.09,2.12-.04.04.03.11.06.06h0Z"/>
            <path class="cls-9" d="M277.1,43.61c.32-.32.63-.63.95-.95.32-.32.64-.63.94-.95.04-.04-.02-.09-.06-.06-.33.3-.64.63-.95.94-.32.32-.63.63-.95.95-.04.04.02.11.07.07h0Z"/>
            <path class="cls-9" d="M276.11,48.33c.45-.6.9-1.2,1.35-1.8.02-.03-.03-.07-.05-.04-.47.59-.93,1.19-1.38,1.79-.04.05.05.1.09.05h0Z"/>
            <path class="cls-9" d="M273.02,43c.9-1.32,1.89-2.57,2.93-3.79.03-.03-.02-.08-.05-.05-1.08,1.19-2.06,2.47-2.96,3.79-.03.05.05.09.08.05h0Z"/>
            <path class="cls-9" d="M277.37,40.71c.5-.9,1.2-1.62,2.02-2.24.04-.03,0-.09-.04-.07-.87.54-1.58,1.36-2.07,2.25-.03.06.06.11.09.05h0Z"/>
            <path class="cls-9" d="M279.7,34.68c.67-.94,1.46-1.77,2.31-2.54.03-.03-.02-.08-.05-.05-.9.72-1.68,1.61-2.35,2.54-.04.05.05.11.09.05h0Z"/>
            <path class="cls-9" d="M272.77,46.81c.49-.72,1-1.43,1.47-2.16.03-.05-.04-.09-.08-.05-.51.7-1,1.43-1.5,2.14-.04.06.06.12.1.06h0Z"/>
            <path class="cls-9" d="M284.96,33.42c.46-.66,1.04-1.19,1.69-1.66.04-.03,0-.09-.04-.06-.69.41-1.28,1.01-1.74,1.67-.04.05.05.1.08.05h0Z"/>
            <path class="cls-9" d="M283.78,37.18c.25-.33.53-.64.84-.93.31-.29.64-.54.98-.78.04-.03,0-.1-.04-.07-.72.44-1.35,1.06-1.85,1.73-.04.05.05.1.08.05h0Z"/>
            <path class="cls-9" d="M282.91,40.37c.52-.55,1.04-1.09,1.54-1.66.03-.03-.02-.07-.05-.05-.54.53-1.05,1.08-1.57,1.63-.05.05.03.12.07.07h0Z"/>
            <path class="cls-9" d="M287.53,41.84c.28-.29.56-.59.84-.88.28-.29.57-.58.84-.89.03-.04-.02-.09-.06-.06-.3.28-.57.58-.85.88-.28.29-.56.59-.84.88-.04.04.02.11.06.06h0Z"/>
            <path class="cls-9" d="M293.19,43.03c.77-.7,1.61-1.29,2.5-1.85.04-.03,0-.09-.04-.06-.91.5-1.75,1.15-2.52,1.85-.04.04.02.09.06.06h0Z"/>
            <path class="cls-9" d="M298.52,41.86c.89-.55,1.82-.98,2.79-1.36.04-.02.03-.09-.02-.07-.99.32-1.93.81-2.81,1.36-.05.03,0,.1.04.07h0Z"/>
            <path class="cls-9" d="M287.15,46.08c.37-.31.74-.62,1.11-.92.37-.31.75-.61,1.1-.93.03-.03-.01-.09-.05-.06-.38.29-.74.6-1.11.91-.38.31-.75.63-1.13.94-.05.04.02.11.07.07h0Z"/>
            <path class="cls-9" d="M296.28,37.42c.74-.4,1.48-.79,2.21-1.21.04-.02,0-.09-.04-.07-.75.38-1.49.78-2.23,1.18-.06.03,0,.13.06.09h0Z"/>
            <path class="cls-9" d="M292.1,35.04c.95-.7,1.91-1.39,2.83-2.13.03-.02,0-.07-.04-.05-.97.66-1.91,1.38-2.85,2.08-.06.04,0,.14.06.1h0Z"/>
            <path class="cls-9" d="M292.92,30.18c.63-.42,1.28-.83,1.9-1.27.04-.03,0-.09-.04-.07-.65.39-1.28.83-1.91,1.26-.05.03,0,.12.05.08h0Z"/>
            <path class="cls-9" d="M288.77,34.42c.38-.33.78-.64,1.14-.99.04-.04-.02-.1-.06-.06-.4.31-.77.65-1.15.98-.05.05.02.12.08.08h0Z"/>
            <path class="cls-9" d="M290.22,39.14c.61-.49,1.22-.97,1.8-1.5.03-.03,0-.08-.04-.05-.64.46-1.24.97-1.84,1.47-.06.05.03.13.09.09h0Z"/>
            <path class="cls-9" d="M286.2,27.67c.6-.84,1.4-1.49,2.3-1.98.05-.02,0-.09-.04-.07-.95.42-1.77,1.15-2.36,1.99-.04.06.06.12.1.06h0Z"/>
            <path class="cls-9" d="M289.09,28.18c.75-.64,1.56-1.2,2.39-1.73.04-.03,0-.1-.04-.07-.88.47-1.68,1.06-2.44,1.71-.07.06.03.15.09.09h0Z"/>
            <path class="cls-9" d="M297.58,31.07c.63-.64,1.45-1.04,2.32-1.23.04,0,.03-.08,0-.07-.91.11-1.76.56-2.4,1.21-.06.06.03.15.09.09h0Z"/>
            <path class="cls-9" d="M301.42,33.39c.36-.18.73-.34,1.12-.46.38-.12.76-.22,1.14-.31.04-.01.03-.08-.01-.08-.8.09-1.59.38-2.3.75-.07.03,0,.13.06.1h0Z"/>
            <path class="cls-9" d="M300.26,38.44c1.16-.54,2.33-1.07,3.48-1.63.03-.01,0-.05-.02-.04-1.17.52-2.33,1.06-3.49,1.6-.05.02,0,.09.04.07h0Z"/>
            <path class="cls-9" d="M304.39,39.17c.74-.4,1.49-.78,2.21-1.21.05-.03,0-.09-.04-.07-.75.37-1.48.8-2.22,1.2-.05.03,0,.11.05.08h0Z"/>
          </g>
          <path class="cls-5" d="M293.75,89.96c1.68-.06,3.34.1,5,.36.04,0,.05-.05.02-.06-1.64-.36-3.35-.44-5.02-.37-.04,0-.04.07,0,.07h0Z"/>
          <path class="cls-5" d="M297.64,91.53c.56.16,1.13.32,1.69.48.56.16,1.13.36,1.7.47.06.01.08-.07.03-.09-.55-.2-1.13-.33-1.7-.48-.57-.15-1.13-.31-1.7-.46-.06-.02-.08.07-.02.09h0Z"/>
          <path class="cls-5" d="M299.03,87.71c.37.17.75.33,1.12.48.39.15.78.31,1.18.41.06.01.08-.07.02-.09-.38-.14-.76-.26-1.14-.4-.39-.15-.77-.31-1.14-.48-.05-.02-.1.06-.05.08h0Z"/>
          <path class="cls-5" d="M303.3,91.21c.68.25,1.33.58,1.97.91.04.02.07-.03.03-.05-.61-.4-1.3-.7-1.98-.96-.06-.02-.09.07-.03.1h0Z"/>
          <path class="cls-5" d="M305.2,87.45c.55.07,1.09.18,1.62.35.53.18,1.01.43,1.51.68.05.02.09-.04.04-.07-.45-.33-.99-.55-1.52-.72-.53-.17-1.09-.28-1.65-.32-.05,0-.05.08,0,.08h0Z"/>
          <path class="cls-5" d="M311.1,90.09c.24.15.47.3.71.45.12.07.23.15.35.22.11.07.23.15.36.2.04.01.06-.04.04-.06-.09-.09-.21-.16-.32-.23-.12-.08-.24-.15-.36-.23-.24-.15-.47-.3-.71-.45-.06-.04-.12.06-.06.1h0Z"/>
          <path class="cls-5" d="M296.91,82.56c1.13-.16,2.27-.3,3.39-.51.04,0,.03-.08-.01-.08-1.13.13-2.27.35-3.39.53-.04,0-.02.06.02.06h0Z"/>
          <path class="cls-5" d="M311.26,83.55c.44.08.86.22,1.28.39.03.01.06-.04.02-.06-.4-.2-.84-.33-1.28-.4-.05,0-.07.07-.02.07h0Z"/>
          <path class="cls-5" d="M306.66,84.7c.5.06,1,.14,1.49.24.48.1.95.23,1.42.35.04,0,.05-.05.02-.06-.94-.33-1.95-.49-2.93-.6-.04,0-.04.06,0,.07h0Z"/>
          <path class="cls-5" d="M313.94,87.49c.43.18.87.36,1.3.54.43.18.86.38,1.31.5.04.01.06-.04.03-.06-.4-.22-.85-.39-1.28-.56-.44-.18-.88-.36-1.33-.54-.08-.03-.11.09-.03.12h0Z"/>
          <path class="cls-5" d="M318.01,86.34c.52.32,1,.71,1.43,1.13.43.42.79.89,1.17,1.37.03.04.1-.01.07-.06-.3-.53-.73-1-1.17-1.41-.44-.42-.94-.78-1.46-1.1-.05-.03-.09.04-.04.07h0Z"/>
          <path class="cls-5" d="M313.27,79.45c.58.27,1.14.57,1.68.9.54.33,1.05.71,1.57,1.07.04.03.08-.03.05-.06-.96-.82-2.11-1.46-3.25-1.98-.05-.02-.1.05-.04.08h0Z"/>
          <path class="cls-5" d="M306.92,78.46c1.26.38,2.55.72,3.85.93.04,0,.06-.05.02-.06-1.29-.27-2.58-.56-3.84-.94-.05-.02-.07.06-.02.08h0Z"/>
          <path class="cls-5" d="M313.58,82.48c.35.23.7.47,1.06.7.35.23.7.48,1.07.68.04.02.09-.04.05-.07-.33-.26-.69-.48-1.04-.71-.36-.23-.72-.47-1.08-.7-.06-.04-.12.06-.06.1h0Z"/>
          <path class="cls-5" d="M305.61,89.8c.63.24,1.19.6,1.7,1.03.04.03.09-.02.05-.05-.49-.48-1.1-.83-1.73-1.07-.06-.02-.08.07-.02.09h0Z"/>
          <path class="cls-5" d="M305.46,94.03c.17.12.34.23.51.35.17.12.34.24.52.34.04.03.1-.04.06-.07-.16-.13-.34-.24-.51-.36-.17-.12-.35-.24-.52-.36-.06-.04-.12.06-.06.1h0Z"/>
          <path class="cls-5" d="M314.95,77.76c1.06.62,1.98,1.42,2.82,2.31.04.04.09-.02.06-.06-.78-.95-1.77-1.72-2.84-2.32-.04-.02-.08.04-.04.06h0Z"/>
          <path class="cls-5" d="M318.25,83.59c.21.2.39.42.56.65.16.23.29.49.44.72.02.04.08.01.07-.03-.08-.28-.25-.53-.42-.76-.17-.24-.37-.45-.58-.65-.05-.04-.11.03-.07.07h0Z"/>
          <path class="cls-5" d="M306.28,81.06c.8.07,1.6.14,2.39.19.05,0,.05-.07,0-.07-.8-.09-1.6-.15-2.39-.22-.07,0-.07.1,0,.11h0Z"/>
          <path class="cls-5" d="M317.43,72.8c.34.26.66.54.97.84.3.29.57.62.85.92.03.03.09-.01.07-.05-.24-.35-.55-.67-.86-.96-.31-.3-.64-.58-.98-.84-.05-.04-.1.05-.05.09h0Z"/>
          <path class="cls-5" d="M321.2,79.77c.07.22.13.45.2.67.07.22.12.45.21.67.02.06.11.04.1-.03-.05-.23-.13-.45-.19-.68-.07-.22-.14-.45-.2-.67-.02-.07-.13-.04-.11.03h0Z"/>
          <path class="cls-5" d="M231.83,46.04c.7.5,1.33,1.08,1.94,1.69.03.03.08-.02.05-.05-.56-.66-1.23-1.23-1.94-1.73-.05-.04-.11.05-.05.09h0Z"/>
          <path class="cls-5" d="M235.51,45.24c.55.18,1.07.44,1.56.76.49.32.9.72,1.31,1.14.05.05.12-.02.08-.08-.72-.92-1.8-1.59-2.9-1.96-.08-.03-.12.1-.04.13h0Z"/>
          <path class="cls-5" d="M235.04,47.48c.37.29.75.58,1.13.85.39.28.78.58,1.19.82.05.03.09-.04.05-.08-.37-.28-.77-.53-1.15-.8-.39-.28-.77-.56-1.15-.86-.04-.03-.11.03-.06.06h0Z"/>
          <path class="cls-5" d="M238.95,52.78c.4.44.77.91,1.1,1.41.32.49.59,1,.87,1.52.02.04.1.01.08-.03-.45-1.09-1.18-2.09-1.98-2.95-.04-.04-.1.02-.06.06h0Z"/>
          <path class="cls-5" d="M239.7,49.82c.41.38.81.77,1.2,1.18.39.4.75.83,1.14,1.24.04.04.1-.01.07-.06-.33-.45-.72-.85-1.11-1.25-.39-.41-.8-.8-1.22-1.19-.06-.05-.14.03-.08.08h0Z"/>
          <path class="cls-5" d="M241.53,47.32c.46.37.83.82,1.17,1.3.02.03.07,0,.05-.03-.29-.51-.71-.96-1.17-1.33-.04-.03-.09.02-.05.05h0Z"/>
          <path class="cls-5" d="M236.01,34.13c.43.41.86.83,1.29,1.24.43.41.85.84,1.3,1.23.03.03.08-.02.05-.05-.42-.43-.86-.83-1.29-1.24-.43-.41-.87-.82-1.3-1.23-.03-.03-.07.02-.04.04h0Z"/>
          <path class="cls-5" d="M241.04,41.74c.76.95,1.43,1.95,2.11,2.96.03.04.08,0,.06-.04-.6-1.06-1.34-2.04-2.11-2.98-.03-.04-.09.02-.06.06h0Z"/>
          <path class="cls-5" d="M244.43,52.21c.4.76.7,1.56,1.03,2.36.02.05.09.03.08-.02-.21-.84-.6-1.64-1.01-2.39-.03-.06-.13,0-.09.06h0Z"/>
          <path class="cls-5" d="M242.66,56.85c.24.57.45,1.15.63,1.75.18.59.3,1.2.45,1.8.01.06.11.05.11-.01-.16-1.23-.59-2.45-1.08-3.58-.03-.06-.13-.02-.1.04h0Z"/>
          <path class="cls-5" d="M237.49,38.67c.29.52.57,1.05.86,1.57.28.52.56,1.06.87,1.56.03.04.09,0,.07-.04-.26-.54-.56-1.05-.85-1.58-.29-.52-.58-1.04-.87-1.57-.03-.05-.11,0-.08.05h0Z"/>
          <path class="cls-5" d="M240.41,36.9c.36.28.7.59,1.02.92.15.16.3.33.45.5.15.18.29.37.44.55.03.04.09-.01.06-.05-.24-.38-.57-.73-.89-1.05-.32-.33-.67-.63-1.04-.91-.03-.02-.07.03-.04.05h0Z"/>
          <path class="cls-5" d="M236.86,32.98c1.28.4,2.51.9,3.74,1.42.03.01.05-.04.02-.05-1.2-.59-2.48-1.04-3.75-1.43-.04-.01-.05.04-.02.06h0Z"/>
          <path class="cls-5" d="M243.52,34.35c.99.59,1.82,1.4,2.51,2.32.02.02.06,0,.04-.02-.62-.98-1.51-1.78-2.51-2.37-.05-.03-.09.05-.04.07h0Z"/>
          <path class="cls-5" d="M242.92,36.4c.3.21.6.41.9.62.15.1.3.2.44.3.15.1.3.22.46.31.04.02.09-.04.05-.07-.14-.12-.3-.21-.45-.31-.15-.1-.3-.2-.44-.3-.31-.21-.61-.41-.92-.62-.05-.03-.1.05-.05.08h0Z"/>
          <path class="cls-5" d="M248.47,36.76c.51.49,1.01,1.01,1.56,1.47.02.02.06-.01.04-.04-.48-.52-1.02-1-1.53-1.49-.04-.04-.09.02-.06.06h0Z"/>
        </g>
      </g>
    </g>
    <g id="TEXTS">
      <g>
        <path class="cls-3" d="M223.81,23.52l-23.75,40,29.58,33.88s-32.31,20.91-92.9,2.96c-60.59-17.96-114.24,14.15-114.24,14.15V14.89s63.28-10.66,103.57,4.64c40.29,15.3,97.74,3.99,97.74,3.99Z"/>
        <path class="cls-14" d="M22.5,63.23v51.27s53.64-32.08,114.23-14.15c60.59,17.96,92.91-2.95,92.91-2.95l-3.67-4.18c-17.82,5.76-50.07,11.65-82.19-5.69-39.96-21.56-86.26-26.36-121.29-24.3Z"/>
        <line class="cls-19" x1="22.5" y1="14.89" x2="22.5" y2="175.23"/>
      </g>
      <text class="cls-16" transform="translate(51.53 73.58)"><tspan x="0" y="0">EUROPE</tspan></text>
    </g>
  </g>
</svg>