<?xml version="1.0" encoding="UTF-8"?>
<svg xmlns="http://www.w3.org/2000/svg" viewBox="0 0 345 122">
  <defs>
    <style>
      .cls-1 {
        fill: #4f4faa;
      }

      .cls-1, .cls-2, .cls-3, .cls-4, .cls-5, .cls-6, .cls-7, .cls-8, .cls-9, .cls-10, .cls-11, .cls-12, .cls-13, .cls-14, .cls-15 {
        stroke-width: 0px;
      }

      .cls-1, .cls-16, .cls-14 {
        opacity: .2;
      }

      .cls-17 {
        font-size: 32.82px;
      }

      .cls-17, .cls-18, .cls-4, .cls-10, .cls-19, .cls-20, .cls-15 {
        fill: #fff;
      }

      .cls-17, .cls-19, .cls-20 {
        font-family: Fredoka-SemiBold, Fredoka;
        font-variation-settings: 'wght' 600, 'wdth' 100;
        font-weight: 600;
      }

      .cls-18 {
        stroke-linejoin: round;
      }

      .cls-18, .cls-21 {
        stroke: #512717;
        stroke-width: 2px;
      }

      .cls-2 {
        fill: #287712;
      }

      .cls-3 {
        fill: #d89e77;
      }

      .cls-22 {
        isolation: isolate;
      }

      .cls-21, .cls-23 {
        fill: none;
        stroke-miterlimit: 10;
      }

      .cls-4 {
        opacity: .5;
      }

      .cls-5 {
        fill: #512717;
      }

      .cls-6 {
        fill: #ffefe6;
      }

      .cls-7 {
        fill: #bf8660;
      }

      .cls-8 {
        fill: #232323;
      }

      .cls-9 {
        fill: #c97043;
      }

      .cls-19 {
        font-size: 23.95px;
      }

      .cls-23 {
        stroke: #2d4661;
        stroke-linecap: round;
        stroke-width: 1.5px;
      }

      .cls-11 {
        fill: #aa6b3f;
      }

      .cls-20 {
        font-size: 41.15px;
      }

      .cls-12 {
        fill: #b25b36;
      }

      .cls-13 {
        fill: #1919a5;
      }

      .cls-14 {
        fill: #2d4661;
        mix-blend-mode: multiply;
      }

      .cls-15 {
        opacity: .35;
      }
    </style>
  </defs>
  <g class="cls-22">
    <g id="BACKGROUND">
      <rect class="cls-13" x="-29.86" y="-100.63" width="377.02" height="251.35"/>
    </g>
    <g id="OBJECTS">
      <path class="cls-2" d="M1248.65-984.45c-19.52-1.91-38.92-5.81-58.24-7.75-43.85-4.39-87.64,3.84-131.49,6.57-8.79.55-17.66-.3-26.63,1.77-2.24.52-8.52-7.2-15.29-7.69-30.78-2.21-61.24,1.03-91.84,3.55-16.59,1.37-32.2,8.57-49.43,6.53-7.37-.87-17.09.74-20.98,8.29-3.12,6.09,2.87,11.1,7.58,15.53,1.99,1.86,2.1,5.71,3.06,8.65-2.07-.11-4.88.58-6.04-.49-5.29-4.89-9.53-1.94-13.95,1.07,0,.03-.02.08-.02.11-.03,0-.08.02-.11.02-2.07,2.73-7.43,3.69-5.9,8.14,1.58,4.59,6.5,4.48,10.67,4.85.77.06,1.58-.03,2.34.09,3.8.63,7.59,1.29,11.38,1.94-1.86.41-3.76,1.23-5.57,1.07-1.74-.14-3.31-1.5-5.07-1.99-5.43-1.56-10.09,1.75-15.1,2.38-1.77.22-6.08-4.18-5.79-5.9,1.14-6.85,6.47-9.77,13.05-10.59.02-.03.05-.05.06-.08.02-.02.05-.03.06-.05.63-3.25.88-6.66,2.08-9.69.92-2.38,3.63-4.62,1.2-6.99-3.77-3.66-8.82-2.68-13.45-2.21-2.82.3-4.32,2.16-4.67,5.37-.85,8.14-4.28,14.52-13.18,16.34-.73.71-1.45,1.4-2.18,2.11,1.07,1.72,1.85,3.79,3.31,5.05,1.36,1.15,3.44,1.45,5.21,2.11-2.1,0-4.32-.46-6.28.06-15.59,4.17-32.36-6.01-47.6,4.02-2.73,1.78-7.94,2.04-7.29,5.71.69,3.96,3.85,7.77,6.69,10.97,2.16,2.45,5.1,1.09,7.91-.41,4.09-2.18,8.55-3.69,12.85-5.48.02-.03.03-.06.06-.09.05,0,.08-.02.13-.02,3.88-2.7,7.56-7.28,12.5-1.55h.05s0,.02.02.03c2.57-.11,5.22-.62,7.73-.25,6.12.9,19.08-6.23,12.6,10.35-.85,2.18.99,4.67,3.5,5.46,2.02.65,4.23.71,6.36,1.03-2.67,3.06-4.92,6.71-8.13,9.04-3.08,2.23-5.7-1.58-8.29-2.3-12.72-3.6-11.11-14.52-13.78-23.33h-.03s-.02-.02-.03-.03c-4.17.52-8.33,1.03-12.5,1.55-.03.02-.06.05-.09.06-.03.02-.06.03-.09.05-8.22,11.24-24.18,10.32-32.43,18.45-9.38,9.23-17.77,10.1-28.36,7.92-5.89-1.22-11.49-3.91-17.22-5.95,6.49-4.91,11.35.66,16.64,2.75,8.62,3.36,13.4-4.34,19.74-6.96,4.89-2,1.14-6.22-.73-9.8-1.58-3.03,1.94-4.83,4.45-6.36,3.11-1.89,8.9-2.35,6.93-7.72-1.97-5.32-7.35-3.03-11.66-3.55-7.4-.88-12.72,4.81-20.88,3.96-10.84-1.12-18.51-6.74-27.68-10.39-21.56-8.59-40.45,1.96-58.79,12.23-3.49,1.96-4.48,4.67-2.92,8.63,1.5,3.82,3.31,6.57,7.95,5.75,6.17-1.1,12.36-2.21,18.55-3.33.93-.17,1.86-.39,2.81-.6-.03.74.03,1.51-.13,2.24-2.59,12.25-8.4,17.08-21.31,11.25-19.16-8.67-39.02-8.93-60.02-6.05-14.24,1.96-28,11.85-42.08,6.8-13.35-4.77-26.82-7.23-40.53-8.79-20.88-2.37-40.67-8.73-63.28-3.17-18.69,4.59-36.55,15.15-56.99,13.12-4.32-.44-6.91,2.38-5.68,7.89,1.69,7.51-.95,13.21-9.58,9.47-10.78-4.69-18.81.68-27.31,5.18-3.47,1.85-5.63,5.11-4.14,9.23,1.44,3.91,4.92,4.2,8.57,3.82,2.87-.28,5.81-.68,8.65-.39,2.94.28,8.33-1.67,8.3,1.18-.03,3.74-5.54,4.58-9,4.2-18.42-2.02-32.5,8.62-47.85,15.69-11.4,5.26-2.75,13.72-3.16,20.47-.33,5.48,5.26,2.92,8.66,2.97,1.59.02,3.17,1.17,4.77,1.82-1.31,1.12-2.45,2.7-3.96,3.31-7.07,2.83-14.35,5.15-21.31,8.19-2.86,1.25-5.43,4.17-3.74,7.69,1.72,3.58,4.92,1.61,7.64.87,7.59-2.05,15.89-2.78,22.65-6.39,10.78-5.76,23.31,4.5,33.13-4.78,3.74-3.54,7.42-7.17,11.14-10.73,8.1-7.78,17.95.11,27.26-3.31,11.82-4.34,23.28-12.89,38.2-5.19,10.86,5.62,25.74,4.8,23.58,23.31-.38,3.27,1.06,8.08,3.43,10.09,9.96,8.43,9.38,24.68,6.03,28.99-8.78,11.27-5.48,19.56-1.8,30.04,1.12,3.19-1.44,8.08-3.19,11.77-8.3,17.39-23.97,29.62-32.48,47.14-5.87,12.09-8.78,52.59.96,59.74,14.03,10.32,11.76,23.53,14.13,37.07,1.41,8.1,1.36,21.53,3.44,23.17,12.74,10.04,11.63,27.19,22.11,37.77,3.31,3.35,6.31,4.94,10.2,2.65,3.88-2.29,4.04-6.44,1.64-9.67-12.03-16.23-10.92-37.23-20.01-54.52-.95-1.8.52-4.96,1.17-7.4.11-.38,2.51-.68,2.64-.43.99,2.05,2.37,4.25,2.38,6.41.22,18.28,12.14,31.79,20.11,46.48,7.09,13.05,19.73,23.26,12.69,40.61-1.4,3.47,1.69,6.14,4.2,8.67,6.55,6.55,14.63,10.64,22.36,15.47,15.31,9.56,29.29,22.06,49.58,15.94,4.36-1.31,6.85,1.48,8.93,4.78,5.46,8.67,13.1,13.46,23.3,15.74,11.05,2.48,23.93,5.56,27.21,17.87,3.41,12.86,12.77,20.34,21.86,26.28,6.96,4.55,17.65,20.9,27.81,1.36,1.86-3.58,5.56-4.17,7.91,1.47,9.04,21.73,3.95,40.77-13.34,57.7-8.44,8.29-13.59,20-6.36,31.99,2.4,3.98,2.19,5.15-.6,8.08-7.65,8.02-7.48,19.54-1.03,25.22,12.48,11,18.32,25.1,25.73,38.89,10.95,20.42,20.96,41.24,44.86,51.45,13.07,5.59,20.23,17.96,20.49,33.73.38,24.07,1.7,48.14,3.28,72.18,1.18,18.06,10.05,35.54,4.04,54.18-2.46,7.64-1.28,15.04,1.66,22.33,3.69,9.12,4.48,18.26,3.35,28.3-.82,7.13,2.13,15.26,10.31,18.83,1.85.79,5.89-2.84,5.56,2.19-.28,4.2,5.08,8.52-.82,12.78-2.95,2.13-6.94,8.44-3.84,9.66,8.41,3.28,5.43,10.37,7.54,15.59,5.18,12.82,12.93,23.64,22.84,33.37,17.49,17.14,37.55,26.39,62.36,23.22,1.7-.2,3.82-1.86,4.64-3.44,1.18-2.23-.76-3.84-2.65-4.99-5.81-3.54-11.47-7.31-17.46-10.54-16.05-8.65-18.75-21.37-8.62-36.11,5.37-7.81,6.04-15.93-5.48-20.06-3.49-1.25-9.34-3.54-4.67-7.72,5.38-4.8,5.4-10.57,6.47-16.24,1.5-7.96-6.58-19.9,9.55-21.45.49-.05,1.33-2.95.95-4.21-2.87-9.5,1.01-11.63,10.07-11.22,7.37.33,13.65-3.77,17.12-10.73,3.27-6.55,2.45-12.6-2.76-18.1-1.44-1.53-1.75-4.09-2.59-6.17,2.02.25,4.09.25,6.01.79,4.09,1.14,7.58.33,11.22-1.86,14.3-8.62,17.74-24.81,26.09-37.5,5.65-8.57,12.67-17.6,8.19-29.56-3.98-10.65,3.09-15.39,10.43-21.62,9.9-8.41,25.36-7.34,32.31-16.13,14-17.74,19.21-39.95,19.87-62.75.24-8.51-2.26-16.73,5.71-24.35,7.42-7.09,13.67-16.29,17.84-25.71,10.05-22.81,4.09-34.25-24.32-51.2-7.62-4.55-14.76-10.51-24.53-9.03-7.37,1.12-13.31-2.53-19.16-5.76-9.38-5.19-18.96-9.44-29.22-12.78-4.94-1.61-12.88-2.54-13.86-10.78-2.6-22.19-15.36-48.33-41.53-45.42-4.97.55-9.19-.77-12.85-4.48-8.9-9.01-17.22-18.96-27.38-26.29-6.49-4.67-13.19-13.01-23.5-8.9-5.4,2.15-10.51-.13-15.47-.13-10.78,0-17.09-9.86-27.48-9.58-3.41.09-12.06,7.72-10.07-5.03.41-2.65-4.91-4.15-6.23-2.51-8.52,10.5-24.59,10.35-31.58,22.95-3.63,6.55-8.32,10.8-16.37,4.88-4.56-3.35-9.93-4.12-15.69-1.61-13.92,6.03-20.36,1.82-21.24-13.7-.43-7.37.17-14.6,2.41-21.8,4.04-13.05-3.44-21.99-17.35-21.29-3.43.17-6.82.52-10.24.65-4.56.19-7.21-.17-5.52-6.57,2.84-10.75,8.02-20.2,13.59-29.53,2.46-4.1,2.53-7.45-1.12-10.42-8.54-7.01-28.43-1.03-31.71,9.41-3.77,12.03-21.37,20.06-31.58,12.83-10.04-7.15-17.49-20.23-13.6-30.9,7.92-21.72,11.06-50.13,39.9-55.43,18.17-3.35,36.9-6.11,55.32-7.31,10.89-.71,24.26,4.99,19.89,22.68-.85,3.41,2.05,8.02,3.88,11.74,2.11,4.26,5.05,8.82,10.34,8.62,5.65-.22,7.02-5.71,8.63-10.09,2.27-6.11,2.18-12.58.25-18.64-5.75-17.96.25-30.13,16.83-38.53,8.82-4.48,16.62-10.99,25.22-15.97,12.47-7.23,8.27-23.6,19.74-32.62,12.23-9.61,19.98-25,38.32-25.46,2.94-.08,6.14-1.25,6.71-4.56,2.23-13.08,13.87-15.39,23.11-20.27,2.62-1.39,7.54-4.94,6.53,3.76-.68,5.89,5.65,7.62,9.61,4.86,10.91-7.61,23.8-10.56,35.39-16.48,5.65-2.9,9.83-7.12,5.95-12.94-4.47-6.71-8.25-.14-12.09,2.4-4.86,3.24-10.09,5.43-14.6-.3-4.17-5.27-.76-8.41,3.69-11.32,4.61-3.03,4.28-7.02,2.29-11.79-.84-2.02-6.42-1.31-3.2-4.18,3.55-3.16,4.61,1.34,6.58,3.74,4.06,4.96,14.46,7.99,14.73,3.63.82-13.05,9.26-7.12,14.73-8.54,4.51-1.18,7.65-6.34,13.18-4.56-3.57,4.53-7.09,9.08-10.72,13.54-.63.77-1.77,1.12-2.64,1.72-2.51,1.75-4.4,3.96-3.58,7.24.76,3.03,3.77,2.98,5.98,4.23,8.38,4.78,18.75-2.84,25.76,3.01,10.57,8.82,13.4.54,13.31-6.16-.08-6.03,5.43-17.14-9.01-17.87-5.08-.25-4.09-4.83-.55-8.62,11.87-12.71,7.84-29.72-8.29-35.51-3.77-1.34-7.04-4.17-6.35-7.01,2.42-9.99-4.69-18.14-4.28-27.54.14-3-.11-6.05-3.46-7.21-3.09-1.07-5.82.46-7.8,2.62-3.96,4.34-8.41,7.88-13.83,10.21-2.49,1.09-4.83,2.16-7.01-.69-1.96-2.54-.49-4.14.98-6.17,4.07-5.62,2.26-9.61-3.66-12.61-2.45-1.25-4.92-2.95-6.63-5.07-7.51-9.28-32.36-6.36-38.23,3.65-3.24,5.49-5.33,12.66-12.82,15.25-3.36,1.17-5.7,4.69-3.5,8.37,7.72,12.99-2.15,16.64-10.84,20.63-9.08,4.18-19.97,5.92-19.15,20.04.19,3.22-3.39,6.93-5.79,9.96-1.45,1.83-3.71,4.81-6.49,2.7-2.21-1.66-3.19-4.45-2.27-7.78,3.65-13.13,5-25.13-14.32-25.81-2-.06-4.28-1.94-5.82-3.54-6.63-6.83-13.72-11.6-23.77-7.47-.85.35-2.15-.36-3.24-.58,4.62-6.44-3.46-14.58,5.11-21.81,22.16-18.7,51.88-22,74.67-38.87,1.69-1.18,3.39-2.35,5.1-3.54,6.64-1.85,13.18-4.7,19.93-5.33,16.78-1.59,24.21-9.09,23.75-25.28-.09-3.35,1.86-.6,2.9-.55,8.9.44,15.58,7.47,24.76,7.97,3.85.21,7.48,4.91,11.06,7.77.19.16-.79,2.73-1.67,3.11-9.25,3.84-16.56,12.41-28.36,10.24-5.81-1.06-11.57,2.1-10.87,9.25.74,7.64,7.17,6.75,12.25,5.46,7.31-1.86,11.51.55,16.84,6.03,5.73,5.89,14.17,9.74,22.11,12.63,5.63,2.07,7.2-3.36,7.35-8.29,0-.05,1.36-.24,2-.06,15.86,4.37,13.67-5.57,12.03-15.12-.39-2.23-1.67-5.68-.74-6.49,2.7-2.34,4.26,1.61,6.5,2.46,7.1,2.68,13.31-.66,19.49-3.13,2.7-1.07,3.82-4.89,2.08-6.76-8.98-9.58-17.27-19.76-25.9-29.55-4.97-5.65-12.55-9.99-17.19-16.46-3.09-4.34-6.42-6.39-11.49-6.94-3.17-.35-6.71,2.1-9.56-1.04,3.22-.69,6.42-1.48,9.66-2.08,3.77-.71,8.74-.11,9.12-5.41.35-4.89-4.23-5.21-7.77-6.09-.96-.25-1.85-.74-2.76-1.12,1.28-.13,2.76-.74,3.79-.3,13.84,6.08,25.87-1.88,36.81-7.04,22.22-10.5,46.1-13.76,69.24-20.25.06-.03.13-.08.19-.13.13-.03.27-.06.39-.09,4.78-2.19,9.45-4.77,15.04-4.06.33.03.66.22.99.35-5.35,1.23-10.69,2.46-16.04,3.71-.11.06-.22.11-.33.16-.08.02-.17.05-.25.06-11.02,8.11-23.47,11.79-37.04,12.14-3.39.08-7.28-.54-9.14,3.16-2.05,4.1,1.4,6.47,3.42,9.55,5.6,8.6,13.29,9.19,21.99,6.77,15.2-4.2,29.48,3.74,29.07,16.64-.11,3.69-3.96,8.11-2.82,10.84,3.84,9.17-2.94,16.75-5.75,22.38-7.4,14.82-13.1,27.48.25,41.38,1.23,1.28,2.56,3.13,2.59,4.74.39,16.35,16.08,12.09,24.34,17.3,7.17,4.55,12.11-4.2,15.75-9.61,8.78-13.02,22.48-23.61,34.85-27.64,26.28-8.57,50.9-22.48,79.22-25.73,12.82-1.48,27.59-5.89,28.31-24.23.05-1.45,2.48-3.05,4.07-4.17,8.3-5.84,19.37-9.8,15.63-23.6-.57-2.07.71-1.15,1.63-1.1,10.62.65,11.73-5.07,7.43-12.56-1.99-3.49.3-3.22,1.69-4.32,8.93-7.15,19.56-8.1,30.4-8.71,3.58-.21,8.11-1.01,8.63-5.38.54-4.51-4.02-5.32-7.2-5.62ZM673.39-892.21c-4.34.71-2.95-3.31-3.93-5.33-.84-1.75.05-2.34,2.87-2.07,1.4,1.28,3.44,3.11,5.48,4.96-1.47.85-2.86,2.19-4.42,2.45ZM693.96-889.77c-1.55-1.51-3.11-3.05-4.66-4.56,3.47-1.53,6.91-3.14,10.43-4.58.76-.3,1.74-.03,2-.03-2.56,3.01-5.18,6.09-7.78,9.17Z"/>
      <path class="cls-1" d="M306.38-86.91c48.89,9.64,24.41,67.15,13.77,98.76-10.64,31.61,51.36,76.88,26.62,112.71-24.74,35.83-73.31,1.13-138.74-8.89-65.42-10.01-125.81,35.95-163.2,19.33C7.44,118.38,39.56,59.08,7.76,28.23-24.04-2.61-13.06-47.29,20.76-67.52c33.81-20.23,99.94,14.63,150.52,10.62s95.43-37.83,135.1-30.01Z"/>
      <g>
        <path class="cls-8" d="M218.22,17.9l-9.46,35.03,15.62,42.87s-34.07,22.05-97.95,3.12c-63.88-18.93-120.45,14.92-120.45,14.92V8.81S72.69-2.43,115.17,13.7c42.48,16.13,103.05,4.21,103.05,4.21Z"/>
        <line class="cls-23" x1="5.97" y1="8.81" x2="5.97" y2="177.86"/>
        <path class="cls-14" d="M5.97,75.25v38.59s56.55-33.86,120.44-14.92c63.89,18.94,97.96-3.11,97.96-3.11l-2.6-7.08c-35.56,1.52-84.95-.51-113.18-19.4-27.21-18.25-70.46-7.05-102.63,5.93Z"/>
      </g>
    </g>
    <g id="TEXTS">
      <text class="cls-17" transform="translate(37.31 51.86)"><tspan x="0" y="0">HOW TO</tspan><tspan x="23.68" y="31">PLAY</tspan></text>
      <text class="cls-20" transform="translate(309.85 34.58) rotate(14.38)"><tspan x="0" y="0">?</tspan></text>
      <text class="cls-19" transform="translate(298.82 33.3) rotate(14.38)"><tspan x="0" y="0">?</tspan></text>
      <g>
        <g>
          <path class="cls-3" d="M274.13,128.41c5.65,3.87,11.9,7.87,20.59,6.77,13.35-1.68,17.93-17.34,19.49-22.51,1.57-.1,8.17-.48,7.81-5.47-.17-2.33-2.9-4.9-4.89-5.26-3.98-.73-8.53-1.29-11.99.34-4.64,2.27-10.55,9.1-14.05,14.21-6.09-3.65-14.06-8.11-19.28-8.05h-7.44"/>
          <path class="cls-3" d="M314.21,112.67c-1.56,5.17-6.14,20.83-19.49,22.51-8.69,1.1-14.94-2.91-20.59-6.77l-9.75-19.97h7.44c1.76-.02,3.84.48,6.05,1.28,4.34,1.58,9.2,4.35,13.23,6.77,3.5-5.11,9.41-11.94,14.05-14.21.21-.1.43-.19.65-.28,3.37-1.29,7.6-.75,11.34-.07,1.98.36,4.72,2.93,4.89,5.26.36,4.99-6.25,5.37-7.81,5.47Z"/>
          <path class="cls-15" d="M305.26,103.98c-9.27,6.94-15.13,16.12-15.13,16.12-.08-3.78-8.44-7.48-12.57-9.62l.31-.76c4.34,1.58,9.2,4.35,13.23,6.77,3.5-5.11,9.41-11.94,14.05-14.21.21-.1.43-.19.65-.28-.02.16-.03.32-.06.48.25.5.13,1.03-.48,1.49Z"/>
          <path class="cls-7" d="M311.92,119.3c-2.7,6.52-7.76,14.7-17.2,15.88-8.69,1.09-14.94-2.91-20.59-6.77l-2.4-4.92,6.5-4.14c3.58,4.22,6.58,12.77,15.9,12.18,10.26-.64,15.89-8.67,17.8-12.23Z"/>
          <path class="cls-7" d="M278.85,110.1c-.07.05-.15.1-.23.14-2.93,1.39-7.12,2.42-11.95,2.89l-2.29-4.69h7.44c2.02-.02,4.45.63,7.03,1.66Z"/>
          <path class="cls-21" d="M274.13,128.41c5.65,3.87,11.9,7.87,20.59,6.77,13.35-1.68,17.93-17.34,19.49-22.51,1.57-.1,8.17-.48,7.81-5.47-.17-2.33-2.9-4.9-4.89-5.26-3.98-.73-8.53-1.29-11.99.34-4.64,2.27-10.55,9.1-14.05,14.21-6.09-3.65-14.06-8.11-19.28-8.05h-7.44"/>
          <path class="cls-5" d="M289.93,120.85c.24-2.09.55-4.2,1.49-6.12,0,0,1.27.86,1.27.86-1.27,1.51-2.05,3.42-2.75,5.26h0Z"/>
          <polygon class="cls-5" points="310.93 111.93 314.38 111.92 314.05 113.42 310.93 111.93 310.93 111.93"/>
          <path class="cls-18" d="M317.14,101.95c4.9.93,14.91,1.51,15.13,4.01.28,3.23-9.8,6.19-15.98,6.5,4.13-1.15,7.02-8.6.85-10.51Z"/>
          <path class="cls-18" d="M320.67,106.82c2.99,0,10.57,0,11.59-.87"/>
          <path class="cls-18" d="M320.3,104.44s6.64.9,11.88,1.19"/>
        </g>
        <g>
          <path class="cls-3" d="M247.68,128.41c-5.65,3.87-11.9,7.87-20.59,6.77-13.35-1.68-17.93-17.34-19.49-22.51-1.57-.1-8.17-.48-7.81-5.47.17-2.33,2.9-4.9,4.89-5.26,3.98-.73,8.53-1.29,11.99.34,4.64,2.27,10.55,9.1,14.05,14.21,6.09-3.65,14.06-8.11,19.28-8.05h7.44"/>
          <path class="cls-3" d="M207.59,112.67c1.56,5.17,6.14,20.83,19.49,22.51,8.69,1.1,14.94-2.91,20.59-6.77l9.75-19.97h-7.44c-1.76-.02-3.84.48-6.05,1.28-4.34,1.58-9.2,4.35-13.23,6.77-3.5-5.11-9.41-11.94-14.05-14.21-.21-.1-.43-.19-.65-.28-3.37-1.29-7.6-.75-11.34-.07-1.98.36-4.72,2.93-4.89,5.26-.36,4.99,6.25,5.37,7.81,5.47Z"/>
          <path class="cls-15" d="M216.54,103.98c9.27,6.94,15.13,16.12,15.13,16.12.08-3.78,8.44-7.48,12.57-9.62l-.31-.76c-4.34,1.58-9.2,4.35-13.23,6.77-3.5-5.11-9.41-11.94-14.05-14.21-.21-.1-.43-.19-.65-.28.02.16.03.32.06.48-.25.5-.13,1.03.48,1.49Z"/>
          <path class="cls-7" d="M209.88,119.3c2.7,6.52,7.76,14.7,17.2,15.88,8.69,1.09,14.94-2.91,20.59-6.77l2.4-4.92-6.5-4.14c-3.58,4.22-6.58,12.77-15.9,12.18-10.26-.64-15.89-8.67-17.8-12.23Z"/>
          <path class="cls-7" d="M242.95,110.1c.07.05.15.1.23.14,2.93,1.39,7.12,2.42,11.95,2.89l2.29-4.69h-7.44c-2.02-.02-4.45.63-7.03,1.66Z"/>
          <path class="cls-21" d="M247.68,128.41c-5.65,3.87-11.9,7.87-20.59,6.77-13.35-1.68-17.93-17.34-19.49-22.51-1.57-.1-8.17-.48-7.81-5.47.17-2.33,2.9-4.9,4.89-5.26,3.98-.73,8.53-1.29,11.99.34,4.64,2.27,10.55,9.1,14.05,14.21,6.09-3.65,14.06-8.11,19.28-8.05h7.44"/>
          <path class="cls-5" d="M231.87,120.85c-.7-1.84-1.48-3.75-2.75-5.26,0,0,1.27-.86,1.27-.86.94,1.92,1.25,4.04,1.49,6.12h0Z"/>
          <polygon class="cls-5" points="210.88 111.93 207.76 113.42 207.42 111.92 210.88 111.93 210.88 111.93"/>
          <path class="cls-18" d="M204.66,101.95c-4.9.93-14.91,1.51-15.13,4.01-.28,3.23,9.8,6.19,15.98,6.5-4.13-1.15-7.02-8.6-.85-10.51Z"/>
          <path class="cls-18" d="M201.13,106.82c-2.99,0-10.57,0-11.59-.87"/>
          <path class="cls-18" d="M201.5,104.44s-6.64.9-11.88,1.19"/>
        </g>
        <path class="cls-12" d="M273.1,112.1c-3.5.83-7.69,1.31-12.2,1.31s-8.7-.48-12.2-1.31c2.36-2.4,6.79-5.98,12.2-5.98s9.84,3.59,12.2,5.98Z"/>
        <path class="cls-9" d="M274.95,114.2s17.79,24.22,6.89,37.95l-8.87,5.87c-2.38,1.21-6.48,2.41-12.07,2.41s-9.69-1.2-12.07-2.41l-8.87-5.87c-10.9-13.73,6.89-37.95,6.89-37.95,0,0,5.92-8.09,14.05-8.09s14.05,8.09,14.05,8.09Z"/>
        <path class="cls-3" d="M284.63,146.74c-.56,1.92-1.46,3.74-2.79,5.41l-8.87,5.86c-2.38,1.21-6.48,2.41-12.07,2.41s-9.69-1.2-12.07-2.41l-8.87-5.86c-1.32-1.67-2.23-3.49-2.79-5.41-4.05-13.85,9.68-32.54,9.68-32.54,0,0,5.92-8.09,14.05-8.09s14.05,8.09,14.05,8.09c0,0,13.73,18.69,9.68,32.54Z"/>
        <path class="cls-7" d="M273.1,112.1c-3.5.83-7.69,1.31-12.2,1.31s-8.7-.48-12.2-1.31c2.36-2.4,6.79-5.98,12.2-5.98s9.84,3.59,12.2,5.98Z"/>
        <path class="cls-6" d="M260.9,156.94c-14.16,0-20.68-9.03-20.15-18.13.47-8.09,6.94-22.11,20.15-22.11s19.69,14.02,20.15,22.11c.53,9.1-5.99,18.13-20.15,18.13Z"/>
        <g>
          <path class="cls-5" d="M281.84,152.15c3.56-5.97,3.16-12.88,1.35-19.38-1.81-6.56-4.83-12.68-8.24-18.56,1.67,1.97,3.14,4.1,4.5,6.3,5.37,8.74,10.88,23.16,2.4,31.65h0Z"/>
          <path class="cls-5" d="M239.96,152.15c-8.48-8.49-2.97-22.9,2.4-31.65,1.35-2.2,2.82-4.33,4.5-6.3-3.41,5.88-6.43,12.01-8.24,18.56-1.8,6.5-2.21,13.41,1.35,19.38h0Z"/>
        </g>
        <g>
          <g>
            <path class="cls-3" d="M260.92,110.23c-6.07,0-52.91-1.65-49.06-32.16-1.1-29.9,11.32-54.41,49.01-54.43,37.69-.02,50.14,24.47,49.07,54.38,3.89,30.51-42.95,32.22-49.02,32.22Z"/>
            <path class="cls-3" d="M296.61,102.27c-13.27,7.33-32,7.96-35.69,7.97-3.66,0-22.13-.6-35.39-7.76-8.74-4.72-15.21-12.29-13.68-24.41-1.1-29.9,11.32-54.41,49.01-54.43,37.69-.02,50.14,24.47,49.07,54.38,1.53,11.98-4.76,19.52-13.34,24.25Z"/>
            <path class="cls-7" d="M299.75,100.32c-1,.7-2.06,1.34-3.15,1.94-13.27,7.34-32,7.96-35.69,7.97-3.66,0-22.13-.6-35.39-7.76-1.2-.65-2.36-1.35-3.46-2.11,15.34,7.06,34.79,7.68,38.85,7.68,4.05,0,23.5-.65,38.83-7.72Z"/>
            <path class="cls-5" d="M267.1,109.95c11.99-2.33,25.04-4.1,34.6-12.31,3.64-3.18,6.37-7.43,7.18-12.23.44-2.42.41-4.91.13-7.38,1.14-26.69-9.11-48.99-37.75-52.92-16.73-2.17-36.34.13-47.82,13.77-9.09,10.74-11.31,25.48-10.78,39.15-1.01,7.61,1.51,14.59,7.37,19.6,9.6,8.12,22.59,10.06,34.6,12.31-11.93.16-26.49-3.11-35.74-11.01-6.23-5.32-8.99-12.89-7.84-20.97-.75-16.96,3.56-37.07,19.22-47.19,8.99-5.96,19.97-7.88,30.59-7.91,7.09.05,14.25.84,20.98,3.21,18.53,6.27,27.23,22.73,28.66,41.4.32,3.31.36,7.71.23,10.49.68,5.13-.13,10.6-2.87,15.06-7.44,12.33-27.21,17.25-40.77,16.93h0Z"/>
            <path class="cls-6" d="M303.97,77.82c0,10.6-6.06,17.87-18.54,22.23-9.82,3.43-20.41,3.81-24.51,3.81-4.1,0-14.69-.36-24.52-3.78-12.49-4.34-18.56-11.61-18.57-22.2,0-14.02,1.9-24.15,11.25-31.57,12.74-10.11,25.96-.8,31.8-.81,5.85,0,19.05-9.32,31.8.77,9.35,7.4,11.28,17.53,11.28,31.55Z"/>
            <g>
              <path class="cls-5" d="M260.9,78.14c.97,0,4.98-2.26,5.09-4.35.03-.6-.34-1.17-.91-1.52-.89-.54-2.22-.99-4.18-.99h0c-1.96,0-3.29.46-4.18,1-.57.35-.94.93-.91,1.52.11,2.09,4.12,4.35,5.09,4.34"/>
              <path class="cls-4" d="M263,73.1c-.4.77-2.09.76-2.09.76,0,0-1.7.02-2.1-.75-.28-.55,1.72-.64,2.09-.64.38,0,2.38.09,2.1.64Z"/>
            </g>
            <g>
              <path class="cls-3" d="M276.13,28.16c1.75-2.49,7.01-2.18,5.79-4.18-2.44-4.01-12.04-1.77-11.9-2.41,1.13-5.06-.77-8.87-3.07-8.36-.68.15-6.89,6.61-15.98,9.94-3.62,1.32-7.6,2.06-15.16,5.4"/>
              <path class="cls-5" d="M276.13,28.16c.77-2.03,3.21-2.66,4.86-3.71.25-.19.08-.21.04.06,0,.11,0,.11-.03.07-2-2.87-7.48-1.9-10.59-1.86-.82.04-1.58-.5-1.38-1.42.39-1.82.48-3.76-.16-5.49-.32-.76-.72-1.55-1.52-1.62-.06,0-.12.01-.18.02.16-.04.18-.07.17-.06,0,0-.06.04-.12.08-.11.08-.45.35-.56.44-4.48,3.8-9.43,7.22-15.04,9.32-2.61.97-5.24,1.63-7.85,2.53-2.56.86-5.08,1.86-7.56,2.95l-.82-1.87c2.53-1.11,5.11-2.14,7.73-3.02,2.57-.89,5.26-1.57,7.78-2.51,5.03-1.89,9.55-4.89,13.67-8.33.38-.31,1.05-.88,1.44-1.17.52-.46,1.41-.53,2.09-.33,3.51,1.19,3.6,6.53,2.91,9.49,0,0,0,.04-.01.05.06-.16,0-.56-.14-.74-.1-.15-.19-.22-.26-.27-.17-.1-.18-.1-.28-.12.32.03,1.2-.05,1.56-.07,3.25-.18,8.36-.47,10.65,2.35.92,1.1.86,2.57-.55,3.24-1.95.9-4.12.62-5.87,1.98h0Z"/>
            </g>
            <g>
              <path class="cls-11" d="M299.78,90.76s-5.79-6.96-19.85-9.77c-6.79-1.36-9.69-6.28-10.31-10.97-.83-7.29,3.09-13.59,7.82-15.44,12.36-4.32,25.46,14.85,26.51,23.23,0,0,.52,5.95-2.42,10.72-.92,1.5-1.76,2.22-1.76,2.22Z"/>
              <g>
                <ellipse class="cls-5" cx="280.76" cy="67.94" rx="9.93" ry="11.47"/>
                <ellipse class="cls-10" cx="277.31" cy="67.19" rx="3.44" ry="4.35"/>
                <g class="cls-16">
                  <ellipse class="cls-10" cx="284.46" cy="71.8" rx="1.79" ry="2.77"/>
                </g>
              </g>
            </g>
            <g>
              <path class="cls-11" d="M221.99,90.76s5.79-6.96,19.85-9.77c6.79-1.36,9.69-6.28,10.31-10.97.83-7.29-3.09-13.59-7.82-15.44-12.36-4.32-25.46,14.85-26.51,23.23,0,0-.52,5.95,2.42,10.72.92,1.5,1.76,2.22,1.76,2.22Z"/>
              <g>
                <ellipse class="cls-5" cx="241.01" cy="67.94" rx="9.93" ry="11.47"/>
                <ellipse class="cls-10" cx="244.46" cy="67.19" rx="3.44" ry="4.35"/>
                <g class="cls-16">
                  <ellipse class="cls-10" cx="237.31" cy="71.8" rx="1.79" ry="2.77"/>
                </g>
              </g>
            </g>
          </g>
          <path class="cls-5" d="M261.51,89.1c1-3.19,4.74-5.45,7.88-3.78.41.24.79.51,1.07.89-.9-.17-1.72-.22-2.5-.16-2.51.14-4.43,1.74-6.46,3.05h0Z"/>
        </g>
      </g>
    </g>
  </g>
</svg>