<?xml version="1.0" encoding="UTF-8"?>
<svg id="Layer_1" data-name="Layer 1" xmlns="http://www.w3.org/2000/svg" viewBox="0 0 704.19 174.95">
  <defs>
    <style>
      .cls-1 {
        fill: #0b0957;
        stroke-width: 0px;
      }
    </style>
  </defs>
  <path class="cls-1" d="M72.03,66.5l38.27-8.24c4.23-.91,6.82.81,7.75,5.16l12.62,58.59c.62,2.9-.39,5.53-3.05,7.87-9.17,8.55-23.43,14.91-42.77,19.08-42.08,9.06-67.89-8.54-77.42-52.79C-2.09,51.91,14.97,25.08,58.62,15.68c16.81-3.62,30.89-3.17,42.23,1.34,2.22.92,3.7,1.89,4.43,2.94.73,1.05.97,2.73.71,5.07l-3.01,17.73c-.67,3.94-3.54,5.57-8.63,4.89-7.56-1.03-14.85-.79-21.86.72-11.61,2.5-19.33,6.63-23.14,12.39-3.82,5.76-4.43,14.68-1.83,26.77,2.55,11.85,6.64,19.7,12.28,23.55,5.64,3.85,13.41,4.7,23.33,2.57,3.99-.86,7-1.89,9.02-3.08l-3.83-17.78-10.16,2.19c-4.23.91-6.8-.75-7.72-4.98l-3.36-15.6c-.94-4.35.71-6.99,4.94-7.9h.01Z"/>
  <path class="cls-1" d="M199.73,105.73c8.09-1.13,15.86-4.02,23.33-8.68,3.7-2.14,6.51-1.22,8.44,2.76l5.26,10.88c1.56,3.15.64,5.97-2.76,8.44-9.56,6.7-21.02,10.98-34.37,12.84-18.13,2.52-32.69.03-43.66-7.5-10.98-7.52-17.63-19.68-19.97-36.47-2.29-16.42.53-29.8,8.46-40.14,7.93-10.34,19.73-16.61,35.41-18.79,15.19-2.12,27.63.65,37.31,8.29,9.68,7.64,15.56,18.94,17.64,33.89l1.23,8.82c.58,4.17-1.21,6.54-5.38,7.12l-55.31,7.7c3.99,8.94,12.11,12.55,24.36,10.84h0ZM184.37,54.66c-4.78.67-8.22,2.64-10.32,5.93s-3.02,8.17-2.74,14.62l29.59-4.12-.18-1.29c-1.59-11.39-7.04-16.44-16.35-15.15h0Z"/>
  <path class="cls-1" d="M340.57,108.66c-8.43,9.71-20.66,15.29-36.67,16.75-16.02,1.46-29.04-1.83-39.09-9.86-10.04-8.03-15.84-20.55-17.38-37.54-1.54-17,1.9-30.35,10.33-40.06,8.43-9.71,20.66-15.29,36.67-16.75s29.04,1.83,39.09,9.86c10.04,8.03,15.84,20.55,17.38,37.54,1.54,17-1.9,30.35-10.33,40.06ZM291.07,91.92c2.37,3.51,5.77,5.06,10.2,4.66s7.5-2.54,9.2-6.42,2.18-9.89,1.44-18.02-2.29-13.95-4.66-17.46-5.77-5.06-10.2-4.66-7.5,2.54-9.2,6.42-2.18,9.89-1.44,18.02,2.29,13.95,4.66,17.46Z"/>
  <path class="cls-1" d="M428.05,106.93c6.13.78,12.36.32,18.69-1.37,2.58-.67,4.55-.7,5.9-.09s2.39,2.02,3.11,4.23l5.63,17.55c.58,2.32.55,4.03-.09,5.13-.64,1.11-2.09,2.2-4.34,3.28-10.78,5.37-24.09,7.04-39.91,5.04-19.63-2.49-34.28-9.93-43.93-22.31-9.65-12.38-13.02-30.05-10.11-53,2.93-23.07,10.48-39.38,22.67-48.93,12.18-9.55,28.03-13.09,47.54-10.62,15.58,1.98,27.87,6.84,36.86,14.59,1.91,1.62,3.04,3.04,3.39,4.26.34,1.23-.06,2.89-1.19,4.99l-9.62,15.42c-1.12,1.98-2.45,3.09-3.98,3.33s-3.46-.28-5.79-1.58c-5.12-2.89-10.87-4.75-17.25-5.55-10.06-1.28-17.52.27-22.38,4.64-4.86,4.37-8.05,12.57-9.57,24.6-1.51,11.9-.37,20.62,3.42,26.15s10.77,8.94,20.96,10.23h-.01Z"/>
  <path class="cls-1" d="M576.99,78.47l-9.76,59.69c-.68,4.15-3.1,5.89-7.24,5.21l-21.24-3.47c-3.42-.56-5.3-2.49-5.63-5.81l-.78-5.58c-7.61,6.65-18.37,8.84-32.28,6.56-9.04-1.48-16.01-5.19-20.93-11.13-4.92-5.94-6.57-13.86-4.95-23.75.76-4.64,2.04-8.63,3.84-11.97,1.8-3.34,4.17-5.96,7.11-7.86,2.94-1.9,6.12-3.35,9.55-4.36,3.42-1.01,7.61-1.54,12.58-1.61,4.96-.06,9.85.14,14.66.61,4.81.48,10.58,1.2,17.32,2.17l.45-2.75c1.02-6.23-3.72-10.2-14.22-11.91-7.45-1.22-15.95-.98-25.5.72-4.15.83-6.56-.89-7.24-5.13l-2.18-14.27c-.62-3.86,1.09-6.28,5.13-7.24,12.88-2.9,26.4-3.2,40.57-.88,15.26,2.5,26.34,7.38,33.23,14.65,6.9,7.27,9.4,16.64,7.53,28.12h-.02ZM535,103l1.23-7.51c-8.69-1.29-14.94-1.41-18.75-.34-3.81,1.07-6.07,3.8-6.79,8.2-.48,2.93.03,5.36,1.53,7.3s3.84,3.17,7.01,3.68c9.03,1.48,14.29-2.3,15.77-11.33Z"/>
  <path class="cls-1" d="M635.91,56.2l.3,5.57c3.31-2.95,7.9-4.98,13.78-6.1,5.88-1.11,11.3-1.13,16.25-.04,12.56,2.76,21.18,9.11,25.83,19.06,4.66,9.95,5.12,23.44,1.38,40.48s-9.8,29.1-18.19,36.18c-8.39,7.09-18.87,9.25-31.44,6.5-4.83-1.06-9.55-3.11-14.13-6.14-4.59-3.03-7.66-6.49-9.22-10.38l-4.93,22.47c-.9,4.11-3.41,5.71-7.51,4.81l-25.37-5.56c-4.11-.9-5.71-3.41-4.81-7.51l23.13-105.48c.9-4.11,3.4-5.71,7.51-4.81l22.11,4.85c3.38.74,5.15,2.78,5.31,6.1h0ZM635.96,84.52c-2.94,3.03-5.29,8.53-7.04,16.5s-1.92,13.95-.51,17.93,4.34,6.46,8.82,7.44,8.14-.02,11.01-3,5.19-8.52,6.97-16.61,1.98-14.1.62-18c-1.36-3.91-4.28-6.35-8.74-7.33s-8.18.04-11.12,3.07h-.01Z"/>
</svg>