<svg width="127" height="34" viewBox="0 0 127 34" fill="none" xmlns="http://www.w3.org/2000/svg">
<g filter="url(#filter0_d_60_1044)">
<path d="M13.9529 11.9066L20.7643 10.4435C21.5172 10.2819 21.9782 10.5873 22.1437 11.3597L24.3898 21.7635C24.5002 22.2785 24.3204 22.7455 23.847 23.161C22.2149 24.6792 19.6768 25.8085 16.2346 26.549C8.74508 28.1578 4.15133 25.0326 2.45515 17.1751C0.760742 9.3159 3.79714 4.55172 11.5661 2.88257C14.558 2.23977 17.064 2.31967 19.0824 3.12051C19.4775 3.28387 19.7409 3.45612 19.8708 3.64256C20.0008 3.82901 20.0435 4.12733 19.9972 4.54284L19.4615 7.69114C19.3422 8.39077 18.8314 8.68021 17.9255 8.55946C16.5799 8.37656 15.2824 8.41918 14.0348 8.68731C11.9684 9.13123 10.5943 9.86459 9.91622 10.8874C9.23632 11.9102 9.12775 13.4941 9.59051 15.6409C10.0444 17.7451 10.7723 19.139 11.7761 19.8227C12.78 20.5063 14.1629 20.6573 15.9285 20.279C16.6387 20.1263 17.1744 19.9434 17.5339 19.7321L16.8522 16.5749L15.0439 16.9638C14.2911 17.1254 13.8336 16.8306 13.6699 16.0795L13.0719 13.3094C12.9046 12.537 13.1982 12.0682 13.9511 11.9066H13.9529Z" fill="#1C1C1C"/>
</g>
<g filter="url(#filter1_d_60_1044)">
<path d="M36.6815 18.8726C38.1214 18.6719 39.5044 18.1588 40.8339 17.3313C41.4924 16.9513 41.9926 17.1147 42.3361 17.8214L43.2723 19.7533C43.5499 20.3127 43.3862 20.8134 42.781 21.252C41.0795 22.4417 39.0398 23.2017 36.6637 23.532C33.4369 23.9795 30.8455 23.5373 28.893 22.2002C26.9387 20.8649 25.7551 18.7057 25.3387 15.7243C24.9311 12.8086 25.433 10.4327 26.8444 8.59666C28.2558 6.7606 30.356 5.64724 33.1468 5.26013C35.8504 4.88369 38.0645 5.37555 39.7874 6.73218C41.5102 8.08881 42.5568 10.0953 42.927 12.75L43.1459 14.3162C43.2491 15.0566 42.9305 15.4775 42.1884 15.5805L32.3441 16.9477C33.0542 18.5352 34.4995 19.1762 36.6798 18.8726H36.6815ZM33.9477 9.80413C33.097 9.9231 32.4847 10.2729 32.1109 10.8571C31.7372 11.4413 31.5734 12.3079 31.6233 13.4532L36.8898 12.7216L36.8577 12.4925C36.5748 10.47 35.6047 9.57329 33.9477 9.80236V9.80413Z" fill="#1C1C1C"/>
</g>
<g filter="url(#filter2_d_60_1044)">
<path d="M61.7489 19.3927C60.2485 21.1169 58.0717 22.1078 55.2222 22.367C52.3709 22.6263 50.0536 22.0421 48.2648 20.6162C46.4779 19.1903 45.4456 16.9671 45.1715 13.9502C44.8974 10.9315 45.5096 8.56099 47.01 6.83679C48.5104 5.11259 50.6872 4.12176 53.5367 3.86251C56.3862 3.60325 58.7053 4.18746 60.4941 5.61334C62.281 7.03922 63.3133 9.26239 63.5874 12.2793C63.8615 15.298 63.2493 17.6685 61.7489 19.3927ZM52.9387 16.4202C53.3605 17.0435 53.9656 17.3187 54.7541 17.2477C55.5426 17.1767 56.089 16.7967 56.3916 16.1077C56.6941 15.4187 56.7796 14.3515 56.6479 12.9079C56.5161 11.4642 56.2403 10.4308 55.8185 9.80753C55.3966 9.18426 54.7915 8.90903 54.003 8.98005C53.2146 9.05108 52.6681 9.43108 52.3656 10.12C52.063 10.809 51.9776 11.8762 52.1093 13.3198C52.241 14.7635 52.5169 15.7969 52.9387 16.4202Z" fill="#1C1C1C"/>
</g>
<g filter="url(#filter3_d_60_1044)">
<path d="M77.3189 19.0857C78.4099 19.2242 79.5187 19.1425 80.6454 18.8424C81.1046 18.7234 81.4552 18.7181 81.6955 18.8264C81.9358 18.9347 82.1209 19.1851 82.249 19.5775L83.2511 22.6939C83.3543 23.1058 83.3489 23.4095 83.235 23.6048C83.1211 23.8019 82.8631 23.9955 82.4626 24.1872C80.5439 25.1408 78.175 25.4373 75.3593 25.0822C71.8654 24.64 69.258 23.3189 67.5404 21.1206C65.8229 18.9223 65.2231 15.7847 65.741 11.7094C66.2625 7.61292 67.6063 4.71676 69.7759 3.02098C71.9438 1.32519 74.7648 0.696595 78.2373 1.13519C81.0102 1.48678 83.1977 2.34977 84.7977 3.72593C85.1377 4.01359 85.3388 4.26574 85.4011 4.48237C85.4616 4.70078 85.3904 4.99555 85.1893 5.36844L83.4771 8.10656C83.2778 8.45815 83.041 8.65525 82.7687 8.69787C82.4964 8.74049 82.1529 8.64815 81.7382 8.41731C80.8269 7.90413 79.8035 7.57386 78.668 7.4318C76.8775 7.20451 75.5497 7.47974 74.6847 8.25572C73.8197 9.0317 73.2519 10.4878 72.9814 12.6239C72.7126 14.737 72.9156 16.2854 73.5901 17.2674C74.2647 18.2493 75.507 18.8548 77.3206 19.0839L77.3189 19.0857Z" fill="#1C1C1C"/>
</g>
<g filter="url(#filter4_d_60_1044)">
<path d="M103.827 14.032L102.09 24.6312C101.969 25.3681 101.539 25.677 100.802 25.5563L97.0214 24.9401C96.4127 24.8407 96.0781 24.498 96.0194 23.9085L95.8805 22.9176C94.5261 24.0985 92.611 24.4873 90.1352 24.0825C88.5263 23.8197 87.2857 23.1609 86.41 22.1061C85.5343 21.0514 85.2407 19.645 85.529 17.8889C85.6643 17.0649 85.8921 16.3564 86.2125 15.7634C86.5328 15.1703 86.9547 14.705 87.4779 14.3677C88.0012 14.0303 88.5672 13.7728 89.1777 13.5935C89.7864 13.4141 90.5321 13.32 91.4167 13.3076C92.2995 13.2969 93.1698 13.3324 94.0259 13.4159C94.882 13.5011 95.909 13.629 97.1086 13.8012L97.1887 13.3129C97.3703 12.2066 96.5266 11.5017 94.6578 11.198C93.3318 10.9814 91.8189 11.024 90.1192 11.3259C89.3806 11.4733 88.9516 11.1679 88.8306 10.415L88.4426 7.88105C88.3322 7.19563 88.6366 6.76591 89.3557 6.59545C91.6481 6.08049 94.0544 6.02722 96.5764 6.43918C99.2925 6.88311 101.265 7.74965 102.491 9.04058C103.719 10.3315 104.164 11.9953 103.831 14.0338L103.827 14.032ZM96.354 18.3878L96.5729 17.0543C95.0262 16.8252 93.9138 16.8039 93.2357 16.9939C92.5576 17.1839 92.1553 17.6687 92.0272 18.45C91.9418 18.9703 92.0325 19.4017 92.2995 19.7462C92.5665 20.0907 92.983 20.3091 93.5472 20.3997C95.1544 20.6625 96.0906 19.9913 96.354 18.3878Z" fill="#1C1C1C"/>
</g>
<g filter="url(#filter5_d_60_1044)">
<path d="M114.314 10.0776L114.368 11.0667C114.957 10.5428 115.774 10.1824 116.82 9.9835C117.867 9.7864 118.832 9.78285 119.713 9.9764C121.948 10.4665 123.482 11.5941 124.31 13.3609C125.139 15.1277 125.221 17.5231 124.556 20.5489C123.89 23.5747 122.811 25.7161 121.318 26.9733C119.825 28.2323 117.96 28.6159 115.722 28.1275C114.863 27.9393 114.023 27.5753 113.207 27.0373C112.39 26.4992 111.844 25.8848 111.566 25.1941L110.689 29.1841C110.529 29.9139 110.082 30.198 109.352 30.0382L104.837 29.0509C104.105 28.8911 103.821 28.4454 103.981 27.7173L108.098 8.98734C108.258 8.25753 108.703 7.97341 109.434 8.13323L113.369 8.99444C113.971 9.12584 114.286 9.48808 114.314 10.0776ZM114.323 15.1064C113.8 15.6444 113.382 16.621 113.07 18.0363C112.759 19.4515 112.729 20.5134 112.98 21.2201C113.231 21.9268 113.752 22.3672 114.549 22.5412C115.347 22.7152 115.998 22.5377 116.509 22.0085C117.02 21.4793 117.433 20.4956 117.75 19.0591C118.066 17.6225 118.102 16.5553 117.86 15.8628C117.618 15.1685 117.098 14.7353 116.304 14.5612C115.511 14.3872 114.848 14.5683 114.325 15.1064H114.323Z" fill="#1C1C1C"/>
</g>
<defs>
<filter id="filter0_d_60_1044" x="0" y="1.45361" width="26.4214" height="28.5054" filterUnits="userSpaceOnUse" color-interpolation-filters="sRGB">
<feFlood flood-opacity="0" result="BackgroundImageFix"/>
<feColorMatrix in="SourceAlpha" type="matrix" values="0 0 0 0 0 0 0 0 0 0 0 0 0 0 0 0 0 0 127 0" result="hardAlpha"/>
<feOffset dy="1"/>
<feGaussianBlur stdDeviation="1"/>
<feComposite in2="hardAlpha" operator="out"/>
<feColorMatrix type="matrix" values="0 0 0 0 0 0 0 0 0 0 0 0 0 0 0 0 0 0 0.7 0"/>
<feBlend mode="normal" in2="BackgroundImageFix" result="effect1_dropShadow_60_1044"/>
<feBlend mode="normal" in="SourceGraphic" in2="effect1_dropShadow_60_1044" result="shape"/>
</filter>
<filter id="filter1_d_60_1044" x="23.2017" y="4.1377" width="22.2017" height="22.563" filterUnits="userSpaceOnUse" color-interpolation-filters="sRGB">
<feFlood flood-opacity="0" result="BackgroundImageFix"/>
<feColorMatrix in="SourceAlpha" type="matrix" values="0 0 0 0 0 0 0 0 0 0 0 0 0 0 0 0 0 0 127 0" result="hardAlpha"/>
<feOffset dy="1"/>
<feGaussianBlur stdDeviation="1"/>
<feComposite in2="hardAlpha" operator="out"/>
<feColorMatrix type="matrix" values="0 0 0 0 0 0 0 0 0 0 0 0 0 0 0 0 0 0 0.7 0"/>
<feBlend mode="normal" in2="BackgroundImageFix" result="effect1_dropShadow_60_1044"/>
<feBlend mode="normal" in="SourceGraphic" in2="effect1_dropShadow_60_1044" result="shape"/>
</filter>
<filter id="filter2_d_60_1044" x="43.1079" y="2.80273" width="22.543" height="22.624" filterUnits="userSpaceOnUse" color-interpolation-filters="sRGB">
<feFlood flood-opacity="0" result="BackgroundImageFix"/>
<feColorMatrix in="SourceAlpha" type="matrix" values="0 0 0 0 0 0 0 0 0 0 0 0 0 0 0 0 0 0 127 0" result="hardAlpha"/>
<feOffset dy="1"/>
<feGaussianBlur stdDeviation="1"/>
<feComposite in2="hardAlpha" operator="out"/>
<feColorMatrix type="matrix" values="0 0 0 0 0 0 0 0 0 0 0 0 0 0 0 0 0 0 0.7 0"/>
<feBlend mode="normal" in2="BackgroundImageFix" result="effect1_dropShadow_60_1044"/>
<feBlend mode="normal" in="SourceGraphic" in2="effect1_dropShadow_60_1044" result="shape"/>
</filter>
<filter id="filter3_d_60_1044" x="63.561" y="0" width="23.8608" height="28.2273" filterUnits="userSpaceOnUse" color-interpolation-filters="sRGB">
<feFlood flood-opacity="0" result="BackgroundImageFix"/>
<feColorMatrix in="SourceAlpha" type="matrix" values="0 0 0 0 0 0 0 0 0 0 0 0 0 0 0 0 0 0 127 0" result="hardAlpha"/>
<feOffset dy="1"/>
<feGaussianBlur stdDeviation="1"/>
<feComposite in2="hardAlpha" operator="out"/>
<feColorMatrix type="matrix" values="0 0 0 0 0 0 0 0 0 0 0 0 0 0 0 0 0 0 0.7 0"/>
<feBlend mode="normal" in2="BackgroundImageFix" result="effect1_dropShadow_60_1044"/>
<feBlend mode="normal" in="SourceGraphic" in2="effect1_dropShadow_60_1044" result="shape"/>
</filter>
<filter id="filter4_d_60_1044" x="83.4219" y="5.16528" width="22.5161" height="23.4165" filterUnits="userSpaceOnUse" color-interpolation-filters="sRGB">
<feFlood flood-opacity="0" result="BackgroundImageFix"/>
<feColorMatrix in="SourceAlpha" type="matrix" values="0 0 0 0 0 0 0 0 0 0 0 0 0 0 0 0 0 0 127 0" result="hardAlpha"/>
<feOffset dy="1"/>
<feGaussianBlur stdDeviation="1"/>
<feComposite in2="hardAlpha" operator="out"/>
<feColorMatrix type="matrix" values="0 0 0 0 0 0 0 0 0 0 0 0 0 0 0 0 0 0 0.7 0"/>
<feBlend mode="normal" in2="BackgroundImageFix" result="effect1_dropShadow_60_1044"/>
<feBlend mode="normal" in="SourceGraphic" in2="effect1_dropShadow_60_1044" result="shape"/>
</filter>
<filter id="filter5_d_60_1044" x="101.938" y="7.09009" width="25.0625" height="25.9912" filterUnits="userSpaceOnUse" color-interpolation-filters="sRGB">
<feFlood flood-opacity="0" result="BackgroundImageFix"/>
<feColorMatrix in="SourceAlpha" type="matrix" values="0 0 0 0 0 0 0 0 0 0 0 0 0 0 0 0 0 0 127 0" result="hardAlpha"/>
<feOffset dy="1"/>
<feGaussianBlur stdDeviation="1"/>
<feComposite in2="hardAlpha" operator="out"/>
<feColorMatrix type="matrix" values="0 0 0 0 0 0 0 0 0 0 0 0 0 0 0 0 0 0 0.7 0"/>
<feBlend mode="normal" in2="BackgroundImageFix" result="effect1_dropShadow_60_1044"/>
<feBlend mode="normal" in="SourceGraphic" in2="effect1_dropShadow_60_1044" result="shape"/>
</filter>
</defs>
</svg>
