<?xml version="1.0" encoding="UTF-8"?>
<svg xmlns="http://www.w3.org/2000/svg" viewBox="0 0 345 122">
  <defs>
    <style>
      .cls-1 {
        fill: #287712;
      }

      .cls-1, .cls-2, .cls-3, .cls-4, .cls-5, .cls-6, .cls-7, .cls-8, .cls-9, .cls-10, .cls-11, .cls-12, .cls-13, .cls-14 {
        stroke-width: 0px;
      }

      .cls-2 {
        fill: #262626;
      }

      .cls-3 {
        fill: #f9ead5;
      }

      .cls-15 {
        isolation: isolate;
      }

      .cls-16 {
        fill: #fff;
        font-family: Fredoka-SemiBold, Fredoka;
        font-size: 26.4px;
        font-variation-settings: 'wght' 600, 'wdth' 100;
        font-weight: 600;
      }

      .cls-4 {
        fill: #a2643b;
      }

      .cls-5 {
        fill: #3199c4;
      }

      .cls-5, .cls-13 {
        opacity: .2;
      }

      .cls-6 {
        fill: #93d8f5;
      }

      .cls-7 {
        opacity: .4;
      }

      .cls-7, .cls-13 {
        fill: #2d4661;
        mix-blend-mode: multiply;
      }

      .cls-8 {
        fill: #ffc871;
      }

      .cls-17 {
        stroke: #2d4661;
        stroke-width: 1.5px;
      }

      .cls-17, .cls-18 {
        fill: none;
        stroke-linecap: round;
        stroke-miterlimit: 10;
      }

      .cls-9 {
        fill: #e29e9e;
      }

      .cls-10 {
        fill: #ba274b;
      }

      .cls-11 {
        fill: #0f4c00;
      }

      .cls-12 {
        fill: #bd6a1e;
      }

      .cls-18 {
        stroke: #fff;
        stroke-width: .5px;
      }

      .cls-14 {
        fill: #a55717;
      }
    </style>
  </defs>
  <g class="cls-15">
    <g id="BACKGROUND">
      <rect class="cls-6" x="-18.76" y="-76.93" width="377.02" height="251.34"/>
    </g>
    <g id="OBJECTS">
      <path class="cls-5" d="M317.48-52.39c48.89,9.64,24.41,67.15,13.77,98.76-10.64,31.61,51.36,76.88,26.62,112.71-24.74,35.83-73.31,1.13-138.74-8.89s-125.81,35.95-163.2,19.33c-37.39-16.62-5.27-75.92-37.07-106.77C-12.93,31.91-1.95-12.77,31.86-33c33.81-20.23,99.94,14.63,150.52,10.62,50.57-4.01,95.43-37.83,135.1-30.01Z"/>
      <path class="cls-8" d="M285.19-454.45c-8.89-.59-17.41-1.86-26.13-4.2-22.33-6-44.14-15.37-68.69-8.48-6.62,1.85-15.91-.52-23.95-1.45-12.2-1.43-23.08-8.98-36.03-7.1-5.71.83-11.86,1.24-17.25-1.72-12.85-7.07-28.7-2.37-41.24-10.81-2.38-1.61-6.23-1.4-7.99,1.42-2.28,3.62,2,3.71,3.59,5.34.75.77,1.2,2.74.74,3.6-.96,1.79-25.59,2.1-27.49.68-6.27-4.68-13.15-7.79-20.72-10.08-6.64-2.01-11.64,3.31-17.24,2.48-13.56-2.01-27.44.55-39.81-11.03-11.04-10.32-28.43-6.52-42.97-7.66-4.8-.37-11.31,4.95-17.87,5.49-3.56.3-7.09,2.08-10.59,1.95-9.85-.39-15.59,10.31-25.64,9.08-2.65-.32-4.64.05-5.74,3.57-.63,2.04-4.83,4.94-6.41,4.41-12.34-4.12-13.53-1.37-5.62,8.14.29.35-.1,1.27-.18,1.94-.41-.21-.97-.3-1.21-.62-1.79-2.49-4.52-4.83-5.04-7.57-.77-4.04-1.28-7.51-5.97-8.43-7.64-1.51-10.07,4.28-13.31,9.26-2.23,3.44.12,4.99,1.99,6.96.34.35.57.8.86,1.2-.58.05-1.18.22-1.74.13-5.93-.91-11.84-2.56-17.77-2.54-3.24,0-11.18-7.63-9.94,4.19.04.33-2.03.91-3.14,1.34-8.19,3.1-17.19-2.51-25.21,2.34l.05-.05c-2.21,1.63-4.37,3.32-6.63,4.87-1.39.95-3.94,2.29-4.27.16-1.07-6.85-6.22-6.81-10.55-6-4.73.89-2.14,5.71-2.73,8.8-.71,3.75-4.68,1.19-6.4,3.42-.87,1.12-1.05-.07-.87-1.12,1.11-6.62-2.93-8.8-8.42-10.68-10.95-3.77-22.64-4.87-33.21-10.32-6.48-3.33-14.42-3.25-21.36-1.21-10.04,2.95-20.92,3.28-30.08,8.94-3.51,2.17-13.74-1.73-8.71,8.98.29.6-1.17,1.97-1.73,3.04-5.98,11.56-17.93,15.61-27.88,22.15-8.33,5.48-3.66,12.6-.96,18.11,2.3,4.71,8.33,6.84,13.28,3.1,7.87-5.94,9.65-1.17,10.98,5.3.28,1.33.17,2.75.24,4.11-1.09-1.05-2.73-1.91-3.16-3.17-2.17-6.32-5.38-4.78-9.32-1.75-4.01,3.08-2.45,7.34-1.61,10.51,1.59,5.9-1.6,7.54-5.87,8.51-5.12,1.15-9.2,3.13-11.82,8.09-1.77,3.34-6.12,4.42-9.07,3.52-2.88-.89,1.25-2.88,1.17-4.86-.1-2.45-.98-3.92-2.64-5.73-4.67-5.09-10.16-10.52-10.86-17.29-.59-5.77-4.58-12.3-10.51-11.93-4.88.3-9.96,2.34-10.69,6.45-1.04,5.71.51,11.92,5.91,16.08,4.07,3.15,4.09,3.4,2.32,5.02-5.65,5.18-3.37,13.03-6.41,19.21-1.14,2.32,2.51,2.66,4.87,1.75,6.62-2.57,13.43-4.29,20.62-3.96.67.02,1.35-.01,2.03-.01-.19.38-.28,1.02-.57,1.13-5.59,2.18-11.08,4.81-16.86,6.23-3.18.78-7.07.07-8.07,3.94-1.02,3.93,2.77,4.85,5.43,6.41,6.73,3.98,7.72,9.83,5.25,16.84-2.07,5.91-6.41,2.94-9.99,2.68-4.82-.33-9.62-1.39-14.41-1.31-4.87.07-10.33,1.27-9.63,7.74.7,6.38-.72,12.05-1.97,18.14-1.01,4.87-4.4,13.35,4.73,14.91,8.7,1.49,10.52,3.51,5.84,11.04-1.8,2.89-3.88,5.55-7.06,7.39-5.88,3.39-10.53,7.71-9.85,15.57.26,3.11-.81,6.77-3.77,8.07-11.77,5.16-18.6,14.95-24.06,25.68-4.42,8.67-12.61,16.3-6.84,28.26,3.19,6.61,1.44,14.33-2.28,21.38-4.08,7.73-.42,21.1,6.36,27.05,1.4,1.22,2.67,2.79,3.48,4.46,5.95,12.12,13,23.24,24.99,30.47,3.39,2.04,7.02,6.2,10.52,4.43,13.84-6.94,30.26.96,43.88-8.77,4.78-3.41,13.79-4.4,18.03,2.96,2.91,5.07,6.02,6.35,11.22,5.54,8.68-1.36,12.26,4.24,10.58,12.8-1.38,6.95-5.97,14.92-2.08,21.2,4.52,7.28,9.75,14.41,13.14,22.13,5.97,13.63,10.35,28.02,2.82,42.8-4.76,9.32-5.72,19.09-1.14,28.35,4.77,9.67,8.32,19.32,9.62,30.15,1.17,9.79,1.11,20.34,9.29,28.13,4.77,4.55,6.03,11.22,8.12,17.14,1.88,5.3-2.25,11.98,4.07,16.63,6.56,4.82,11.75-1.6,17.69-1.44,26.77.69,40.43-16.23,51.07-37.65,2.09-4.24-.13-10.59,5.34-12.8,9.54-3.85,11.65-11.46,9.16-19.8-3.65-12.18,3.05-16.69,12.29-20.84,12.81-5.73,21.15-34.13,13.74-45.5-5.87-8.99-4.2-18.96-2.54-28.41,2.33-13.28,12.29-22.2,21.78-30.37,18.55-15.99,30.64-35.44,35.9-59.23.84-3.77.76-8-4.62-7.4-5.06.57-10.02,2.32-14.93,3.84-16.23,5.02-16.23,5.08-21.7-10.45-.01-.01-.03-.03-.04-.04,0-.02-.01-.03-.01-.05-11.02-8.42-20.45-18.24-26.84-30.7-.62-1.22-1.55-2.52-1.56-3.78-.11-16.98-14.21-27.78-18.86-42.75-.58-1.83-2.28-3.32-3.45-4.95,2.55.9,6.7,1.14,7.4,2.82,5.26,12.67,18.49,20.69,20.35,35.32.64,4.98,5.98,6.79,8.64,10.62,7.1,10.25,11.11,21.63,14.32,33.43l.03.03s.01.04.02.06c2.39,2.22,3.93,6.53,8.14,4.92,7.47-2.86,14.55-6.84,22.12-9.37,8.69-2.91,14.05-11.11,22.2-13.93,11.44-3.96,26.32-19.4,27.05-30.89.08-1.34-.86-2.96-1.76-4.1-2.89-3.66-6.08-6.86-10.92-8.15-3.04-.82-4.58-4.12-3.85-6.54.59-1.97,2.69.99,4.4,1.11,4.94.33,9.89,1.51,14.81,1.43,16.65-.29,32.5.04,41.44,18.18,1.98,4.01,7.17,8.77,13.07,7.37,3.71-.87,3.64.53,3.94,2.89,2.95,23.33,13.61,43.78,24.2,64.2,3.15,6.07,7.34,8.16,11.15-.07,1.19-2.57,3.25-4.74,4.92-7.08.26-.26.52-.51.77-.76,3.28-7.91,2.58-16.06,1.42-24.22-.34-2.46-1.19-5.49,1.8-6.22,7.83-1.88,10.3-8.96,14.63-14.19,4.8-5.78,9.79-12.63,15.23-16.27,5.12-3.42,15.51-9.73,22.72,2.23,3.81,6.33,10.48,10.9,10.77,19.27.09,2.61-1.07,5.84,2.57,7.09,3.37,1.14,6.7,1.68,9.41-1.73.83-1.04,2.49-2.81,3.44-.07,1.99,5.64,3.26,11.56,5.64,17.02,4.87,11.16-1.65,24.28,7.84,35.13,6.83,7.79,7.4,19.96,15.02,27.96h.01c2.45,1.25,4.85,2.59,7.34,3.75,2.51,1.17,5.46.44,4.69-2.33-2.62-9.45-1.73-19.96-11.71-27.04-7.71-5.47-13.46-13.96-12.35-24.58.39-3.73-5.15-14.61,7.66-6.9,5.85,3.52,11.75,8.22,13.49,12.91,4.15,11.2,7.97,4.54,12.35,1.5,1.39-.96,2.31-2.69,3.77-3.46,8.57-4.52,10.83-11.04,8.58-20.53-2.21-9.29-7.19-16.43-14.04-22.31-6.42-5.5-7.97-10.22-1.73-17.13,3.15-3.49,6.13-4.37,9.15-1.99,3.11,2.46,2.02,5.37-1.4,7.77-2.48,1.74-3.27,4.85-.33,7.03,3.71,2.76,7.79,4.18,11.26-.56,1.82-2.48,4.54-5.57.65-7.89-5.24-3.12-2.16-4.5.65-6.2,12.17-7.35,28.95-7.81,35.05-24.23,3.03-8.16,6.96-15.8,5.74-25.05-1.6-11.98-9.45-20.18-16.59-28.69-3.55-4.24-3.09-6.4,1.44-8.59,1.65-.8,3.04-1.85,2.84-3.9-.2-2.07-1.48-3.73-3.42-4.12-3-.62-6.82-1.98-9.06-.77-5.36,2.92-6.19-4.97-10.41-3.46,1.48-1.32,3-2.57,4.41-3.96.46-.46.64-1.21.88-1.85.56-1.58,1.5-3.01,3.28-2.72,1.83.29,1.24,2.16,1.46,3.43,1.05,5.91,4.11,6.23,8.32,2.92,5.14-4.03,10.76-2.08,12.32,4.2.38,1.54,1.5,4.03,2.46,4.11,6.92.64,8.39,6.55,9.91,11.13,3.23,9.85,8.95,6.18,14.48,3.48,7.18-3.5,1.01-7.57-.17-11.07-.76-2.26-2.94-4.36-5-5.8-7.96-5.56-8.3-12.62-5.04-20.89,1.67-4.23,3.15-7.34,8.28-3.83,1.93,1.32,3.99.73,5.47-1.21,7.36-9.7,8.71-31.76,2.7-42.09-.76-1.3-2.63-2.52-1.14-4.47,1.12.97,2.55,1.75,3.33,2.95,4.48,6.94,8.85,13.97,13.16,21.02,1.42,2.34,3.01,4.62,6.01,3.78,1.83-.51,4.29-1.82,4.8-3.34.92-2.75-2.18-3.82-3.83-5.47-1.79-1.77-6.24-3.46-3.16-6.36,3.52-3.32.95-4.85-.65-6.71-2.22-2.59-5.06-4.65-7.26-7.25-7.2-8.47-17.78-12.39-24.56-15.11-8.4-3.37-17.7-.41-25.37-5.46-.88-.57-3.32-1.07-2.06-2.02,5.09-3.87,4.02-10.36,7.05-14.93,2.72-4.1,27.47-6.06,33.13-3.1,4.78,2.51,9.95,1.14,14.48-.22,3.64-1.1-.74-4.54.04-6.64.79-2.16-1.09-5.57,1.79-6.31,2.53-.64,5.07.71,7.38,2.76,3.42,3.02,7.69,7.63,10.91-.54.54-1.35,1.62-1.81,2.88-.8,1.27,1.03,1.23,2.19.52,3.67-2.25,4.62-6.05,9.32-6.1,14.01-.08,7.93,3.23,15.15,10.14,20.47,5.97,4.6,12.88,8.05,17.64,14.25,1.54,2,3.23,5.22,6.63,3.64,3.26-1.51,3.67-4.82,3.35-8.05-.79-7.92,1.26-15.76-4.24-23.63-3.35-4.79-4.82-9.96-11.52-10.35-1.83-.1-2.28-1.31-2.59-2.67-.35-1.54.14-3.18,1.79-3.09,4.77.26,9.31-3.4,14.28-.39,3.71,2.25,6.59,1.03,8-3.24,1.51-4.63,5.86-6.63,9.41-8.96,2.08-1.38,6.75,1.44,7.42-3.18.64-4.4-3.49-5.34-6.4-7.07-1.09-.63-2.71-2.03-2.57-2.78.4-1.98,2.52-1.47,3.92-1.28,6.46.88,12.32,4.31,19.06,4.24,2.8-.04,3.89-.47,4.93-3.56,3.48-10.21-3.59-11.08-10.07-11.51ZM-271.38-448.78c1.69-.16,2.61.02,2.66,1.43.04,1.26-.46,2-1.78,1.43-1.01-.42-1.91-1.08-2.86-1.63.81-.51,1.62-1.01,1.98-1.23ZM-282.46-448.66c1.4.44,3.85.31,3.35,2.85-.22,1.08.62,2.91-1.41,3.27-1.99-.75-3.14-2.09-3.35-4.17-.1-1.04-.08-2.41,1.41-1.96ZM-367.74-393.46c.33-1.46.78-1.96,2.63-2.22,5.67-.77,12.22-1.79,14.78-7.28,2.32-4.97,2.59-10.74,7.76-14.34,1.61-1.12.28-3.05-1.25-4.26-7.16-5.69-3.74-9.93,2.11-13.49,3.79-2.31,8.04-3.81,9.46-8.83.7-2.44,3.42-2.6,5.67-2.62.62,0,1.24.83,2.39,1.66-1.69,1.4-2.87,2.61-4.27,3.48-10.99,6.86-11.21,16.42-.46,23.14,1.54.96,2.63,1.83,2.34,4.05-.27,2.07-1.09,2.56-2.99,3.27-4.88,1.82-6.14,6.08-5.82,10.92.34,5.12-1.26,7.6-6.5,4.62-1.79-1.02-3.23-.73-4.84.08-6.12,3.06-12.57,4.04-19.38,3.22-1.19-.13-2.01.26-1.64-1.41ZM-265.05-266.62c-.17.99-1.96,2.54-2.85,2.45-16.06-1.69-33.19,3.94-47.9-7.36-5.81-4.46-15.7.66-16.47,8.04-.23,2.25-1.48,5.27-3.35,3.79-4.71-3.76-11.25-2.83-15.7-7.93-4.01-4.6-11.09-4.77-17.15-6.01-3.81-.78-9.25-.56-5.46-7.8,2.03-3.88,2.3-9.57-.31-13.34-2.6-3.74-7-2.67-11.61-1.55-9.44,2.31-19.39-.53-29.14,1.96-4.78,1.22-9.6,2.58-13.35,5.16-5.63,3.87-10.99,1.13-16.46,1.34-.51.02-1.52-.77-1.48-.86.72-1.8,2.46-1.83,3.93-1.73,9,.65,15.89-4.23,18.2-11.6,2.86-9.13,11.9-12.35,15.23-18.25,4.79-8.43,8.64-8.25,15.72-7.07,1.74.29,4.06-1.72,5.85-3.05,5.12-3.77,7.3-3.05,9.85,3.41,2.42,6.12,9.38,9.13,15.33,12.02,3.79,1.83,8.82,3.41,8.5,7.74-.37,5.06-5.87,4.03-9.71,4.4-2,.2-4.48-.07-5.11,2.55-.65,2.7,1.77,3.44,3.48,4.47,3.31,1.99,7.17,6.44,10.47,3.47,4.3-3.85,6.89-9.67,9.98-14.77.44-.72-1.61-2.57,1.46-1.92,3.74.81,3.81-2.51,2.59-4.19-2.62-3.61-3.87-9.14-8.75-10.1-6.51-1.28-9.74-6.24-14-10.15-1.27-1.17-2.27-2.48-1.22-4,1.05-1.51,2.67.02,3.02.61,4.05,6.87,12.27,7.6,17.89,12.36,7.32,6.2,7.67,15.44,12.24,22.71,1.45,2.31,1.88,5.69,3.83,7.14,2.93,2.16,7.95,6.99,9.92,3.36,1.81-3.38,6.21-8.24,2.77-13.7-1.17-1.84-4.61-4.75-1.22-6.31,2.6-1.2,7.18-7.22,9.81,2.37,2.58,9.39,7.73,20.52,20.28,19.43,7.54-.66,14.66,5.69,22.39.09,4.05-2.94,2.92,1.53,3.04,3.56,1.58,7.13-3.42,12.74-4.54,19.23ZM-236.86-321.1c-1.48,3.51-6.12,1.99-9.42,2.37-4.28.47-8.53-.45-12-2.48-10.12-5.91-20.34.91-30.47-.81-4.62-.79-6.27-3.14-5.64-7.43.84-5.73,4.32-10.53,7.83-14.46,2.48-2.77,6.84-.53,8,3.82,1.12,4.2,3.66,7,7.77,4.96,10-4.94,17.89-1.1,25.55,4.91.94.75,1.92,1.5,2.65,2.44,1.87,2.37,7.47,2.52,5.71,6.66ZM-196.2-310.03c.63-6.39-7.1-14.22-12.25-20.4-3.87-4.65-3.4-8.65.06-11.68,4.62-4.05,9.95-8.61,17.05-5.31,1.44.67,2.16,2.76.5,4.41-7.77,7.8-7.14,12.77,1.31,20.3,6.69,5.98,9.21,14.53,11.45,22.96.83,3.13-1.16,3.94-5.16,3.67-3.23-4.49-14.26-.76-12.95-13.96ZM-157.59-233.4c-3.66,5.08-7.03,10.52-14.68,9.79-.94-.34-2.68-.62-2.72-1.03-.87-11.07-12.83-14.3-16.38-23.37-.66-1.67-2.87-3.95.25-5.19,2.12-.85,3.71.56,4.93,2.61,6.3,10.55,13.65,19.2,27.96,14.44.87-.29,2.13.6,3.21.94-.87.59-2,.99-2.57,1.79Z"/>
      <path class="cls-11" d="M534.8-75.4c-11.53-1.13-22.99-3.43-34.39-4.58-25.89-2.59-51.76,2.26-77.65,3.88-5.19.33-10.43-.18-15.72,1.04-1.32.31-5.03-4.25-9.03-4.54-18.18-1.31-36.16.61-54.24,2.1-9.8.81-19.01,5.06-29.19,3.86-4.35-.51-10.09.44-12.39,4.89-1.85,3.6,1.7,6.55,4.47,9.17,1.17,1.1,1.24,3.37,1.81,5.11-1.22-.07-2.88.35-3.57-.29-3.12-2.89-5.63-1.15-8.24.63,0,.02,0,.05,0,.07-.02,0-.05,0-.07,0-1.22,1.61-4.39,2.18-3.49,4.81.93,2.71,3.84,2.65,6.3,2.86.46.04.93-.02,1.38.06,2.25.37,4.48.76,6.72,1.15-1.1.24-2.22.73-3.29.63-1.03-.08-1.96-.89-2.99-1.17-3.21-.92-5.96,1.03-8.92,1.41-1.04.13-3.59-2.47-3.42-3.49.67-4.05,3.82-5.77,7.71-6.25,0-.02.03-.03.04-.05,0,0,.03-.02.04-.03.37-1.92.52-3.93,1.23-5.72.54-1.41,2.14-2.73.71-4.13-2.23-2.16-5.21-1.58-7.94-1.31-1.67.18-2.55,1.28-2.76,3.17-.5,4.81-2.53,8.58-7.78,9.65-.43.42-.86.83-1.29,1.25.63,1.02,1.09,2.24,1.96,2.98.8.68,2.03.86,3.08,1.25-1.24,0-2.55-.27-3.71.04-9.21,2.46-19.11-3.55-28.11,2.38-1.61,1.05-4.69,1.2-4.31,3.37.41,2.34,2.27,4.59,3.95,6.48,1.28,1.44,3.01.64,4.67-.24,2.41-1.29,5.05-2.18,7.59-3.23,0-.02.02-.04.04-.06.03,0,.05,0,.07,0,2.29-1.59,4.46-4.3,7.38-.91h.03s0,0,0,.02c1.52-.07,3.09-.36,4.57-.15,3.62.53,11.27-3.68,7.44,6.11-.5,1.29.59,2.76,2.07,3.23,1.19.38,2.5.42,3.76.61-1.58,1.81-2.91,3.96-4.8,5.34-1.82,1.31-3.36-.93-4.89-1.36-7.51-2.13-6.56-8.58-8.14-13.78h-.02l-.02-.02c-2.46.31-4.92.61-7.38.91-.02,0-.04.03-.06.04-.02,0-.04.02-.06.03-4.86,6.64-14.28,6.1-19.15,10.9-5.54,5.45-10.5,5.97-16.75,4.68-3.48-.72-6.79-2.31-10.17-3.51,3.83-2.9,6.7.39,9.82,1.62,5.09,1.99,7.91-2.56,11.66-4.11,2.89-1.18.67-3.67-.43-5.79-.93-1.79,1.15-2.85,2.63-3.76,1.84-1.12,5.26-1.39,4.09-4.56-1.17-3.14-4.34-1.79-6.89-2.1-4.37-.52-7.51,2.84-12.33,2.34-6.4-.66-10.93-3.98-16.35-6.13-12.73-5.07-23.89,1.16-34.72,7.22-2.06,1.16-2.65,2.76-1.72,5.1.89,2.26,1.96,3.88,4.7,3.39,3.64-.65,7.3-1.3,10.95-1.97.55-.1,1.1-.23,1.66-.35-.02.44.02.89-.07,1.32-1.53,7.23-4.96,10.09-12.58,6.65-11.32-5.12-23.04-5.28-35.45-3.57-8.41,1.16-16.54,7-24.85,4.02-7.89-2.81-15.84-4.27-23.94-5.19-12.33-1.4-24.02-5.15-37.37-1.87-11.04,2.71-21.59,8.95-33.66,7.75-2.55-.26-4.08,1.41-3.36,4.66,1,4.44-.56,7.8-5.66,5.59-6.37-2.77-11.11.4-16.13,3.06-2.05,1.09-3.33,3.02-2.44,5.45.85,2.31,2.91,2.48,5.06,2.26,1.7-.17,3.43-.4,5.11-.23,1.73.17,4.92-.99,4.9.7-.02,2.21-3.27,2.7-5.31,2.48C-5.68-3.35-14,2.93-23.07,7.11c-6.73,3.1-1.62,8.1-1.86,12.09-.2,3.23,3.1,1.72,5.12,1.75.94,0,1.87.69,2.81,1.07-.77.66-1.44,1.59-2.34,1.96-4.18,1.67-8.47,3.04-12.58,4.84-1.69.74-3.21,2.46-2.21,4.54,1.02,2.12,2.91.95,4.51.51,4.48-1.21,9.39-1.64,13.38-3.77,6.37-3.4,13.77,2.66,19.56-2.82,2.21-2.09,4.38-4.23,6.58-6.34,4.78-4.6,10.6.07,16.1-1.96,6.98-2.56,13.75-7.62,22.56-3.07,6.41,3.32,15.2,2.83,13.93,13.77-.22,1.93.62,4.77,2.02,5.96,5.88,4.98,5.54,14.58,3.56,17.12-5.18,6.66-3.23,11.55-1.06,17.74.66,1.88-.85,4.77-1.88,6.95-4.9,10.27-14.16,17.5-19.18,27.84-3.47,7.14-5.18,31.06.57,35.28,8.29,6.1,6.94,13.9,8.34,21.89.83,4.78.8,12.71,2.03,13.68,7.52,5.93,6.87,16.06,13.06,22.3,1.96,1.98,3.73,2.92,6.02,1.57,2.29-1.35,2.39-3.8.97-5.71-7.1-9.58-6.45-21.99-11.82-32.19-.56-1.06.31-2.93.69-4.37.07-.22,1.48-.4,1.56-.25.59,1.21,1.4,2.51,1.41,3.78.13,10.79,7.17,18.77,11.87,27.45,4.18,7.71,11.65,13.74,7.49,23.98-.83,2.05,1,3.63,2.48,5.12,3.87,3.87,8.64,6.28,13.21,9.13,9.04,5.65,17.3,13.03,29.28,9.41,2.57-.77,4.05.88,5.28,2.82,3.23,5.12,7.74,7.95,13.76,9.29,6.52,1.46,14.13,3.28,16.07,10.55,2.01,7.6,7.54,12.01,12.91,15.52,4.11,2.68,10.42,12.34,16.42.8,1.1-2.12,3.28-2.46,4.67.87,5.34,12.83,2.33,24.08-7.88,34.08-4.99,4.89-8.03,11.81-3.76,18.89,1.42,2.35,1.3,3.04-.35,4.77-4.52,4.73-4.42,11.54-.61,14.89,7.37,6.5,10.82,14.82,15.19,22.97,6.47,12.06,12.38,24.36,26.49,30.39,7.72,3.3,11.95,10.61,12.1,19.92.22,14.21,1.01,28.43,1.94,42.62.7,10.66,5.94,20.99,2.39,32-1.45,4.51-.75,8.88.98,13.19,2.18,5.39,2.65,10.78,1.98,16.71-.48,4.21,1.26,9.01,6.09,11.12,1.09.47,3.48-1.68,3.28,1.3-.17,2.48,3,5.03-.48,7.55-1.74,1.26-4.1,4.99-2.26,5.7,4.97,1.94,3.21,6.12,4.46,9.21,3.06,7.57,7.63,13.96,13.49,19.7,10.33,10.12,22.17,15.58,36.83,13.71,1.01-.12,2.26-1.1,2.74-2.03.7-1.31-.45-2.26-1.57-2.95-3.43-2.09-6.78-4.32-10.31-6.23-9.48-5.11-11.07-12.62-5.09-21.33,3.17-4.61,3.57-9.4-3.23-11.85-2.06-.74-5.52-2.09-2.76-4.56,3.18-2.83,3.19-6.25,3.82-9.59.89-4.7-3.89-11.75,5.64-12.67.29-.03.78-1.74.56-2.49-1.7-5.61.6-6.87,5.95-6.63,4.35.2,8.06-2.23,10.11-6.34,1.93-3.87,1.44-7.44-1.63-10.69-.85-.9-1.03-2.41-1.53-3.64,1.19.15,2.41.15,3.55.47,2.41.67,4.47.2,6.63-1.1,8.44-5.09,10.48-14.65,15.41-22.15,3.34-5.06,7.48-10.39,4.84-17.46-2.35-6.29,1.83-9.09,6.16-12.77,5.84-4.97,14.98-4.33,19.08-9.53,8.27-10.48,11.34-23.59,11.74-37.06.14-5.02-1.33-9.88,3.37-14.38,4.38-4.18,8.07-9.62,10.53-15.18,5.94-13.47,2.41-20.23-14.36-30.24-4.5-2.68-8.71-6.21-14.48-5.33-4.35.66-7.86-1.49-11.32-3.4-5.54-3.07-11.19-5.57-17.25-7.55-2.92-.95-7.61-1.5-8.18-6.37-1.54-13.1-9.07-28.54-24.52-26.83-2.94.33-5.42-.46-7.59-2.65-5.26-5.32-10.17-11.19-16.17-15.53-3.83-2.76-7.79-7.68-13.88-5.26-3.19,1.27-6.21-.07-9.13-.07-6.37,0-10.09-5.83-16.23-5.66-2.01.06-7.12,4.56-5.95-2.97.24-1.57-2.9-2.45-3.68-1.48-5.03,6.2-14.52,6.11-18.65,13.55-2.14,3.87-4.91,6.38-9.67,2.88-2.69-1.98-5.86-2.43-9.27-.95-8.22,3.56-12.02,1.07-12.55-8.09-.25-4.35.1-8.62,1.43-12.87,2.39-7.71-2.03-12.98-10.24-12.57-2.02.1-4.03.31-6.05.38-2.69.11-4.26-.1-3.26-3.88,1.68-6.35,4.73-11.93,8.03-17.44,1.45-2.42,1.49-4.4-.66-6.15-5.04-4.14-16.79-.61-18.73,5.56-2.23,7.1-12.62,11.85-18.65,7.58-5.93-4.22-10.33-11.95-8.03-18.25,4.68-12.83,6.53-29.6,23.56-32.73,10.73-1.98,21.79-3.61,32.67-4.32,6.43-.42,14.33,2.95,11.74,13.39-.5,2.01,1.21,4.74,2.29,6.94,1.25,2.52,2.98,5.21,6.11,5.09,3.34-.13,4.15-3.37,5.1-5.96,1.34-3.61,1.29-7.43.15-11.01-3.39-10.61.15-17.79,9.94-22.75,5.21-2.65,9.82-6.49,14.89-9.43,7.36-4.27,4.88-13.93,11.66-19.27,7.22-5.68,11.8-14.76,22.63-15.03,1.73-.05,3.63-.74,3.96-2.69,1.31-7.73,8.19-9.09,13.65-11.97,1.55-.82,4.46-2.92,3.86,2.22-.4,3.48,3.34,4.5,5.68,2.87,6.44-4.49,14.06-6.24,20.9-9.73,3.34-1.71,5.81-4.2,3.51-7.64-2.64-3.96-4.87-.08-7.14,1.42-2.87,1.91-5.96,3.21-8.62-.18-2.46-3.11-.45-4.97,2.18-6.68,2.72-1.79,2.53-4.15,1.35-6.96-.49-1.19-3.79-.77-1.89-2.47,2.1-1.86,2.72.79,3.89,2.21,2.4,2.93,8.54,4.72,8.7,2.14.48-7.71,5.47-4.2,8.7-5.04,2.67-.7,4.52-3.75,7.78-2.69-2.11,2.68-4.19,5.36-6.33,8-.37.46-1.04.66-1.56,1.02-1.48,1.03-2.6,2.34-2.12,4.28.45,1.79,2.23,1.76,3.53,2.5,4.95,2.82,11.07-1.68,15.21,1.78,6.25,5.21,7.91.32,7.86-3.64-.05-3.56,3.21-10.12-5.32-10.55-3-.15-2.41-2.85-.33-5.09,7.01-7.5,4.63-17.55-4.89-20.97-2.23-.79-4.16-2.46-3.75-4.14,1.43-5.9-2.77-10.71-2.53-16.27.08-1.77-.07-3.57-2.04-4.26-1.83-.63-3.44.27-4.6,1.55-2.34,2.56-4.97,4.65-8.16,6.03-1.47.64-2.85,1.28-4.14-.41-1.16-1.5-.29-2.44.58-3.64,2.4-3.32,1.33-5.68-2.16-7.45-1.44-.74-2.91-1.74-3.91-2.99-4.44-5.48-19.11-3.76-22.58,2.15-1.91,3.24-3.15,7.48-7.57,9-1.99.69-3.36,2.77-2.07,4.94,4.56,7.67-1.27,9.82-6.4,12.18-5.36,2.47-11.79,3.5-11.31,11.84.11,1.9-2,4.09-3.42,5.88-.86,1.08-2.19,2.84-3.83,1.59-1.31-.98-1.88-2.63-1.34-4.6,2.15-7.76,2.95-14.84-8.45-15.24-1.18-.04-2.53-1.15-3.44-2.09-3.91-4.04-8.1-6.85-14.04-4.41-.5.21-1.27-.21-1.91-.34,2.73-3.8-2.04-8.61,3.02-12.88,13.09-11.05,30.64-12.99,44.1-22.96,1-.7,2-1.39,3.01-2.09,3.92-1.09,7.78-2.78,11.77-3.15,9.91-.94,14.3-5.37,14.03-14.93-.06-1.98,1.1-.35,1.72-.33,5.26.26,9.2,4.41,14.62,4.71,2.27.12,4.42,2.9,6.53,4.59.11.09-.47,1.61-.99,1.84-5.46,2.26-9.78,7.33-16.75,6.05-3.43-.62-6.83,1.24-6.42,5.46.44,4.51,4.23,3.99,7.23,3.22,4.32-1.1,6.8.33,9.95,3.56,3.38,3.48,8.37,5.75,13.06,7.46,3.33,1.22,4.25-1.99,4.34-4.89,0-.03.8-.14,1.18-.04,9.37,2.58,8.07-3.29,7.1-8.93-.23-1.31-.99-3.36-.44-3.83,1.59-1.38,2.52.95,3.84,1.45,4.19,1.58,7.86-.39,11.51-1.85,1.59-.63,2.26-2.89,1.23-3.99-5.3-5.66-10.2-11.67-15.3-17.45-2.94-3.34-7.41-5.9-10.15-9.72-1.83-2.56-3.79-3.78-6.79-4.1-1.87-.2-3.96,1.24-5.65-.62,1.9-.41,3.79-.88,5.7-1.23,2.23-.42,5.16-.07,5.39-3.2.21-2.89-2.5-3.08-4.59-3.6-.57-.15-1.09-.44-1.63-.66.76-.07,1.63-.44,2.24-.18,8.17,3.59,15.28-1.11,21.74-4.16,13.12-6.2,27.23-8.13,40.89-11.96.04-.02.07-.05.11-.07.07-.02.16-.04.23-.06,2.82-1.3,5.58-2.81,8.88-2.4.2.02.39.13.59.2-3.16.73-6.31,1.45-9.47,2.19-.06.04-.13.07-.2.09-.05,0-.1.03-.15.04-6.51,4.79-13.86,6.96-21.88,7.17-2,.05-4.3-.32-5.4,1.86-1.21,2.42.83,3.82,2.02,5.64,3.31,5.08,7.85,5.42,12.98,4,8.98-2.48,17.41,2.21,17.17,9.82-.07,2.18-2.34,4.79-1.67,6.4,2.26,5.42-1.73,9.89-3.39,13.22-4.37,8.75-7.74,16.23.15,24.44.73.76,1.51,1.85,1.53,2.8.23,9.66,9.5,7.14,14.37,10.22,4.23,2.68,7.15-2.48,9.3-5.68,5.18-7.69,13.27-13.94,20.58-16.32,15.52-5.06,30.06-13.27,46.78-15.19,7.57-.88,16.29-3.48,16.72-14.31.03-.86,1.46-1.8,2.41-2.46,4.9-3.45,11.44-5.79,9.23-13.93-.34-1.22.42-.68.96-.65,6.27.38,6.93-2.99,4.39-7.42-1.17-2.06.18-1.9,1-2.55,5.28-4.22,11.55-4.78,17.95-5.15,2.12-.12,4.79-.6,5.1-3.18.32-2.67-2.38-3.14-4.25-3.32ZM195.08-20.93c-2.56.42-1.74-1.96-2.32-3.15-.49-1.03.03-1.38,1.7-1.22.83.76,2.03,1.84,3.23,2.93-.87.5-1.69,1.3-2.61,1.44ZM207.22-19.49c-.91-.89-1.84-1.8-2.75-2.69,2.05-.9,4.08-1.85,6.16-2.7.45-.18,1.03-.02,1.18-.02-1.51,1.78-3.06,3.6-4.6,5.42Z"/>
      <path class="cls-1" d="M1251.67-12.45c-19.52-1.91-38.92-5.81-58.24-7.75-43.85-4.39-87.64,3.84-131.49,6.57-8.79.55-17.66-.3-26.63,1.77-2.24.52-8.52-7.2-15.29-7.69-30.78-2.21-61.24,1.03-91.84,3.55-16.59,1.37-32.2,8.57-49.43,6.53-7.37-.87-17.09.74-20.98,8.29-3.12,6.09,2.87,11.1,7.58,15.53,1.99,1.86,2.1,5.71,3.06,8.65-2.07-.11-4.88.58-6.04-.49-5.29-4.89-9.53-1.94-13.95,1.07,0,.03-.02.08-.02.11-.03,0-.08.02-.11.02-2.07,2.73-7.43,3.69-5.9,8.14,1.58,4.59,6.5,4.48,10.67,4.85.77.06,1.58-.03,2.34.09,3.8.63,7.59,1.29,11.38,1.94-1.86.41-3.76,1.23-5.57,1.07-1.74-.14-3.31-1.5-5.07-1.99-5.43-1.56-10.09,1.75-15.1,2.38-1.77.22-6.08-4.18-5.79-5.9,1.14-6.85,6.47-9.77,13.05-10.59.02-.03.05-.05.06-.08.02-.02.05-.03.06-.05.63-3.25.88-6.66,2.08-9.69.92-2.38,3.63-4.62,1.2-6.99-3.77-3.66-8.82-2.68-13.45-2.21-2.82.3-4.32,2.16-4.67,5.37-.85,8.14-4.28,14.52-13.18,16.34-.73.71-1.45,1.4-2.18,2.11,1.07,1.72,1.85,3.79,3.31,5.05,1.36,1.15,3.44,1.45,5.21,2.11-2.1,0-4.32-.46-6.28.06-15.59,4.17-32.36-6.01-47.6,4.02-2.73,1.78-7.94,2.04-7.29,5.71.69,3.96,3.85,7.77,6.69,10.97,2.16,2.45,5.1,1.09,7.91-.41,4.09-2.18,8.55-3.69,12.85-5.48.02-.03.03-.06.06-.09.05,0,.08-.02.13-.02,3.88-2.7,7.56-7.28,12.5-1.55h.05s0,.02.02.03c2.57-.11,5.22-.62,7.73-.25,6.12.9,19.08-6.23,12.6,10.35-.85,2.18.99,4.67,3.5,5.46,2.02.65,4.23.71,6.36,1.03-2.67,3.06-4.92,6.71-8.13,9.04-3.08,2.23-5.7-1.58-8.29-2.3-12.72-3.6-11.11-14.52-13.78-23.33h-.03s-.02-.02-.03-.03c-4.17.52-8.33,1.03-12.5,1.55-.03.02-.06.05-.09.06-.03.02-.06.03-.09.05-8.22,11.24-24.18,10.32-32.43,18.45-9.38,9.23-17.77,10.1-28.36,7.92-5.89-1.22-11.49-3.91-17.22-5.95,6.49-4.91,11.35.66,16.64,2.75,8.62,3.36,13.4-4.34,19.74-6.96,4.89-2,1.14-6.22-.73-9.8-1.58-3.03,1.94-4.83,4.45-6.36,3.11-1.89,8.9-2.35,6.93-7.72-1.97-5.32-7.35-3.03-11.66-3.55-7.4-.88-12.72,4.81-20.88,3.96-10.84-1.12-18.51-6.74-27.68-10.39-21.56-8.59-40.45,1.96-58.79,12.23-3.49,1.96-4.48,4.67-2.92,8.63,1.5,3.82,3.31,6.57,7.95,5.75,6.17-1.1,12.36-2.21,18.55-3.33.93-.17,1.86-.39,2.81-.6-.03.74.03,1.51-.13,2.24-2.59,12.25-8.4,17.08-21.31,11.25-19.16-8.67-39.02-8.93-60.02-6.05-14.24,1.96-28,11.85-42.08,6.8-13.35-4.77-26.82-7.23-40.53-8.79-20.88-2.37-40.67-8.73-63.28-3.17-18.69,4.59-36.55,15.15-56.99,13.12-4.32-.44-6.91,2.38-5.68,7.89,1.69,7.51-.95,13.21-9.58,9.47-10.78-4.69-18.81.68-27.31,5.18-3.47,1.85-5.63,5.11-4.14,9.23,1.44,3.91,4.92,4.2,8.57,3.82,2.87-.28,5.81-.68,8.65-.39,2.94.28,8.33-1.67,8.3,1.18-.03,3.74-5.54,4.58-9,4.2-18.42-2.02-32.5,8.62-47.85,15.69-11.4,5.26-2.75,13.72-3.16,20.47-.33,5.48,5.26,2.92,8.66,2.97,1.59.02,3.17,1.17,4.77,1.82-1.31,1.12-2.45,2.7-3.96,3.31-7.07,2.83-14.35,5.15-21.31,8.19-2.86,1.25-5.43,4.17-3.74,7.69,1.72,3.58,4.92,1.61,7.64.87,7.59-2.05,15.89-2.78,22.65-6.39,10.78-5.76,23.31,4.5,33.13-4.78,3.74-3.54,7.42-7.17,11.14-10.73,8.1-7.78,17.95.11,27.26-3.31,11.82-4.34,23.28-12.89,38.2-5.19,10.86,5.62,25.74,4.8,23.58,23.31-.38,3.27,1.06,8.08,3.43,10.09,9.96,8.43,9.38,24.68,6.03,28.99-8.78,11.27-5.48,19.56-1.8,30.04,1.12,3.19-1.44,8.08-3.19,11.77-8.3,17.39-23.97,29.62-32.48,47.14-5.87,12.09-8.78,52.59.96,59.74,14.03,10.32,11.76,23.53,14.13,37.07,1.41,8.1,1.36,21.53,3.44,23.17,12.74,10.04,11.63,27.19,22.11,37.77,3.31,3.35,6.31,4.94,10.2,2.65,3.88-2.29,4.04-6.44,1.64-9.67-12.03-16.23-10.92-37.23-20.01-54.52-.95-1.8.52-4.96,1.17-7.4.11-.38,2.51-.68,2.64-.43.99,2.05,2.37,4.25,2.38,6.41.22,18.28,12.14,31.79,20.11,46.48,7.09,13.05,19.73,23.26,12.69,40.61-1.4,3.47,1.69,6.14,4.2,8.67,6.55,6.55,14.63,10.64,22.36,15.47,15.31,9.56,29.29,22.06,49.58,15.94,4.36-1.31,6.85,1.48,8.93,4.78,5.46,8.67,13.1,13.46,23.3,15.74,11.05,2.48,23.93,5.56,27.21,17.87,3.41,12.86,12.77,20.34,21.86,26.28,6.96,4.55,17.65,20.9,27.81,1.36,1.86-3.58,5.56-4.17,7.91,1.47,9.04,21.73,3.95,40.77-13.34,57.7-8.44,8.29-13.59,20-6.36,31.99,2.4,3.98,2.19,5.15-.6,8.08-7.65,8.02-7.48,19.54-1.03,25.22,12.48,11,18.32,25.1,25.73,38.89,10.95,20.42,20.96,41.24,44.86,51.45,13.07,5.59,20.23,17.96,20.49,33.73.38,24.07,1.7,48.14,3.28,72.18,1.18,18.06,10.05,35.54,4.04,54.18-2.46,7.64-1.28,15.04,1.66,22.33,3.69,9.12,4.48,18.26,3.35,28.3-.82,7.13,2.13,15.26,10.31,18.83,1.85.79,5.89-2.84,5.56,2.19-.28,4.2,5.08,8.52-.82,12.78-2.95,2.13-6.94,8.44-3.84,9.66,8.41,3.28,5.43,10.37,7.54,15.59,5.18,12.82,12.93,23.64,22.84,33.37,17.49,17.14,37.55,26.39,62.36,23.22,1.7-.2,3.82-1.86,4.64-3.44,1.18-2.23-.76-3.84-2.65-4.99-5.81-3.54-11.47-7.31-17.46-10.54-16.05-8.65-18.75-21.37-8.62-36.11,5.37-7.81,6.04-15.93-5.48-20.06-3.49-1.25-9.34-3.54-4.67-7.72,5.38-4.8,5.4-10.57,6.47-16.24,1.5-7.96-6.58-19.9,9.55-21.45.49-.05,1.33-2.95.95-4.21-2.87-9.5,1.01-11.63,10.07-11.22,7.37.33,13.65-3.77,17.12-10.73,3.27-6.55,2.45-12.6-2.76-18.1-1.44-1.53-1.75-4.09-2.59-6.17,2.02.25,4.09.25,6.01.79,4.09,1.14,7.58.33,11.22-1.86,14.3-8.62,17.74-24.81,26.09-37.5,5.65-8.57,12.67-17.6,8.19-29.56-3.98-10.65,3.09-15.39,10.43-21.62,9.9-8.41,25.36-7.34,32.31-16.13,14-17.74,19.21-39.95,19.87-62.75.24-8.51-2.26-16.73,5.71-24.35,7.42-7.09,13.67-16.29,17.84-25.71,10.05-22.81,4.09-34.25-24.32-51.2-7.62-4.55-14.76-10.51-24.53-9.03-7.37,1.12-13.31-2.53-19.16-5.76-9.38-5.19-18.96-9.44-29.22-12.78-4.94-1.61-12.88-2.54-13.86-10.78-2.6-22.19-15.36-48.33-41.53-45.42-4.97.55-9.19-.77-12.85-4.48-8.9-9.01-17.22-18.96-27.38-26.29-6.49-4.67-13.19-13.01-23.5-8.9-5.4,2.15-10.51-.13-15.47-.13-10.78,0-17.09-9.86-27.48-9.58-3.41.09-12.06,7.72-10.07-5.03.41-2.65-4.91-4.15-6.23-2.51-8.52,10.5-24.59,10.35-31.58,22.95-3.63,6.55-8.32,10.8-16.37,4.88-4.56-3.35-9.93-4.12-15.69-1.61-13.92,6.03-20.36,1.82-21.24-13.7-.43-7.37.17-14.6,2.41-21.8,4.04-13.05-3.44-21.99-17.35-21.29-3.43.17-6.82.52-10.24.65-4.56.19-7.21-.17-5.52-6.57,2.84-10.75,8.02-20.2,13.59-29.53,2.46-4.1,2.53-7.45-1.12-10.42-8.54-7.01-28.43-1.03-31.71,9.41-3.77,12.03-21.37,20.06-31.58,12.83-10.04-7.15-17.49-20.23-13.6-30.9,7.92-21.72,11.06-50.13,39.9-55.43,18.17-3.35,36.9-6.11,55.32-7.31,10.89-.71,24.26,4.99,19.89,22.68-.85,3.41,2.05,8.02,3.88,11.74,2.11,4.26,5.05,8.82,10.34,8.62,5.65-.22,7.02-5.71,8.63-10.09,2.27-6.11,2.18-12.58.25-18.64-5.75-17.96.25-30.13,16.83-38.53,8.82-4.48,16.62-10.99,25.22-15.97,12.47-7.23,8.27-23.6,19.74-32.62,12.23-9.61,19.98-25,38.32-25.46,2.94-.08,6.14-1.25,6.71-4.56,2.23-13.08,13.87-15.39,23.11-20.27,2.62-1.39,7.54-4.94,6.53,3.76-.68,5.89,5.65,7.62,9.61,4.86,10.91-7.61,23.8-10.56,35.39-16.48,5.65-2.9,9.83-7.12,5.95-12.94-4.47-6.71-8.25-.14-12.09,2.4-4.86,3.24-10.09,5.43-14.6-.3-4.17-5.27-.76-8.41,3.69-11.32,4.61-3.03,4.28-7.02,2.29-11.79-.84-2.02-6.42-1.31-3.2-4.18,3.55-3.16,4.61,1.34,6.58,3.74,4.06,4.96,14.46,7.99,14.73,3.63.82-13.05,9.26-7.12,14.73-8.54,4.51-1.18,7.65-6.34,13.18-4.56-3.57,4.53-7.09,9.08-10.72,13.54-.63.77-1.77,1.12-2.64,1.72-2.51,1.75-4.4,3.96-3.58,7.24.76,3.03,3.77,2.98,5.98,4.23,8.38,4.78,18.75-2.84,25.76,3.01,10.57,8.82,13.4.54,13.31-6.16-.08-6.03,5.43-17.14-9.01-17.87-5.08-.25-4.09-4.83-.55-8.62,11.87-12.71,7.84-29.72-8.29-35.51-3.77-1.34-7.04-4.17-6.35-7.01,2.42-9.99-4.69-18.14-4.28-27.54.14-3-.11-6.05-3.46-7.21-3.09-1.07-5.82.46-7.8,2.62-3.96,4.34-8.41,7.88-13.83,10.21-2.49,1.09-4.83,2.16-7.01-.69-1.96-2.54-.49-4.14.98-6.17,4.07-5.62,2.26-9.61-3.66-12.61-2.45-1.25-4.92-2.95-6.63-5.07-7.51-9.28-32.36-6.36-38.23,3.65-3.24,5.49-5.33,12.66-12.82,15.25-3.36,1.17-5.7,4.69-3.5,8.37,7.72,12.99-2.15,16.64-10.84,20.63-9.08,4.18-19.97,5.92-19.15,20.04.19,3.22-3.39,6.93-5.79,9.96-1.45,1.83-3.71,4.81-6.49,2.7-2.21-1.66-3.19-4.45-2.27-7.78,3.65-13.13,5-25.13-14.32-25.81-2-.06-4.28-1.94-5.82-3.54-6.63-6.83-13.72-11.6-23.77-7.47-.85.35-2.15-.36-3.24-.58,4.62-6.44-3.46-14.58,5.11-21.81,22.16-18.7,51.88-22,74.67-38.87,1.69-1.18,3.39-2.35,5.1-3.54,6.64-1.85,13.18-4.7,19.93-5.33,16.78-1.59,24.21-9.09,23.75-25.28-.09-3.35,1.86-.6,2.9-.55,8.9.44,15.58,7.47,24.76,7.97,3.85.21,7.48,4.91,11.06,7.77.19.16-.79,2.73-1.67,3.11-9.25,3.84-16.56,12.41-28.36,10.24-5.81-1.06-11.57,2.1-10.87,9.25.74,7.64,7.17,6.75,12.25,5.46,7.31-1.86,11.51.55,16.84,6.03,5.73,5.89,14.17,9.74,22.11,12.63,5.63,2.07,7.2-3.36,7.35-8.29,0-.05,1.36-.24,2-.06,15.86,4.37,13.67-5.57,12.03-15.12-.39-2.23-1.67-5.68-.74-6.49,2.7-2.34,4.26,1.61,6.5,2.46,7.1,2.68,13.31-.66,19.49-3.13,2.7-1.07,3.82-4.89,2.08-6.76-8.98-9.58-17.27-19.76-25.9-29.55-4.97-5.65-12.55-9.99-17.19-16.46-3.09-4.34-6.42-6.39-11.49-6.94-3.17-.35-6.71,2.1-9.56-1.04,3.22-.69,6.42-1.48,9.66-2.08,3.77-.71,8.74-.11,9.12-5.41.35-4.89-4.23-5.21-7.77-6.09-.96-.25-1.85-.74-2.76-1.12,1.28-.13,2.76-.74,3.79-.3,13.84,6.08,25.87-1.88,36.81-7.04,22.22-10.5,46.1-13.76,69.24-20.25.06-.03.13-.08.19-.13.13-.03.27-.06.39-.09,4.78-2.19,9.45-4.77,15.04-4.06.33.03.66.22.99.35-5.35,1.23-10.69,2.46-16.04,3.71-.11.06-.22.11-.33.16-.08.02-.17.05-.25.06-11.02,8.11-23.47,11.79-37.04,12.14-3.39.08-7.28-.54-9.14,3.16-2.05,4.1,1.4,6.47,3.42,9.55,5.6,8.6,13.29,9.19,21.99,6.77,15.2-4.2,29.48,3.74,29.07,16.64-.11,3.69-3.96,8.11-2.82,10.84,3.84,9.17-2.94,16.75-5.75,22.38-7.4,14.82-13.1,27.48.25,41.38,1.23,1.28,2.56,3.13,2.59,4.74.39,16.35,16.08,12.09,24.34,17.3,7.17,4.55,12.11-4.2,15.75-9.61,8.78-13.02,22.48-23.61,34.85-27.64,26.28-8.57,50.9-22.48,79.22-25.73,12.82-1.48,27.59-5.89,28.31-24.23.05-1.45,2.48-3.05,4.07-4.17,8.3-5.84,19.37-9.8,15.63-23.6-.57-2.07.71-1.15,1.63-1.1,10.62.65,11.73-5.07,7.43-12.56-1.99-3.49.3-3.22,1.69-4.32,8.93-7.15,19.56-8.1,30.4-8.71,3.58-.21,8.11-1.01,8.63-5.38.54-4.51-4.02-5.32-7.2-5.62ZM676.42,79.79c-4.34.71-2.95-3.31-3.93-5.33-.84-1.75.05-2.34,2.87-2.07,1.4,1.28,3.44,3.11,5.48,4.96-1.47.85-2.86,2.19-4.42,2.45ZM696.99,82.23c-1.55-1.51-3.11-3.05-4.66-4.56,3.47-1.53,6.91-3.14,10.43-4.58.76-.3,1.74-.03,2-.03-2.56,3.01-5.18,6.09-7.78,9.17Z"/>
      <g>
        <path class="cls-10" d="M231.24,31.65l-9.94,25.59,16.4,31.31s-35.77,16.11-102.85,2.28c-67.08-13.83-126.48,10.9-126.48,10.9V25.01s70.06-8.21,114.67,3.57c44.61,11.78,108.21,3.07,108.21,3.07Z"/>
        <line class="cls-17" x1="8.49" y1="25.01" x2="8.49" y2="148.49"/>
        <path class="cls-13" d="M8.36,63.4v38.33s59.42-24.73,126.49-10.9c67.09,13.83,102.86-2.27,102.86-2.27l-5.41-10.32c-14.39,8.37-41.32,12.99-91.08-4.7-61.39-21.83-107.81-16.55-132.86-10.14Z"/>
      </g>
      <g>
        <g>
          <path class="cls-14" d="M319.74,111s8.74-10.74,12.41-20.66c3.68-9.92,5.36-20.61,6.94-27.78,1.58-7.17,1.94-21.85-5.66-22.34,0,0-4.37-4.09-8.41-.06,0,0-4.97-1.52-5.18,5.2,0,0-3.81-.32-3.02,6.38.29,1.98,2.08,4.37,2.08,4.37,0,0-2.06,16.34-12.96,23.28,0,0,4.12,27.74,13.79,31.61Z"/>
          <path class="cls-3" d="M328.91,47.25s5.72.32,7.45,3.86c1.73,3.54-1.01,5.56-5.31,4.77-4.3-.79-6.01,1.67-7.84.7-1.83-.98-2.48-9.15,5.7-9.33Z"/>
          <path class="cls-3" d="M334.07,47.13c1.09.07,3.02-2.58,1.67-4.04-1.35-1.45-5.2,3.81-1.67,4.04Z"/>
          <path class="cls-3" d="M330,45.3c.98-.47,1.39-3.73-.49-4.34-1.89-.62-2.7,5.85.49,4.34Z"/>
          <path class="cls-3" d="M325.79,45.3c.52-.96-1.09-3.82-2.97-3.2-1.88.63,1.3,6.31,2.97,3.2Z"/>
          <path class="cls-3" d="M321.63,50.99c.52-.96-1.09-3.82-2.98-3.2-1.88.63,1.31,6.31,2.98,3.2Z"/>
        </g>
        <path class="cls-4" d="M311.45,35.3s8.98-4.34,8.25-12.64c-.73-8.3-14.88-18.74-23.11-4.89l14.85,17.53Z"/>
        <path class="cls-3" d="M309.62,33.28s6.55-3.17,6.02-9.22c-.53-6.05-10.86-13.67-16.86-3.56l10.83,12.78Z"/>
        <path class="cls-4" d="M229.58,36.21s-10.19-5.33-9.41-13.62c.78-8.29,15-18.64,23.13-4.74l-13.73,18.36Z"/>
        <path class="cls-3" d="M230.19,33.28s-6.53-3.21-5.97-9.26c.57-6.05,10.95-13.6,16.88-3.46l-10.92,12.72Z"/>
        <path class="cls-12" d="M220.58,83.7c9.03-16.33,6.87-21.98,6.87-21.98-.25-5.6-2.44-16.27,1.77-27.41,4.21-11.14,17.89-20.22,17.89-20.22-.06-5.91,13.03-3.86,13.03-3.86,0,0-2.56-1.94-1.51-3.77,1.05-1.83,6.98,2.42,6.98,2.42,0,0-3.09-3.02-.11-4.2,2.98-1.18,8.62,3.88,8.62,3.88-.84-5.09,5.1-.54,12.92,3.56,7.83,4.1,11.76,7.03,15.1,10.11,10.43,9.61,11.94,19.32,12.06,30.94.11,11.62,3.1,25.77,3.1,25.77,0,0,4.2,18.12,5.94,32.51,1.74,14.38,2.11,28.2-1.08,43.47-3.2,15.27-9.21,32.27-23.7,35.51-5.22,1.17-8.66.08-10.94-1.82-4.04-3.36-4.39-9.26-4.4-9.55,0-.38-3.19-21.12-4.13-27.25-.16-1.06-.26-1.69-.26-1.69-8.72,2.43-18.42-.16-20.05-.63-.15-.04-.26-.08-.26-.08,0,0-1.01,24.08-1.85,31.91-.36,3.4-2.29,6.67-5.49,8.28-4.18,2.11-10.55,1.4-18.49-5.53-9.53-8.34-11.91-27.5-12.45-38.91-.22-4.66-.14-8.01-.12-8.81,0-.12,0-.2,0-.2-2.58-.98-3.5-1.71-3.5-1.71-9.65-6.8-4.99-34.44,4.05-50.76Z"/>
        <path class="cls-13" d="M322.17,154.92c-3.22,15.25-9.22,32.27-23.7,35.5-5.22,1.19-8.67.1-10.96-1.81-4.03-3.35-4.38-9.25-4.38-9.54,2.26,1.48,5.45,2.22,10.06,1.16,14.51-3.22,20.5-20.25,23.7-35.5,3.22-15.28,2.84-29.08,1.1-43.49-1.74-14.38-5.93-32.5-5.93-32.5,0,0-3-14.15-3.1-25.76-.06-5.51-.45-10.64-1.93-15.51,6.09,7.96,7.12,16.18,7.19,25.69.13,11.61,3.1,25.76,3.1,25.76,0,0,4.19,18.12,5.93,32.53,1.74,14.38,2.13,28.18-1.06,43.46Z"/>
        <path class="cls-3" d="M281.62,56.05c-3.13-8.43-13.07-8.97-13.07-8.97-9.64-.62-13.25,4.41-15.1,11.19-.46,1.69-.82,3.49-1.13,5.34-1.55,9.26,12.52,12.93,23.85,9.42,3.06-.95,5.08-2.01,6.36-3.22,3.45-3.26,1.38-7.61-.9-13.76Z"/>
        <path class="cls-2" d="M283.45,50.77c.03,1.14.86,2.03,1.86,2.01,1-.03,1.78-.97,1.75-2.1-.03-1.13-.86-2.03-1.86-2-1,.03-1.78.97-1.75,2.1Z"/>
        <path class="cls-2" d="M248.71,50.77c.03,1.14.86,2.03,1.86,2.01,1-.03,1.78-.97,1.75-2.1-.03-1.13-.86-2.03-1.86-2-.99.03-1.78.97-1.75,2.1Z"/>
        <path class="cls-2" d="M267.83,55.52s3.86-1.5,3.67-3.3c-.2-1.8-7.68-2.34-6.86.19.82,2.53,2.82,3.28,3.19,3.12Z"/>
        <path class="cls-2" d="M263.2,56.67c-.02,1.66,1.93,1.69,2.84,1.15.85-.5,1.29-1.46,1.22-2.69,0-.04.06-.05.09-.08.02-.03.05-.05.08-.07.05-.04.11-.06.17-.08.04-.01.08-.02.12-.02.04,0,.08,0,.12.01.06.01.12.04.18.07.03.02.05.04.08.07.03.03.07.04.09.08.43.66-.44,1.14.95,2.33,1.31,1.11,2.72.16,3.13-.94.18-.49.62-.63.64-.04.03,1.71-1.63,2.55-3.15,2.25-.68-.14-1.45-.67-1.97-1.35-.44.63-1.08,1.15-1.66,1.36-1.54.56-3.44-.18-3.5-1.99-.02-.58.59-.58.58-.06Z"/>
        <path class="cls-3" d="M244.71,115.48c1.83-14.59,7.52-29.02,22.91-28.59,28.53.81,30.55,33.09,26.01,54.88-.38,1.8-.79,3.54-1.24,5.18-.08.29-9.91,4.97-23.05,4.17-13.14-.8-24.41-6.1-24.41-6.1,0,0-2.06-14.85-.22-29.55Z"/>
        <path class="cls-7" d="M220.24,135.89c6.08-.22,9.98-6.52,10.54-11.96.4-3.92-.51-8.03-.65-11.96-.08-2.49.25-5.78,1.33-8.08.78-1.65,1.2-4.93,2.51-5.98.41-.33,1,.22.6.6-.14.13-.97,3.04-.8,2.57-.92,2.61-2.13,4.8-2.5,7.65-.65,5.06.51,10.12.39,15.2-.13,5.79-5.26,12.67-11.43,12.42-.29-.01-.29-.44,0-.46h0Z"/>
        <path class="cls-9" d="M250.51,58.46c0,1.98-2.86,3.58-6.4,3.58s-6.4-1.6-6.4-3.58,2.87-3.59,6.4-3.59,6.4,1.61,6.4,3.59Z"/>
        <path class="cls-9" d="M297.7,58.46c0,1.98-2.87,3.58-6.4,3.58s-6.4-1.6-6.4-3.58,2.87-3.59,6.4-3.59,6.4,1.61,6.4,3.59Z"/>
        <path class="cls-18" d="M243.3,25.54c-5.09,4.24-9.57,10.45-10.66,19.45"/>
        <path class="cls-18" d="M261,17.07s-4.82.87-10.5,3.77"/>
      </g>
    </g>
    <g id="TEXTS">
      <text class="cls-16" transform="translate(13.02 68.53)"><tspan x="0" y="0">NORTH AMERICA</tspan></text>
    </g>
  </g>
</svg>