<?xml version="1.0" encoding="UTF-8"?>
<svg xmlns="http://www.w3.org/2000/svg" viewBox="0 0 345 122">
  <defs>
    <style>
      .cls-1 {
        fill: #3b3d3f;
      }

      .cls-1, .cls-2, .cls-3, .cls-4, .cls-5, .cls-6, .cls-7, .cls-8, .cls-9 {
        stroke-width: 0px;
      }

      .cls-10 {
        isolation: isolate;
      }

      .cls-2 {
        fill: #3199c4;
      }

      .cls-2, .cls-9 {
        opacity: .2;
      }

      .cls-3 {
        fill: #93d8f5;
      }

      .cls-11 {
        fill: #fff;
        font-family: Fredoka-SemiBold, Fredoka;
        font-size: 39.3px;
        font-variation-settings: 'wght' 600, 'wdth' 100;
        font-weight: 600;
      }

      .cls-4 {
        fill: #8d8d8e;
      }

      .cls-5 {
        fill: #e2e3e5;
      }

      .cls-12 {
        stroke: #2d4661;
        stroke-width: 1.5px;
      }

      .cls-12, .cls-13 {
        fill: none;
        stroke-linecap: round;
        stroke-miterlimit: 10;
      }

      .cls-6 {
        fill: #5c5c5c;
      }

      .cls-7 {
        fill: #f54752;
      }

      .cls-8 {
        fill: #0f4c00;
      }

      .cls-9 {
        fill: #2d4661;
        mix-blend-mode: multiply;
      }

      .cls-13 {
        stroke: #fff;
        stroke-width: .25px;
      }
    </style>
  </defs>
  <g class="cls-10">
    <g id="BACKGROUND">
      <rect class="cls-3" x="-22.63" y="-53.04" width="377.02" height="251.34"/>
    </g>
    <g id="OBJECTS">
      <path class="cls-2" d="M313.61-39.32c48.89,9.64,24.41,67.15,13.77,98.76-10.64,31.61,51.36,76.88,26.62,112.71-24.74,35.83-73.31,1.13-138.74-8.89-65.42-10.01-125.81,35.95-163.2,19.33-37.39-16.62-5.27-75.92-37.07-106.77C-16.81,44.98-5.83.3,27.99-19.93c33.81-20.23,99.94,14.63,150.52,10.62,50.57-4.01,95.43-37.83,135.1-30.01Z"/>
      <path class="cls-8" d="M228.53,22.16c3.34,7.21,5.79,14.8,16.35,19.73,10.13,4.73,15.38,14.84,22.95,22.29,24.07,23.67,23.27,46.07,13.17,66.17-4.02,7.99-14.48,11.49-16.93,20.97-.32,1.22-1.73,2.04-1.73,3.3.04,15.68-15.36,17.5-27.29,19.15-9.27,1.28-21.86,1.89-33.97-5.58-4.06-2.5-5.05-5.03-3.73-7.93,1.68-3.7-2.04-4.9-4.96-6.5-.97-.53-2.4-1.86-1.67.45.25.8.6,1.73.42,2.37-.7,2.51-2.75,3.87-5.83,3.52-1.5-.17-3.92-1.33-4.78-2.51-2.21-3.02.2-4.12,1.91-5.5.85-.69,1.81-2.38,1.32-3.03-1.62-2.17-2.45-.09-3.73-.02-7.79.4-8.84-6.2-10.68-9.98-4.72-9.7-13.41-11.16-19.4-9.91-15.7,3.25-32.13,5.91-43.19,15.95-1.95,1.77-4.75,2.27-8.05,1.77-8.15-1.22-13.99,1.12-18.87,5.28-6.19,5.27-13.89,4.26-22.76-2.55-3.72-2.85-4.68-5.49-2.31-7.86,3.9-3.9,4.28-9.21,1.4-15.06-5.1-10.35-6.81-20.83-14.38-31.22-8.98-12.32-3.14-34.28,8.59-38.8,7.89-3.04,15.63-6.33,23.87-8.83,4.91-1.49,8.86-4.17,9.02-8.61.47-12.8,12.57-17.86,16.17-28.55,2.28-6.78,9.39-6.67,17.34-1.36,4.45,2.97,4.5,2.71,4.83-1.46.55-6.98,8.48-9.66,11.4-14.12,6.94-10.59,18.72-1.09,27.6-1.65,8.42-.53,11.07,5.24,9.89,11.33-1.98,10.19,12.68,25.3,23.87,23.29,5.44-.98,2.18-9.36,2.1-14.53-.12-7.58-1.52-15.48-2.14-23.2-.22-2.71.77-5.02,4.36-4.62,3.34.37,4.33,3.09,6.04,5.42,5.02,6.8,7.31,14.75,16.47,19.88,4.4,2.46,6.63,7.5,7.32,12.54Z"/>
      <g>
        <path class="cls-7" d="M227.35,8.61l2.44,51.03,30.15,16.01s-53.97,38.37-126.72,22.15c-72.75-16.22-122,1.75-122,1.75V20.67s75.98-9.63,124.36,4.19c48.38,13.82,91.77-16.25,91.77-16.25Z"/>
        <line class="cls-12" x1="10.73" y1="20.82" x2="10.73" y2="204.69"/>
        <path class="cls-9" d="M11.24,61.82v37.71s49.23-17.96,121.99-1.73c72.76,16.22,126.71-22.14,126.71-22.14l-6.08-3.22c-20.59,7.31-89.22,27.68-137.72-4.74-34.38-22.94-76.47-15.61-104.9-5.88Z"/>
      </g>
      <g>
        <path class="cls-6" d="M259.95,68.38s-27.94,25.32-18.27,58.44c5.09,17.43,23.85-18.65,23.85-18.65,0,0,6.03-42.02-5.58-39.8Z"/>
        <path class="cls-6" d="M316.1,68.38s27.94,25.32,18.27,58.44c-5.09,17.43-23.85-18.65-23.85-18.65,0,0-6.03-42.02,5.58-39.8Z"/>
        <path class="cls-6" d="M259.95,72.97s4.39,4.99,3.01,9.32c18.8.51,37.19,4.37,54.84,11.4-2.56-8.68-5.04-15.4-6.71-19.9l-51.14-.83Z"/>
        <path class="cls-4" d="M317.8,93.7c-17.65-7.03-36.04-10.89-54.84-11.4-4.12,12.93-12.48,40.01-13.54,50.35-1.38,13.44-4.69,30.73,6.96,35.74,1.34-.54,2.56-1.2,3.59-2.06,21.69-15.56,46.66-13.95,65.59-.83,1.62-1.96,2.45-4.49,2.38-7.28-.73-26.98-5.56-48.92-10.15-64.51Z"/>
        <path class="cls-5" d="M281.89,87.4s-18.25,8.52-14.6,17.04c0,0-10.96,11.37-6.09,21.51,4.87,10.14,9.33,10.95,14.2,6.89,0,0-2.84,9.74,6.49,12.17,9.34,2.44,10.96-5.27,10.96-5.27,0,0,7.71,9.33,13.39,2.84,5.68-6.49,2.43-10.95,2.43-10.95,0,0,5.68,3.25,6.9-8.12,1.22-11.36-6.9-19.07-6.9-19.07,0,0,6.09-1.95,1.62-8.48-4.46-6.53-16.23-12.62-28.41-8.56Z"/>
        <g>
          <path class="cls-6" d="M270.1,16.35s-.42-.3-3.43-1.74c-5.18-2.47-14.93-6-21.09-.62-4.77,4.17-11.32,9.26-15.58,14.09-4.43,5.04-6.36,9.81-1.16,12.99,0,0,.91.61,3.81-.76,0,0-3.65,5.17,1.22,7.46,4.87,2.28,6.39-2.59,6.39-2.59,0,0-1.82,8.22,6.85,9.43,8.68,1.22,11.26-9.13,10.96-10.5l12.04-27.77Z"/>
          <path class="cls-6" d="M342.9,26.15c-4.15-4.23-9.63-8.54-13.77-12.15-5.58-4.88-12.8-3.4-17.96-1.24-3.85,1.61-6.56,3.6-6.56,3.6l12.04,27.77c-.31,1.37,2.28,11.72,10.95,10.5,8.67-1.22,6.85-9.43,6.85-9.43,0,0,1.52,4.87,6.39,2.59,4.87-2.28,1.21-7.46,1.21-7.46,2.89,1.37,3.81.76,3.81.76,5.86-3.59,2.66-9.2-2.98-14.93Z"/>
          <path class="cls-4" d="M290.21,10.1s-22.52-1.82-31.04,20.49c-8.52,22.32-13.52,46.93,21.51,50.32,41.87,4.06,42.81-18.87,41.8-28.2-1.01-9.33.81-42.2-32.26-42.61Z"/>
          <path class="cls-9" d="M280.67,80.91c-12.82-1.24-20.29-5.32-24.16-11.1,4.16,2.39,9.78,4.08,17.19,4.78,41.85,4.05,42.79-18.87,41.79-28.2-.65-5.94-.15-21.41-8.24-31.98,15.39,9.3,14.41,31.01,15.21,38.3,1,9.33.09,32.25-41.79,28.2Z"/>
          <path class="cls-5" d="M289.75,46.82s-5.01-.61-8.25,5.07c-4.48,7.86-9.15,15.32-2.15,18.97,7,3.65,22.23,3.86,23.65-5.88.25-4.05-2.58-9.87-4.2-13.12-1.62-3.25-5.48-5.14-9.05-5.04Z"/>
          <path class="cls-1" d="M290.11,62.24s-6.55-1.52-5.18-5.93c1.37-4.41,2.22-7.4,5.18-7.46,3.65-.07,4.11,3.35,4.57,7.76.46,4.41-1.07,4.57-4.57,5.63Z"/>
          <path class="cls-1" d="M281.81,66.15c-.76,0-1.45-.19-2.06-.57-1.7-1.06-2.19-3.18-2.21-3.27-.04-.17.07-.33.23-.36.17-.04.33.07.37.23,0,.02.46,1.97,1.94,2.89.79.49,1.75.61,2.85.34,4.1-1,6.58-1.95,7.1-3.85.04-.16.19-.25.36-.22.16.03.26.19.23.35,0,.01-.06.46.4,1.04.68.87,2.46,2,7.04,2.46,1.94.19,2.33-.6,2.97-1.92.13-.25.25-.5.39-.76.08-.15.26-.2.42-.12.14.08.2.26.12.41-.14.25-.26.5-.38.74-.66,1.34-1.21,2.5-3.58,2.26-4.84-.49-6.75-1.75-7.48-2.73-.12-.16-.22-.32-.29-.46-1.01,1.61-3.46,2.49-7.15,3.4-.44.11-.86.16-1.25.16Z"/>
          <path class="cls-1" d="M302.39,54.32c-.29,0-.55-.21-.6-.51-.02-.13-.54-3.34,1.01-5.5.71-1,1.74-1.62,3.06-1.84,1.17-.19,2.22.06,3.11.76,2.35,1.84,2.72,6.16,2.73,6.34.02.33-.23.63-.56.65-.34.04-.63-.22-.66-.56,0-.04-.34-3.98-2.27-5.48-.62-.48-1.32-.65-2.16-.52-1,.16-1.73.6-2.26,1.34-1.25,1.75-.8,4.57-.8,4.6.05.34-.17.65-.5.7-.03,0-.07,0-.1,0Z"/>
          <path class="cls-1" d="M277.39,54.49c-.05,0-.11,0-.16-.02-.33-.09-.52-.42-.43-.74,0-.03.72-2.79-.37-4.65-.46-.78-1.15-1.29-2.12-1.55-.82-.21-1.55-.11-2.2.31-2.06,1.32-2.77,5.21-2.77,5.25-.06.33-.38.55-.71.49-.33-.06-.55-.37-.49-.7.03-.18.8-4.45,3.31-6.06.95-.61,2.02-.77,3.17-.46,1.29.34,2.25,1.05,2.87,2.11,1.34,2.31.53,5.44.49,5.58-.07.27-.32.45-.59.45Z"/>
          <path class="cls-13" d="M277.59,17.23c2.52-1.16,5.43-2.04,8.74-2.41"/>
          <path class="cls-13" d="M264.14,29.62s2.84-5.64,9.24-10.01"/>
        </g>
      </g>
    </g>
    <g id="TEXTS">
      <text class="cls-11" transform="translate(37.41 72.63)"><tspan x="0" y="0">OCEANIA</tspan></text>
    </g>
  </g>
</svg>