<?xml version="1.0" encoding="UTF-8"?>
<svg id="Layer_1" data-name="Layer 1" xmlns="http://www.w3.org/2000/svg" xmlns:xlink="http://www.w3.org/1999/xlink" viewBox="0 0 600 600">
  <defs>
    <style>
      .cls-1 {
        fill: #f7807c;
      }

      .cls-1, .cls-2, .cls-3, .cls-4, .cls-5, .cls-6, .cls-7, .cls-8, .cls-9 {
        stroke-width: 0px;
      }

      .cls-2, .cls-10, .cls-11 {
        fill: none;
      }

      .cls-3 {
        fill: #41ba6c;
      }

      .cls-4, .cls-9 {
        fill: #266978;
      }

      .cls-5 {
        fill: #8f2f59;
      }

      .cls-6 {
        fill: #fff;
      }

      .cls-12, .cls-7 {
        fill: #e2e2e2;
      }

      .cls-12, .cls-10 {
        stroke-width: 3.08px;
      }

      .cls-12, .cls-10, .cls-11 {
        stroke: #266978;
        stroke-linecap: round;
        stroke-linejoin: round;
      }

      .cls-13 {
        clip-path: url(#clippath);
      }

      .cls-8 {
        fill: #64c6f0;
      }

      .cls-14 {
        opacity: .5;
      }

      .cls-11 {
        stroke-width: 6.16px;
      }

      .cls-9 {
        opacity: .3;
      }
    </style>
    <clipPath id="clippath">
      <ellipse class="cls-2" cx="293.67" cy="248.81" rx="184.71" ry="177.78"/>
    </clipPath>
  </defs>
  <ellipse class="cls-4" cx="317.27" cy="568.16" rx="212.68" ry="25.43"/>
  <g>
    <g>
      <g>
        <path class="cls-7" d="M236.53,509.8c-10.91-2.41-22.28-3.58-33.24-1.41-10.96,2.17-21.51,7.98-27.7,17.28-6.19,9.3-7.28,22.26-1.2,31.63,6.41,9.88,18.79,13.89,30.39,15.9,28.24,4.9,57.7,1.96,84.71-7.65,8.29-2.95,16.76-6.82,21.93-13.94,6.12-8.41,6.37-20.21,2.17-29.73-4.2-9.52-12.3-16.91-20.89-22.28-17.6,6.08-35.93,10.07-56.18,10.2Z"/>
        <path class="cls-7" d="M262.19,471.06c-6.81,1.25-13.7,2.52-20.04,5.3-6.35,2.77-12.21,7.23-15.33,13.41-3.13,6.18-3.03,14.23,1.34,19.6,4.88,6,13.46,7.34,21.19,7.36,13.11.04,26.21-2.47,38.38-7.34,6.25-2.5,12.7-6.08,15.36-12.26,2.7-6.26.6-13.93-4.08-18.89-4.68-4.96-11.5-7.48-18.29-8.16-6.79-.68-13.66.08-18.53.97Z"/>
        <g class="cls-14">
          <path class="cls-10" d="M228.66,511.02c9.98,7.02,22.89,9.1,34.98,7.41,12.09-1.68,23.45-6.86,33.85-13.26"/>
          <path class="cls-10" d="M172.06,545.99c16.57,8.7,35.52,12.19,54.24,12.2,30.12.03,71.68-7.69,87.6-21.1"/>
        </g>
      </g>
      <g>
        <path class="cls-1" d="M281.98,484.68c-12.39,6.23-25.8,7.98-38.34,5.42-4.04-18.68-7.83-36.86-11.53-54.9-2.16-10.57-4.28-21.11-6.41-31.66,14.7,6.13,28.6,9.86,42.63,10.54.8,4.93,1.63,9.83,2.53,14.76,3.3,18.68,7,37.3,11.13,55.82Z"/>
        <path class="cls-4" d="M270.85,428.85c-12.24,4.93-25.58,7.12-38.74,6.35-2.16-10.57-4.28-21.11-6.41-31.66,14.7,6.13,28.6,9.86,42.63,10.54.8,4.93,1.63,9.83,2.53,14.76Z"/>
      </g>
    </g>
    <g>
      <g>
        <path class="cls-7" d="M427.39,501.25c8.42-7.34,17.84-13.82,28.5-17.17,10.66-3.35,22.7-3.3,32.59,1.9s17.05,16.05,16.2,27.19c-.9,11.74-9.84,21.19-19.05,28.52-22.45,17.83-49.71,29.37-78.02,33.87-8.69,1.38-17.98,2.04-25.93-1.73-9.4-4.45-15.27-14.69-16.15-25.06s2.69-20.73,7.66-29.56c18.37-3.09,36.36-8.38,54.2-17.96Z"/>
        <path class="cls-7" d="M386.31,479.53c6.58-2.17,13.23-4.35,20.13-4.95,6.9-.61,14.18.5,19.88,4.42,5.71,3.93,9.48,11.04,8.22,17.85-1.41,7.61-8.3,12.89-15.08,16.62-11.48,6.31-24.19,10.39-37.2,11.95-6.68.8-14.06.74-19.36-3.4-5.37-4.2-7.2-11.94-5.47-18.53,1.73-6.6,6.51-12.08,12.14-15.92,5.63-3.85,12.03-6.47,16.73-8.02Z"/>
        <g class="cls-14">
          <path class="cls-10" d="M434.89,498.55c-5.4,10.94-15.74,18.95-27.16,23.26-11.42,4.31-23.88,5.21-36.06,4.57"/>
          <path class="cls-10" d="M501.32,502.13c-10.37,15.58-25.34,27.72-41.76,36.7-26.42,14.45-66.6,27.59-87,23.45"/>
        </g>
      </g>
      <g>
        <path class="cls-1" d="M406.29,486.28c-8.38,12.24-22.62,17.66-36.16,15.97-12.88-22.07-24.9-44.14-36.71-66.24-4.47-8.38-8.94-16.8-13.38-25.21,16.92-1.63,29.16-3.64,40.87-7.34,2.28,4.16,4.56,8.32,6.84,12.48,12.85,23.46,25.68,46.88,38.53,70.34Z"/>
        <path class="cls-4" d="M367.76,415.94c-10.23,8.51-21.88,15.32-34.34,20.07-4.47-8.38-8.94-16.8-13.38-25.21,16.92-1.63,29.16-3.64,40.87-7.34,2.28,4.16,4.56,8.32,6.84,12.48Z"/>
      </g>
    </g>
    <g>
      <path class="cls-1" d="M537.12,339.88s-44.89,45.58-67.23,43.12c-22.34-2.46-45.14-29.05-45.14-29.05l21.31-26.77s22.69,20.01,28.2,19.39c5.51-.62,23.54-18.1,23.54-18.1"/>
      <g>
        <path class="cls-7" d="M507.5,303.1c-6.84-1.8-14.46,1.4-18.73,6.85-4.27,5.46-5.47,12.74-4.42,19.5s4.17,13.06,7.85,18.9c5.63,8.93,13.2,17.4,23.46,20.81,10.26,3.41,23.48.04,25.67-12.35-13.5-16.11-24.04-34.51-33.83-53.7Z"/>
        <path class="cls-7" d="M503.54,311.28c11.35-27.26,23.88-85.97,41.62-82.43,12.83,2.56,2.74,35.41.6,47.23,11.41-11.7,23.61-43.03,38.97-37.58,17.21,6.11-10.75,42.27-16.48,52.63,40.13,20.85,5.9,73.8-32.3,67.37-14.6-11.88-25.64-27.96-32.41-47.23Z"/>
        <g class="cls-14">
          <path class="cls-12" d="M573.22,339.01c-3.74,2.2-7.54,4.43-11.73,5.58-4.19,1.15-8.89,1.12-12.65-1.05-4.64-2.67-7.01-7.95-7.51-14.64,1.82-3.7,4.27-7.08,7.22-9.96"/>
          <path class="cls-12" d="M566.21,317.16c-4.31,6.44-10,11.95-16.58,16.05-2.35,1.46-5,2.78-7.75,2.49-2.82-.3-5.23-2.28-6.75-4.67-1.52-2.39-2.29-5.17-3.28-8.14,2.61-7.27,7.2-13.83,13.15-18.77"/>
          <path class="cls-10" d="M507.03,305.19c-5,10.8-4.61,23.95,1.02,34.44,5.63,10.49,16.37,18.08,28.14,19.88"/>
          <path class="cls-12" d="M514.14,296.33c9.04-4.02,19.43-5.69,29.43-4.72,4.49.43,9.51,1.81,11.18,5.41,1.55,3.32-.56,7.3-3.84,9.59-3.28,2.29-7.47,3.28-11.55,5.27,2.48,4.03,2.73,9.07.65,13.35-2.08,4.28-6.44,7.72-11.57,9.11"/>
        </g>
      </g>
    </g>
    <g>
      <path class="cls-1" d="M63.05,343.36s41.32,45.58,61.89,43.12c20.57-2.46,41.56-29.05,41.56-29.05l-19.62-26.77s-20.89,20.01-25.96,19.39c-5.07-.62-21.67-18.1-21.67-18.1"/>
      <g>
        <path class="cls-7" d="M89.6,300.34c6.97-1.19,14.28,2.68,18.04,8.5,3.76,5.81,4.31,13.18,2.66,19.81-1.65,6.63-5.32,12.64-9.5,18.12-6.41,8.39-14.7,16.15-25.22,18.63-10.52,2.48-23.39-2.05-24.47-14.59,14.88-14.84,27.02-32.22,38.49-50.47Z"/>
        <path class="cls-7" d="M92.81,308.83c-8.87-28.16-16.11-87.76-34.09-85.81-13.01,1.41-5.89,35.02-4.82,46.99-10.32-12.67-19.68-44.97-35.45-40.91-17.69,4.55,6.93,43.06,11.72,53.9-41.83,17.18-12.46,72.97,26.15,69.98,15.61-10.53,28.04-25.56,36.49-44.15Z"/>
        <g class="cls-14">
          <path class="cls-12" d="M20.93,330.22c3.53,2.53,7.12,5.09,11.19,6.61s8.75,1.91,12.69.08c4.86-2.25,7.69-7.29,8.79-13.91-1.48-3.85-3.62-7.44-6.3-10.57"/>
          <path class="cls-12" d="M29.86,309.1c3.71,6.8,8.89,12.8,15.08,17.46,2.21,1.67,4.73,3.22,7.5,3.18,2.83-.05,5.41-1.81,7.14-4.05s2.74-4.94,4-7.82c-1.95-7.48-5.94-14.42-11.42-19.87"/>
          <path class="cls-10" d="M89.88,302.46c4.02,11.21,2.46,24.26-4.09,34.21-6.54,9.95-17.92,16.54-29.8,17.29"/>
          <path class="cls-12" d="M83.58,293c-8.65-4.81-18.84-7.4-28.89-7.33-4.51.03-9.63.96-11.62,4.39-1.84,3.17-.09,7.32,2.97,9.89,3.06,2.57,7.15,3.93,11.04,6.28-2.83,3.8-3.53,8.79-1.84,13.24,1.69,4.45,5.73,8.26,10.71,10.11"/>
        </g>
      </g>
    </g>
    <g>
      <g>
        <circle class="cls-1" cx="256.74" cy="12.38" r="5.97"/>
        <path class="cls-7" d="M341.93,92.21l-25.58,3.27-125.7,16.03s-4.72-53.32,12.14-72.65c13.07-14.95,34.71-24.04,55.94-25.8,19.48-1.63,38.59,2.87,50.3,14.61,19.54,19.54,32.89,64.54,32.89,64.54Z"/>
        <path class="cls-1" d="M341.93,92.21l-25.58,3.27c-.31-14.49-2.5-52.74-16.68-66.92-10.73-10.73-26.35-14.64-40.93-15.5,19.48-1.63,38.59,2.87,50.3,14.61,19.54,19.54,32.89,64.54,32.89,64.54Z"/>
      </g>
      <g>
        <path class="cls-8" d="M478.38,248.82c0,25.58-5.61,49.87-15.72,71.85-28.67,62.39-93.55,105.94-169,105.94-101.99,0-184.69-79.62-184.69-177.79,0-11.59,1.14-22.9,3.36-33.87,16.43-81.99,91.36-143.91,181.33-143.91,102.02,0,184.72,79.58,184.72,177.79Z"/>
        <g class="cls-13">
          <g>
            <path class="cls-3" d="M104.78,205.56c-.38,5.47.36,11.02,2.18,16.2.78,2.23,2.13,4.69,4.47,5.03,3.04.44,6.2-3.02,8.82-1.42,3.29,2-.25,7.99,2.45,10.73,1.31,1.33,3.48,1.19,5.16,2.01,3.37,1.63,3.7,6.35,2.74,9.98-.95,3.62-2.71,7.32-1.76,10.95,1.07,4.1,5.26,6.59,9.34,7.71s8.43,1.34,12.3,3.07c4.06,1.82,7.96,5.33,12.29,4.33,4.05-.93,6.16-5.4,6.97-9.48.81-4.07.98-8.51,3.46-11.84,4.99-6.7,16.37-5.34,21.57-11.88,4.44-5.57,2.43-14.58,7.3-19.78,2.36-2.52,6.1-3.8,7.56-6.93,1.9-4.05-1.02-8.57-3.33-12.4-2.31-3.84-3.72-9.59-.05-12.14,2.38-1.65,5.94-1.04,8.04-3.03,1.58-1.51,1.88-4.14,3.73-5.31,2.33-1.48,5.41.31,8.11-.22,3.3-.65,4.93-4.49,5.09-7.85.16-3.36-.55-6.84.49-10.04,1.11-3.41,4.08-5.98,5.15-9.41,2.67-8.55-7.25-18.31-2.56-25.94,1.62-2.63,4.65-4.15,6.25-6.79,4.92-8.14-6.82-17.84-4.79-27.13.2-.93.55-1.88.31-2.8-.25-.99-1.11-1.69-1.93-2.32-6.08-4.7-12.16-9.4-18.22-13.91-55.87,22.87-107.05,71.66-111.18,130.64Z"/>
            <path class="cls-3" d="M268.34,66.67c-1.57,7.1,4.32,14.88,11.57,15.3,2.37.14,5-.33,6.93,1.05,1.5,1.08,2.14,3.03,3.53,4.26,3.5,3.11,9.83.37,13.26,3.55,4.02,3.72-.21,10.84,2.11,15.8.96,2.05,2.99,3.58,3.41,5.8.72,3.89-3.83,6.92-4.13,10.86-.25,3.36,2.66,6.44,2.1,9.76-.31,1.8-1.6,3.69-.69,5.26.93,1.62,3.28,1.38,5.08,1.89,5.71,1.62,5.44,10.67,10.52,13.76,1.62.98,3.58,1.21,5.29,2.02,2.87,1.36,4.7,4.18,6.98,6.39,2.28,2.21,5.81,3.87,8.56,2.28,1.7-.98,2.56-2.91,3.77-4.45,3.38-4.27,9.56-5.37,14.93-4.43,5.37.95,10.27,3.56,15.36,5.52,3.1,1.2,6.94,2.05,9.49-.08,3.11-2.6,2.21-7.87,4.83-10.96,2.95-3.46,8.81-2.59,12.25-5.56,1.87-1.61,2.9-4.27,5.21-5.16,4.88-1.89,11.55,5.36,14.66,1.15.5-.68.71-1.52.95-2.32,1.96-6.56,6.5-12.31,12.44-15.72-13.23-12.11-21.19-29.37-35.31-40.43-7.19-5.63-15.64-9.38-24.16-12.67-14.17-5.47-28.77-9.8-43.63-12.91-10.51-2.2-21.26-3.8-31.95-2.88-10.69.92-21.41,4.53-33.36,12.9Z"/>
            <path class="cls-3" d="M479.54,192.19c-8.25,6.68-16.5,13.35-24.75,20.03-2.87,2.32-6.02,5.25-5.77,8.93.24,3.45,3.42,7.1,1.38,9.89-1.13,1.54-3.33,1.81-4.78,3.05-3.63,3.12-.39,9.6-2.95,13.65-1.42,2.26-4.45,3.35-5.34,5.86-.49,1.38-.22,2.89-.32,4.35-.39,5.72-6.01,9.33-10.36,13.07-.58.5-1.17,1.05-1.43,1.77-.3.85-.09,1.8.2,2.66,1.27,3.7,4.15,6.82,7.74,8.38,1.17.51,2.48.91,3.22,1.95,1.43,2.02-.22,4.82.2,7.26.44,2.57,3.19,4.21,5.79,4.29,2.6.08,5.08-1.02,7.45-2.1,2.63,2.15,5.38,4.48,6.48,7.7,1.09,3.22-.3,7.53-3.62,8.29-1,.23-2.18.18-2.86.94-1.2,1.34.38,3.3.81,5.05.59,2.39-1.14,4.68-2.77,6.53,2.85,2.04,5.76,4.15,7.67,7.09,1.91,2.94,2.61,6.93.8,9.93,13.71-10.68,22.97-26.29,28.4-42.79,5.43-16.5,7.27-33.97,8.21-51.31.87-16.04.88-32.7-5.6-47.39-1.57-3.55-4.01-7.32-7.81-7.06Z"/>
            <path class="cls-3" d="M360.19,376.72c-6.26-2.64-11.64-7.31-15.15-13.12-1.94-3.21-3.62-7.05-7.11-8.43-4.5-1.79-9.46,1.48-14.29,1.14-5.19-.36-9.86-4.86-14.95-3.74-3.75.82-6.12,4.38-8.43,7.45-5.04,6.69-11.57,12.25-18.98,16.17-2.86,1.51-6.25,3.31-6.63,6.52-.17,1.4.32,2.81.93,4.08,3.83,7.89,12.38,12.13,20.35,15.8,3.72,1.72,7.95,3.46,11.79,2.01,1.33-.5,2.51-1.37,3.89-1.72,5.84-1.5,10.71,6.61,16.65,5.6,3.53-.6,5.63-4.12,8.24-6.57,3.62-3.38,8.58-4.85,12.86-7.33,3.6-2.09,6.75-4.93,9.2-8.3,1.23-1.69,2.31-3.6,2.42-5.69s-1.01-4.36-.79-3.87Z"/>
            <path class="cls-3" d="M128.93,307.8c.16,8.41.85,17.96,7.38,23.27,1.7,1.38,3.71,2.38,5.3,3.9,1.31,1.26,2.28,2.83,3.23,4.38,7.08,11.54,14.17,23.07,21.26,34.61.86,1.4,1.82,2.88,3.35,3.47,1.47.57,3.11.18,4.68.22,7.33.22,11.57,9.53,18.82,10.59,3.83.56,8.12-1.28,11.4.77,2.16,1.35,3.36,4.16,5.81,4.81,1.28.34,2.64,0,3.93-.34,6.39-1.68,12.78-3.37,19.17-5.05.72-.19,1.52-.45,1.83-1.12.24-.53.1-1.15-.05-1.71-1.23-4.6-2.45-9.2-3.68-13.8-5.4.3-8.58-5.88-10.01-11.1-1.43-5.22-3.52-11.52-8.83-12.54-2.14-.41-4.36.2-6.51-.14-5.67-.89-9.99-8.05-15.47-6.35-1.76.55-3.11,1.94-4.7,2.87-4,2.33-9.01,1.49-13.54.58-2.17-.43-4.47-.94-6.04-2.49-1.57-1.55-1.93-4.53-.13-5.82-2.13.02-3.28-2.54-3.38-4.66s.23-4.49-1.08-6.17c-.76-.99-1.95-1.53-3.09-2.04-9.14-4.06-18.28-8.13-29.65-16.14Z"/>
          </g>
        </g>
        <g>
          <g>
            <path class="cls-4" d="M190.87,280.54c-2.05-10.44,2.56-20.13,10.29-21.65,7.73-1.51,15.65,5.72,17.69,16.16,2.05,10.44-2.56,20.13-10.29,21.65-7.73,1.51-15.65-5.72-17.69-16.16Z"/>
            <path class="cls-6" d="M201.75,274.23c-3.35-2.63-4.51-6.75-2.59-9.2,1.92-2.45,6.2-2.31,9.56.32,3.35,2.63,4.51,6.75,2.59,9.2-1.92,2.45-6.2,2.31-9.56-.32Z"/>
          </g>
          <g>
            <path class="cls-4" d="M367.97,267.42c2.93-10.23,11.45-16.76,19.01-14.59,7.57,2.17,11.33,12.22,8.39,22.45-2.93,10.23-11.45,16.76-19.01,14.59-7.57-2.17-11.33-12.22-8.39-22.45Z"/>
            <path class="cls-6" d="M380.53,266.75c-1.79-3.87-.95-8.06,1.88-9.37s6.57.76,8.36,4.63c1.79,3.87.95,8.06-1.88,9.37-2.83,1.31-6.57-.76-8.36-4.63Z"/>
          </g>
          <path class="cls-1" d="M160.91,307.33c2.25-10.19,16.24-15.77,31.25-12.45,15.01,3.32,25.35,14.27,23.1,24.46-2.25,10.19-16.24,15.77-31.25,12.45-15.01-3.32-25.35-14.27-23.1-24.46Z"/>
          <path class="cls-1" d="M379.12,310.25c-3.14-9.95,6.19-21.77,20.85-26.4,14.66-4.63,29.09-.31,32.23,9.64,3.14,9.95-6.19,21.77-20.85,26.4-14.66,4.63-29.09.31-32.23-9.64Z"/>
          <g>
            <path class="cls-5" d="M355.12,299.58c-.99,5.95-4.13,11.4-8.01,16.03-.52.65-1.08,1.29-1.66,1.91-9.25,10.11-22.1,17.29-35.69,18.71-33.23,3.48-50.89-3.98-59.95-10.57-.83-.62-1.57-1.2-2.25-1.79-5.43-4.56-10.14-10.45-11.34-17.45-1.2-6.97,1.33-14.8,7.15-18.83.22-.15.46-.31.71-.43,9.93-5.95,28.94,2.22,47.25.77,21.39-1.7,32.36-10.42,39.48-11.28,4.38-.52,9.03-.15,13.1,1.48,2.56.99,4.9,2.47,6.78,4.5,4.1,4.44,5.46,10.97,4.44,16.95Z"/>
            <path class="cls-6" d="M343.9,278.13c-.77,1.82-1.91,3.73-3.48,5.98-4.53,6.47-55.11,21.02-83.96,13.53-3.48-.92-6.66-2.84-8.97-5.58-1.33-1.57-2.47-3.21-3.42-4.9,9.93-5.95,28.94,2.22,47.25.77,21.39-1.7,32.36-10.42,39.48-11.28,4.38-.52,9.03-.15,13.1,1.48Z"/>
            <path class="cls-1" d="M345.44,317.52c-9.25,10.11-22.1,17.29-35.69,18.71-33.23,3.48-50.89-3.98-59.95-10.57,13.25-11.81,30.42-19.2,48.15-20.31,16.58-1.05,33.41,3.42,47.5,12.18Z"/>
          </g>
          <path class="cls-11" d="M166.81,220.69c1.71-7,6.35-13.23,12.57-16.89,6.21-3.65,13.92-4.68,20.87-2.78"/>
          <path class="cls-11" d="M367.18,183.75c5.99-4.67,13.74-7.02,21.32-6.45,7.57.57,14.89,4.06,20.1,9.58"/>
        </g>
        <path class="cls-9" d="M462.66,320.67c-28.67,62.39-93.55,105.94-169,105.94-101.99,0-184.69-79.62-184.69-177.79,0-11.59,1.14-22.9,3.36-33.87-.18,42.57,13.41,85.29,39.52,118.98,40.22,51.94,108.74,80.48,173.96,72.53,55.2-6.75,106.34-39.45,136.85-85.78Z"/>
      </g>
      <g>
        <path class="cls-4" d="M181.24,74.86c-8.84,3.49-17.63,7.28-25.28,12.91-10.85,7.98-13.37,14.45-13.74,23.94-.12,3.16.45,6.52,2.48,8.95,2.3,2.76,6.14,3.86,9.72,3.58,3.58-.27,6.95-1.75,10.14-3.4,11.44-5.94,21.33-14.42,31.98-21.68,10.65-7.26,22.65-13.47,35.53-13.88-13.21-8.07-30.36-18.5-50.82-10.42Z"/>
        <path class="cls-1" d="M315.56,71.62c-32.32-9-66.09-17.09-99.12-11.27-27.25,4.8-72.63,28.1-73.3,44.16,5.5-12.77,49.8-26.28,74.19-18.56,13.09,4.14,25.02,11.73,38.45,14.59,23.84,5.08,50.33-7.16,59.79-28.92Z"/>
      </g>
    </g>
  </g>
</svg>