<svg width="39" height="43" viewBox="0 0 39 43" fill="none" xmlns="http://www.w3.org/2000/svg">
<path d="M4.114 17.34C3.62667 17.34 3.19033 17.289 2.805 17.187C2.431 17.085 2.108 16.966 1.836 16.83C1.57533 16.6827 1.36 16.5523 1.19 16.439C1.03133 16.3143 0.923667 16.2293 0.867 16.184C0.708333 16.0593 0.572333 15.929 0.459 15.793C0.357 15.657 0.306 15.4983 0.306 15.317C0.306 15.1697 0.345667 15.0167 0.425 14.858C0.504333 14.6993 0.634667 14.5293 0.816 14.348C0.963333 14.178 1.11067 14.0533 1.258 13.974C1.40533 13.8833 1.55267 13.838 1.7 13.838C1.836 13.838 1.97767 13.872 2.125 13.94C2.27233 14.008 2.45367 14.1327 2.669 14.314C2.71433 14.348 2.78233 14.399 2.873 14.467C2.975 14.535 3.111 14.5973 3.281 14.654C3.46233 14.7107 3.70033 14.739 3.995 14.739C4.31233 14.739 4.57867 14.6823 4.794 14.569C5.02067 14.4557 5.19633 14.297 5.321 14.093C5.44567 13.8777 5.508 13.6227 5.508 13.328C5.508 13.056 5.44 12.8123 5.304 12.597C5.17933 12.3817 5.00933 12.2173 4.794 12.104C4.57867 11.9793 4.335 11.917 4.063 11.917C3.90433 11.917 3.76267 11.934 3.638 11.968C3.51333 12.002 3.40567 12.0473 3.315 12.104C3.23567 12.1607 3.17333 12.2117 3.128 12.257C3.026 12.3477 2.91267 12.4327 2.788 12.512C2.67467 12.58 2.52733 12.614 2.346 12.614C2.19867 12.6253 2.04567 12.614 1.887 12.58C1.72833 12.5347 1.55267 12.461 1.36 12.359C1.054 12.2003 0.838667 12.0587 0.714 11.934C0.589333 11.8093 0.527 11.662 0.527 11.492L1.19 6.545C1.21267 6.38633 1.25233 6.205 1.309 6.001C1.36567 5.797 1.479 5.62133 1.649 5.474C1.83033 5.31533 2.108 5.236 2.482 5.236L6.545 5.253C6.77167 5.253 6.98133 5.27567 7.174 5.321C7.36667 5.36633 7.51967 5.47967 7.633 5.661C7.75767 5.84233 7.82 6.14833 7.82 6.579C7.82 6.97567 7.76333 7.26467 7.65 7.446C7.53667 7.616 7.38367 7.718 7.191 7.752C7.00967 7.786 6.817 7.803 6.613 7.803H3.621L3.383 9.52C3.451 9.47467 3.52467 9.44067 3.604 9.418C3.68333 9.39533 3.76267 9.37833 3.842 9.367C3.92133 9.34433 4.00067 9.333 4.08 9.333H4.182C4.692 9.333 5.17933 9.435 5.644 9.639C6.12 9.843 6.53933 10.1263 6.902 10.489C7.276 10.8517 7.57067 11.2653 7.786 11.73C8.00133 12.1947 8.109 12.6877 8.109 13.209C8.109 13.991 7.93333 14.6937 7.582 15.317C7.23067 15.9403 6.749 16.4333 6.137 16.796C5.53633 17.1587 4.862 17.34 4.114 17.34ZM13.4466 17.34C12.7099 17.34 12.0809 17.2153 11.5596 16.966C11.0383 16.7167 10.6076 16.3823 10.2676 15.963C9.9276 15.5323 9.6556 15.0563 9.4516 14.535C9.25893 14.0023 9.12293 13.4527 9.0436 12.886C8.96427 12.308 8.9246 11.7527 8.9246 11.22C8.9246 10.7213 8.96427 10.1943 9.0436 9.639C9.12293 9.07233 9.25893 8.52267 9.4516 7.99C9.64427 7.45733 9.90493 6.97567 10.2336 6.545C10.5736 6.103 11.0043 5.75733 11.5256 5.508C12.0583 5.24733 12.6873 5.117 13.4126 5.117C14.1153 5.117 14.7216 5.24733 15.2316 5.508C15.7529 5.75733 16.1779 6.09733 16.5066 6.528C16.8353 6.94733 17.0959 7.42333 17.2886 7.956C17.4926 8.48867 17.6343 9.03833 17.7136 9.605C17.7929 10.1717 17.8326 10.7157 17.8326 11.237C17.8326 11.7697 17.7873 12.3193 17.6966 12.886C17.6173 13.4527 17.4813 14.0023 17.2886 14.535C17.0959 15.0677 16.8296 15.5437 16.4896 15.963C16.1609 16.3823 15.7473 16.7167 15.2486 16.966C14.7499 17.2153 14.1493 17.34 13.4466 17.34ZM13.3786 14.739C13.7526 14.739 14.0529 14.654 14.2796 14.484C14.5176 14.3027 14.6989 14.076 14.8236 13.804C14.9596 13.532 15.0559 13.243 15.1126 12.937C15.1806 12.6197 15.2203 12.3193 15.2316 12.036C15.2429 11.7413 15.2486 11.4977 15.2486 11.305V11.22C15.2486 10.4607 15.1806 9.82033 15.0446 9.299C14.9086 8.77767 14.7046 8.381 14.4326 8.109C14.1606 7.837 13.8149 7.701 13.3956 7.701C12.9649 7.701 12.6079 7.837 12.3246 8.109C12.0526 8.36967 11.8486 8.76633 11.7126 9.299C11.5766 9.82033 11.5086 10.4663 11.5086 11.237C11.5086 11.985 11.5766 12.6197 11.7126 13.141C11.8599 13.6623 12.0696 14.059 12.3416 14.331C12.6249 14.603 12.9706 14.739 13.3786 14.739Z" fill="#F5F5F5"/>
<path d="M24.114 39.34C23.6267 39.34 23.1903 39.289 22.805 39.187C22.431 39.085 22.108 38.966 21.836 38.83C21.5753 38.6827 21.36 38.5523 21.19 38.439C21.0313 38.3143 20.9237 38.2293 20.867 38.184C20.7083 38.0593 20.5723 37.929 20.459 37.793C20.357 37.657 20.306 37.4983 20.306 37.317C20.306 37.1697 20.3457 37.0167 20.425 36.858C20.5043 36.6993 20.6347 36.5293 20.816 36.348C20.9633 36.178 21.1107 36.0533 21.258 35.974C21.4053 35.8833 21.5527 35.838 21.7 35.838C21.836 35.838 21.9777 35.872 22.125 35.94C22.2723 36.008 22.4537 36.1327 22.669 36.314C22.7143 36.348 22.7823 36.399 22.873 36.467C22.975 36.535 23.111 36.5973 23.281 36.654C23.4623 36.7107 23.7003 36.739 23.995 36.739C24.3123 36.739 24.5787 36.6823 24.794 36.569C25.0207 36.4557 25.1963 36.297 25.321 36.093C25.4457 35.8777 25.508 35.6227 25.508 35.328C25.508 35.056 25.44 34.8123 25.304 34.597C25.1793 34.3817 25.0093 34.2173 24.794 34.104C24.5787 33.9793 24.335 33.917 24.063 33.917C23.9043 33.917 23.7627 33.934 23.638 33.968C23.5133 34.002 23.4057 34.0473 23.315 34.104C23.2357 34.1607 23.1733 34.2117 23.128 34.257C23.026 34.3477 22.9127 34.4327 22.788 34.512C22.6747 34.58 22.5273 34.614 22.346 34.614C22.1987 34.6253 22.0457 34.614 21.887 34.58C21.7283 34.5347 21.5527 34.461 21.36 34.359C21.054 34.2003 20.8387 34.0587 20.714 33.934C20.5893 33.8093 20.527 33.662 20.527 33.492L21.19 28.545C21.2127 28.3863 21.2523 28.205 21.309 28.001C21.3657 27.797 21.479 27.6213 21.649 27.474C21.8303 27.3153 22.108 27.236 22.482 27.236L26.545 27.253C26.7717 27.253 26.9813 27.2757 27.174 27.321C27.3667 27.3663 27.5197 27.4797 27.633 27.661C27.7577 27.8423 27.82 28.1483 27.82 28.579C27.82 28.9757 27.7633 29.2647 27.65 29.446C27.5367 29.616 27.3837 29.718 27.191 29.752C27.0097 29.786 26.817 29.803 26.613 29.803H23.621L23.383 31.52C23.451 31.4747 23.5247 31.4407 23.604 31.418C23.6833 31.3953 23.7627 31.3783 23.842 31.367C23.9213 31.3443 24.0007 31.333 24.08 31.333H24.182C24.692 31.333 25.1793 31.435 25.644 31.639C26.12 31.843 26.5393 32.1263 26.902 32.489C27.276 32.8517 27.5707 33.2653 27.786 33.73C28.0013 34.1947 28.109 34.6877 28.109 35.209C28.109 35.991 27.9333 36.6937 27.582 37.317C27.2307 37.9403 26.749 38.4333 26.137 38.796C25.5363 39.1587 24.862 39.34 24.114 39.34ZM33.4466 39.34C32.7099 39.34 32.0809 39.2153 31.5596 38.966C31.0383 38.7167 30.6076 38.3823 30.2676 37.963C29.9276 37.5323 29.6556 37.0563 29.4516 36.535C29.2589 36.0023 29.1229 35.4527 29.0436 34.886C28.9643 34.308 28.9246 33.7527 28.9246 33.22C28.9246 32.7213 28.9643 32.1943 29.0436 31.639C29.1229 31.0723 29.2589 30.5227 29.4516 29.99C29.6443 29.4573 29.9049 28.9757 30.2336 28.545C30.5736 28.103 31.0043 27.7573 31.5256 27.508C32.0583 27.2473 32.6873 27.117 33.4126 27.117C34.1153 27.117 34.7216 27.2473 35.2316 27.508C35.7529 27.7573 36.1779 28.0973 36.5066 28.528C36.8353 28.9473 37.0959 29.4233 37.2886 29.956C37.4926 30.4887 37.6343 31.0383 37.7136 31.605C37.7929 32.1717 37.8326 32.7157 37.8326 33.237C37.8326 33.7697 37.7873 34.3193 37.6966 34.886C37.6173 35.4527 37.4813 36.0023 37.2886 36.535C37.0959 37.0677 36.8296 37.5437 36.4896 37.963C36.1609 38.3823 35.7473 38.7167 35.2486 38.966C34.7499 39.2153 34.1493 39.34 33.4466 39.34ZM33.3786 36.739C33.7526 36.739 34.0529 36.654 34.2796 36.484C34.5176 36.3027 34.6989 36.076 34.8236 35.804C34.9596 35.532 35.0559 35.243 35.1126 34.937C35.1806 34.6197 35.2203 34.3193 35.2316 34.036C35.2429 33.7413 35.2486 33.4977 35.2486 33.305V33.22C35.2486 32.4607 35.1806 31.8203 35.0446 31.299C34.9086 30.7777 34.7046 30.381 34.4326 30.109C34.1606 29.837 33.8149 29.701 33.3956 29.701C32.9649 29.701 32.6079 29.837 32.3246 30.109C32.0526 30.3697 31.8486 30.7663 31.7126 31.299C31.5766 31.8203 31.5086 32.4663 31.5086 33.237C31.5086 33.985 31.5766 34.6197 31.7126 35.141C31.8599 35.6623 32.0696 36.059 32.3416 36.331C32.6249 36.603 32.9706 36.739 33.3786 36.739Z" fill="#F5F5F5"/>
<g filter="url(#filter0_b_187_598)">
<path d="M3.64648 38.6465L37.6465 4.64648" stroke="#F5F5F5" stroke-width="2" stroke-linecap="round"/>
</g>
<defs>
<filter id="filter0_b_187_598" x="-1.35352" y="-0.353516" width="44" height="44" filterUnits="userSpaceOnUse" color-interpolation-filters="sRGB">
<feFlood flood-opacity="0" result="BackgroundImageFix"/>
<feGaussianBlur in="BackgroundImageFix" stdDeviation="2"/>
<feComposite in2="SourceAlpha" operator="in" result="effect1_backgroundBlur_187_598"/>
<feBlend mode="normal" in="SourceGraphic" in2="effect1_backgroundBlur_187_598" result="shape"/>
</filter>
</defs>
</svg>
