<svg width="52" height="14" viewBox="0 0 52 14" fill="none" xmlns="http://www.w3.org/2000/svg">
<path d="M3.86912 10.1885C3.44378 10.1885 3.00878 10.1112 2.56412 9.9565C2.12912 9.79217 1.72312 9.55533 1.34612 9.246C0.978782 8.927 0.683949 8.54033 0.461615 8.086C0.239282 7.622 0.128115 7.09033 0.128115 6.491C0.128115 5.89167 0.239282 5.36483 0.461615 4.9105C0.683949 4.45617 0.978782 4.07433 1.34612 3.765C1.71345 3.45567 2.11462 3.22367 2.54962 3.069C2.99428 2.90467 3.42445 2.8225 3.84012 2.8225C4.19778 2.8225 4.51678 2.866 4.79712 2.953C5.08712 3.03033 5.32878 3.127 5.52212 3.243C5.72512 3.359 5.87012 3.4605 5.95712 3.5475C6.12145 3.67317 6.26645 3.79883 6.39212 3.9245C6.51778 4.05017 6.57578 4.2145 6.56612 4.4175C6.55645 4.52383 6.52262 4.635 6.46462 4.751C6.40662 4.85733 6.33412 4.9685 6.24712 5.0845C5.95712 5.4905 5.66712 5.67417 5.37712 5.6355C5.23212 5.6065 5.09678 5.55817 4.97112 5.4905C4.85512 5.42283 4.73912 5.35517 4.62312 5.2875C4.51678 5.21017 4.40078 5.14733 4.27512 5.099C4.14945 5.05067 4.00445 5.0265 3.84012 5.0265C3.55978 5.0265 3.30845 5.08933 3.08612 5.215C2.86378 5.34067 2.68495 5.51467 2.54962 5.737C2.42395 5.95933 2.36112 6.2155 2.36112 6.5055C2.36112 6.78583 2.42395 7.03717 2.54962 7.2595C2.68495 7.48183 2.85895 7.66067 3.07162 7.796C3.29395 7.92167 3.54045 7.9845 3.81112 7.9845C3.97545 7.9845 4.11562 7.96517 4.23162 7.9265C4.35728 7.88783 4.46362 7.84433 4.55062 7.796C4.63762 7.738 4.70528 7.6945 4.75362 7.6655C4.86962 7.58817 4.98078 7.5205 5.08712 7.4625C5.19345 7.39483 5.30462 7.361 5.42062 7.361C5.55595 7.361 5.69612 7.41417 5.84112 7.5205C5.98612 7.61717 6.14562 7.77667 6.31962 7.999C6.47428 8.202 6.56128 8.3905 6.58062 8.5645C6.60962 8.7385 6.57095 8.90283 6.46462 9.0575C6.35828 9.21217 6.19395 9.362 5.97162 9.507C5.89428 9.57467 5.75412 9.66167 5.55112 9.768C5.35778 9.87433 5.11612 9.971 4.82612 10.058C4.54578 10.145 4.22678 10.1885 3.86912 10.1885ZM11.0884 10.2465C10.6341 10.2465 10.1797 10.1595 9.72542 9.9855C9.28075 9.80183 8.87475 9.54567 8.50742 9.217C8.14008 8.88833 7.85008 8.49683 7.63742 8.0425C7.42475 7.5785 7.31842 7.06617 7.31842 6.5055C7.31842 5.9835 7.41508 5.50017 7.60842 5.0555C7.80175 4.60117 8.07242 4.2 8.42042 3.852C8.76842 3.504 9.16475 3.23333 9.60942 3.04C10.0637 2.837 10.5471 2.7355 11.0594 2.7355C11.7554 2.7355 12.3837 2.90467 12.9444 3.243C13.5147 3.57167 13.9691 4.02117 14.3074 4.5915C14.6457 5.16183 14.8149 5.795 14.8149 6.491C14.8149 7.08067 14.7038 7.6075 14.4814 8.0715C14.2687 8.52583 13.9787 8.91733 13.6114 9.246C13.2537 9.57467 12.8526 9.826 12.4079 10C11.9729 10.1643 11.5331 10.2465 11.0884 10.2465ZM11.0594 8.057C11.2914 8.057 11.5282 7.999 11.7699 7.883C12.0116 7.767 12.2146 7.593 12.3789 7.361C12.5432 7.129 12.6254 6.83417 12.6254 6.4765C12.6254 6.16717 12.5577 5.8965 12.4224 5.6645C12.2871 5.4325 12.0986 5.25367 11.8569 5.128C11.6249 4.99267 11.3542 4.925 11.0449 4.925C10.7549 4.925 10.4939 4.99267 10.2619 5.128C10.0396 5.26333 9.85592 5.45183 9.71092 5.6935C9.57558 5.9255 9.50792 6.19133 9.50792 6.491C9.50792 6.839 9.58525 7.13383 9.73992 7.3755C9.90425 7.6075 10.1072 7.7815 10.3489 7.8975C10.5906 8.00383 10.8274 8.057 11.0594 8.057ZM18.8255 10.116C18.3809 10.116 17.9604 10.029 17.564 9.855C17.1774 9.681 16.839 9.43933 16.549 9.13C16.259 8.811 16.0319 8.43883 15.8675 8.0135C15.7129 7.5785 15.6355 7.10483 15.6355 6.5925V3.968C15.6355 3.77467 15.6549 3.59583 15.6935 3.4315C15.7322 3.26717 15.824 3.13183 15.969 3.0255C16.1237 2.91917 16.3799 2.866 16.7375 2.866C17.0952 2.866 17.3465 2.91917 17.4915 3.0255C17.6462 3.13183 17.738 3.272 17.767 3.446C17.8057 3.61033 17.825 3.78917 17.825 3.9825V6.5925C17.825 6.87283 17.8734 7.11933 17.97 7.332C18.0764 7.535 18.2262 7.68967 18.4195 7.796C18.6225 7.90233 18.8594 7.9555 19.13 7.9555C19.4104 7.9555 19.6472 7.90233 19.8405 7.796C20.0435 7.68 20.1982 7.5205 20.3045 7.3175C20.4205 7.1145 20.4785 6.87283 20.4785 6.5925V3.9535C20.4785 3.76017 20.4979 3.58133 20.5365 3.417C20.5752 3.25267 20.667 3.12217 20.812 3.0255C20.9667 2.91917 21.2229 2.866 21.5805 2.866C21.9382 2.866 22.1895 2.91917 22.3345 3.0255C22.4892 3.13183 22.581 3.272 22.61 3.446C22.6487 3.61033 22.668 3.78433 22.668 3.968V9.072C22.668 9.25567 22.6487 9.42967 22.61 9.594C22.581 9.74867 22.4892 9.87433 22.3345 9.971C22.1799 10.0677 21.9285 10.116 21.5805 10.116C21.3195 10.116 21.1165 10.087 20.9715 10.029C20.8265 9.971 20.7202 9.8985 20.6525 9.8115C20.5849 9.7245 20.5414 9.63267 20.522 9.536C20.5124 9.43933 20.5075 9.35233 20.5075 9.275L20.696 9.1155C20.667 9.15417 20.6042 9.22667 20.5075 9.333C20.4109 9.43933 20.2804 9.55533 20.116 9.681C19.9614 9.797 19.7777 9.8985 19.565 9.9855C19.3524 10.0725 19.1059 10.116 18.8255 10.116ZM24.9093 10.116C24.5516 10.116 24.2955 10.0677 24.1408 9.971C23.9958 9.86467 23.904 9.72933 23.8653 9.565C23.8363 9.391 23.8218 9.21217 23.8218 9.0285V3.9245C23.8218 3.74083 23.8411 3.57167 23.8798 3.417C23.9185 3.25267 24.0103 3.12217 24.1553 3.0255C24.31 2.92883 24.5661 2.8805 24.9238 2.8805C25.2331 2.8805 25.4603 2.924 25.6053 3.011C25.7503 3.08833 25.8421 3.185 25.8808 3.301C25.9291 3.417 25.9533 3.52817 25.9533 3.6345C25.9533 3.73117 25.963 3.79883 25.9823 3.8375L25.8953 4.113C25.9146 3.968 25.9871 3.823 26.1128 3.678C26.2481 3.52333 26.4125 3.388 26.6058 3.272C26.8088 3.14633 27.0215 3.04967 27.2438 2.982C27.4758 2.91433 27.703 2.8805 27.9253 2.8805C28.3893 2.8805 28.8001 2.9675 29.1578 3.1415C29.5251 3.30583 29.8345 3.5475 30.0858 3.8665C30.3371 4.1855 30.5256 4.5625 30.6513 4.9975C30.7866 5.42283 30.8543 5.89167 30.8543 6.404V9.043C30.8543 9.22667 30.835 9.4055 30.7963 9.5795C30.7673 9.74383 30.6755 9.87433 30.5208 9.971C30.3758 10.0677 30.1245 10.116 29.7668 10.116C29.3995 10.116 29.1385 10.0677 28.9838 9.971C28.8388 9.86467 28.747 9.72933 28.7083 9.565C28.6696 9.391 28.6503 9.21217 28.6503 9.0285V6.404C28.6503 6.114 28.602 5.8675 28.5053 5.6645C28.4086 5.4615 28.2636 5.30683 28.0703 5.2005C27.877 5.0845 27.6401 5.0265 27.3598 5.0265C27.0795 5.0265 26.8378 5.0845 26.6348 5.2005C26.4318 5.3165 26.2723 5.476 26.1563 5.679C26.05 5.882 25.9968 6.12367 25.9968 6.404V9.043C25.9968 9.22667 25.9775 9.4055 25.9388 9.5795C25.9098 9.74383 25.818 9.87433 25.6633 9.971C25.5183 10.0677 25.267 10.116 24.9093 10.116ZM35.5771 10.1305C35.0841 10.1305 34.6588 10.0773 34.3011 9.971C33.9531 9.86467 33.6631 9.70033 33.4311 9.478C33.1991 9.25567 33.0251 8.97533 32.9091 8.637C32.8028 8.289 32.7496 7.87817 32.7496 7.4045V1.5175C32.7496 1.32417 32.7641 1.15017 32.7931 0.995499C32.8318 0.840833 32.9284 0.715166 33.0831 0.6185C33.2378 0.512166 33.4891 0.458999 33.8371 0.458999C34.1851 0.458999 34.4364 0.512166 34.5911 0.6185C34.7458 0.724833 34.8376 0.860166 34.8666 1.0245C34.9053 1.18883 34.9246 1.36767 34.9246 1.561V7.3175C34.9246 7.47217 34.9343 7.60267 34.9536 7.709C34.9826 7.80567 35.0213 7.87817 35.0696 7.9265C35.1179 7.97483 35.1856 8.00867 35.2726 8.028C35.3596 8.04733 35.4659 8.057 35.5916 8.057C35.8043 8.057 35.9928 8.07633 36.1571 8.115C36.3214 8.15367 36.4471 8.24067 36.5341 8.376C36.6308 8.51133 36.6791 8.7385 36.6791 9.0575C36.6791 9.4055 36.6259 9.65683 36.5196 9.8115C36.4133 9.96617 36.2731 10.058 36.0991 10.087C35.9348 10.116 35.7608 10.1305 35.5771 10.1305ZM32.3001 2.9965H33.8951L35.8961 2.9385C36.0798 2.9385 36.2538 2.95783 36.4181 2.9965C36.5824 3.0255 36.7178 3.11733 36.8241 3.272C36.9304 3.42667 36.9836 3.68283 36.9836 4.0405C36.9836 4.36917 36.9304 4.61083 36.8241 4.7655C36.7274 4.92017 36.5969 5.02167 36.4326 5.07C36.2683 5.10867 36.0894 5.128 35.8961 5.128L33.9966 5.0845H32.2421C31.9618 5.07483 31.7636 4.99267 31.6476 4.838C31.5413 4.67367 31.4881 4.403 31.4881 4.026C31.4881 3.678 31.5558 3.42183 31.6911 3.2575C31.8264 3.0835 32.0294 2.9965 32.3001 2.9965ZM38.8995 10.1305C38.5419 10.1305 38.2857 10.0822 38.131 9.9855C37.986 9.87917 37.8942 9.739 37.8555 9.565C37.8265 9.391 37.812 9.21217 37.812 9.0285V3.968C37.812 3.77467 37.8314 3.59583 37.87 3.4315C37.9087 3.26717 38.0005 3.13667 38.1455 3.04C38.3002 2.93367 38.5564 2.8805 38.914 2.8805C39.2524 2.8805 39.494 2.92883 39.639 3.0255C39.7937 3.1125 39.8904 3.21883 39.929 3.3445C39.9677 3.4605 39.987 3.562 39.987 3.649L39.813 3.736C39.8324 3.69733 39.8807 3.62967 39.958 3.533C40.045 3.42667 40.161 3.32033 40.306 3.214C40.451 3.098 40.625 3.00133 40.828 2.924C41.0407 2.84667 41.2824 2.808 41.553 2.808C41.6594 2.808 41.7754 2.81767 41.901 2.837C42.0364 2.84667 42.1717 2.87567 42.307 2.924C42.452 2.96267 42.5825 3.02067 42.6985 3.098C42.8145 3.16567 42.9064 3.25267 42.974 3.359C43.0514 3.46533 43.09 3.59583 43.09 3.7505C43.09 4.14683 42.9982 4.48517 42.8145 4.7655C42.6309 5.03617 42.3989 5.1715 42.1185 5.1715C41.9542 5.1715 41.8382 5.157 41.7705 5.128C41.7029 5.099 41.6449 5.07 41.5965 5.041C41.5579 5.012 41.5095 4.98783 41.4515 4.9685C41.3935 4.9395 41.2872 4.925 41.1325 4.925C40.9875 4.925 40.8474 4.94433 40.712 4.983C40.5864 5.02167 40.4655 5.0845 40.3495 5.1715C40.2432 5.24883 40.1562 5.35033 40.0885 5.476C40.0305 5.592 40.0015 5.7225 40.0015 5.8675V9.0575C40.0015 9.24117 39.9822 9.42 39.9435 9.594C39.9145 9.75833 39.8227 9.88883 39.668 9.9855C39.5134 10.0822 39.2572 10.1305 38.8995 10.1305ZM45.8608 13.0595C45.4644 12.8855 45.2324 12.6922 45.1648 12.4795C45.1068 12.2668 45.1599 11.9817 45.3243 11.624L48.9638 3.4895C49.1281 3.1125 49.3069 2.89017 49.5003 2.8225C49.7033 2.74517 50.0029 2.78383 50.3993 2.9385C50.7859 3.12217 51.0083 3.3155 51.0663 3.5185C51.1339 3.7215 51.0904 3.99217 50.9358 4.3305L47.2818 12.523C47.1174 12.9 46.9386 13.1272 46.7453 13.2045C46.5519 13.2818 46.2571 13.2335 45.8608 13.0595ZM47.1223 9.681L43.7148 4.49C43.5021 4.171 43.4151 3.90517 43.4538 3.6925C43.5021 3.47983 43.6954 3.26233 44.0338 3.04C44.4108 2.808 44.7008 2.721 44.9038 2.779C45.1164 2.82733 45.3291 3.01583 45.5418 3.3445L48.0503 7.187L47.1223 9.681Z" fill="#F5F5F5"/>
</svg>
