<svg width="59" height="59" viewBox="0 0 59 59" fill="none" xmlns="http://www.w3.org/2000/svg">
<path d="M14.9376 28.19C14.4576 28.19 14.0042 28.1 13.5776 27.92C13.1576 27.7333 12.7876 27.48 12.4676 27.16C12.1542 26.8333 11.9042 26.4567 11.7176 26.03C11.5376 25.6033 11.4476 25.1433 11.4476 24.65C11.4476 24.15 11.5342 23.6833 11.7076 23.25C11.8876 22.81 12.1309 22.4233 12.4376 22.09C12.7509 21.7567 13.1142 21.4967 13.5276 21.31C13.9409 21.1233 14.3842 21.03 14.8576 21.03C15.3376 21.03 15.7876 21.1233 16.2076 21.31C16.6342 21.49 17.0042 21.7433 17.3176 22.07C17.6309 22.3967 17.8776 22.7767 18.0576 23.21C18.2442 23.6433 18.3376 24.1133 18.3376 24.62C18.3376 25.1067 18.2476 25.5667 18.0676 26C17.8942 26.4267 17.6509 26.8067 17.3376 27.14C17.0242 27.4667 16.6609 27.7233 16.2476 27.91C15.8409 28.0967 15.4042 28.19 14.9376 28.19ZM14.8876 26.67C15.1542 26.67 15.4042 26.6167 15.6376 26.51C15.8709 26.4033 16.0742 26.26 16.2476 26.08C16.4276 25.8933 16.5642 25.6767 16.6576 25.43C16.7576 25.1767 16.8076 24.9033 16.8076 24.61C16.8076 24.33 16.7576 24.0667 16.6576 23.82C16.5576 23.5667 16.4176 23.3467 16.2376 23.16C16.0642 22.9667 15.8609 22.8167 15.6276 22.71C15.4009 22.6033 15.1542 22.55 14.8876 22.55C14.6276 22.55 14.3809 22.6033 14.1476 22.71C13.9209 22.8167 13.7176 22.9667 13.5376 23.16C13.3642 23.3467 13.2242 23.5667 13.1176 23.82C13.0176 24.0667 12.9676 24.3333 12.9676 24.62C12.9676 24.9 13.0176 25.1667 13.1176 25.42C13.2242 25.6667 13.3642 25.8833 13.5376 26.07C13.7176 26.2567 13.9209 26.4033 14.1476 26.51C14.3742 26.6167 14.6209 26.67 14.8876 26.67ZM21.9337 28.18C21.447 28.18 21.017 28.0867 20.6437 27.9C20.277 27.7067 19.9637 27.4533 19.7037 27.14C19.4503 26.82 19.2603 26.4633 19.1337 26.07C19.007 25.67 18.9437 25.2633 18.9437 24.85V21.86C18.9437 21.7267 18.9537 21.6033 18.9737 21.49C19.0003 21.37 19.067 21.2733 19.1737 21.2C19.2803 21.1267 19.457 21.09 19.7037 21.09C19.957 21.09 20.137 21.1267 20.2437 21.2C20.3503 21.2733 20.4137 21.37 20.4337 21.49C20.4603 21.6033 20.4737 21.73 20.4737 21.87V24.85C20.4737 25.1433 20.5203 25.4267 20.6137 25.7C20.7137 25.9733 20.8737 26.2 21.0937 26.38C21.3137 26.56 21.6037 26.65 21.9637 26.65C22.2703 26.65 22.5337 26.5767 22.7537 26.43C22.9737 26.2767 23.1437 26.0667 23.2637 25.8C23.3837 25.5267 23.4437 25.2067 23.4437 24.84V21.8C23.4437 21.68 23.457 21.5667 23.4837 21.46C23.5103 21.3533 23.577 21.2667 23.6837 21.2C23.7903 21.1267 23.967 21.09 24.2137 21.09C24.4603 21.09 24.6337 21.13 24.7337 21.21C24.8403 21.2833 24.9037 21.3767 24.9237 21.49C24.9503 21.6033 24.9637 21.73 24.9637 21.87V24.87C24.9637 25.29 24.897 25.6967 24.7637 26.09C24.637 26.4833 24.4437 26.8367 24.1837 27.15C23.9303 27.4633 23.6137 27.7133 23.2337 27.9C22.8603 28.0867 22.427 28.18 21.9337 28.18ZM31.0184 21.09C31.1318 21.09 31.2351 21.1 31.3284 21.12C31.4218 21.14 31.4984 21.1967 31.5584 21.29C31.6251 21.3767 31.6584 21.53 31.6584 21.75C31.6584 21.9567 31.6251 22.1067 31.5584 22.2C31.4984 22.2933 31.4184 22.35 31.3184 22.37C31.2184 22.39 31.1118 22.4 30.9984 22.4H29.3884V27.35C29.3884 27.4767 29.3751 27.5967 29.3484 27.71C29.3284 27.8233 29.2651 27.9167 29.1584 27.99C29.0584 28.0567 28.8851 28.09 28.6384 28.09C28.3984 28.09 28.2251 28.0567 28.1184 27.99C28.0118 27.9167 27.9484 27.8233 27.9284 27.71C27.9084 27.59 27.8984 27.4667 27.8984 27.34V22.4H26.2684C26.1618 22.4 26.0584 22.39 25.9584 22.37C25.8584 22.3433 25.7784 22.2867 25.7184 22.2C25.6584 22.1067 25.6284 21.9533 25.6284 21.74C25.6284 21.5267 25.6584 21.3767 25.7184 21.29C25.7784 21.1967 25.8584 21.14 25.9584 21.12C26.0584 21.1 26.1618 21.09 26.2684 21.09H31.0184ZM37.9649 28.19C37.4849 28.19 37.0316 28.1 36.6049 27.92C36.1849 27.7333 35.8149 27.48 35.4949 27.16C35.1816 26.8333 34.9316 26.4567 34.7449 26.03C34.5649 25.6033 34.4749 25.1433 34.4749 24.65C34.4749 24.15 34.5616 23.6833 34.7349 23.25C34.9149 22.81 35.1583 22.4233 35.4649 22.09C35.7783 21.7567 36.1416 21.4967 36.5549 21.31C36.9683 21.1233 37.4116 21.03 37.8849 21.03C38.3649 21.03 38.8149 21.1233 39.2349 21.31C39.6616 21.49 40.0316 21.7433 40.3449 22.07C40.6583 22.3967 40.9049 22.7767 41.0849 23.21C41.2716 23.6433 41.3649 24.1133 41.3649 24.62C41.3649 25.1067 41.2749 25.5667 41.0949 26C40.9216 26.4267 40.6783 26.8067 40.3649 27.14C40.0516 27.4667 39.6883 27.7233 39.2749 27.91C38.8683 28.0967 38.4316 28.19 37.9649 28.19ZM37.9149 26.67C38.1816 26.67 38.4316 26.6167 38.6649 26.51C38.8983 26.4033 39.1016 26.26 39.2749 26.08C39.4549 25.8933 39.5916 25.6767 39.6849 25.43C39.7849 25.1767 39.8349 24.9033 39.8349 24.61C39.8349 24.33 39.7849 24.0667 39.6849 23.82C39.5849 23.5667 39.4449 23.3467 39.2649 23.16C39.0916 22.9667 38.8883 22.8167 38.6549 22.71C38.4283 22.6033 38.1816 22.55 37.9149 22.55C37.6549 22.55 37.4083 22.6033 37.1749 22.71C36.9483 22.8167 36.7449 22.9667 36.5649 23.16C36.3916 23.3467 36.2516 23.5667 36.1449 23.82C36.0449 24.0667 35.9949 24.3333 35.9949 24.62C35.9949 24.9 36.0449 25.1667 36.1449 25.42C36.2516 25.6667 36.3916 25.8833 36.5649 26.07C36.7449 26.2567 36.9483 26.4033 37.1749 26.51C37.4016 26.6167 37.6483 26.67 37.9149 26.67ZM42.801 28.09C42.561 28.09 42.3877 28.0567 42.281 27.99C42.1743 27.9167 42.1077 27.82 42.081 27.7C42.061 27.58 42.051 27.4567 42.051 27.33V21.86C42.051 21.5667 42.1077 21.3667 42.221 21.26C42.3343 21.1533 42.5377 21.1 42.831 21.1H46.611C46.7443 21.1 46.8677 21.1133 46.981 21.14C47.0943 21.16 47.1843 21.2233 47.251 21.33C47.3243 21.4367 47.361 21.6167 47.361 21.87C47.361 22.11 47.3243 22.2833 47.251 22.39C47.1777 22.4967 47.081 22.5633 46.961 22.59C46.8477 22.61 46.7243 22.62 46.591 22.62H43.571V23.91H45.621C45.7543 23.91 45.871 23.92 45.971 23.94C46.0777 23.96 46.161 24.0167 46.221 24.11C46.281 24.2033 46.311 24.36 46.311 24.58C46.311 24.7933 46.281 24.9467 46.221 25.04C46.161 25.1267 46.0777 25.18 45.971 25.2C45.871 25.22 45.751 25.23 45.611 25.23H43.571V27.34C43.571 27.4667 43.5577 27.59 43.531 27.71C43.5043 27.8233 43.4377 27.9167 43.331 27.99C43.231 28.0567 43.0543 28.09 42.801 28.09ZM17.047 40.19C16.567 40.19 16.1136 40.1 15.687 39.92C15.267 39.7333 14.897 39.48 14.577 39.16C14.2636 38.8333 14.0136 38.4567 13.827 38.03C13.647 37.6033 13.557 37.1433 13.557 36.65C13.557 36.15 13.6436 35.6833 13.817 35.25C13.997 34.81 14.2403 34.4233 14.547 34.09C14.8603 33.7567 15.2236 33.4967 15.637 33.31C16.0503 33.1233 16.4936 33.03 16.967 33.03C17.447 33.03 17.897 33.1233 18.317 33.31C18.7436 33.49 19.1136 33.7433 19.427 34.07C19.7403 34.3967 19.987 34.7767 20.167 35.21C20.3536 35.6433 20.447 36.1133 20.447 36.62C20.447 37.1067 20.357 37.5667 20.177 38C20.0036 38.4267 19.7603 38.8067 19.447 39.14C19.1336 39.4667 18.7703 39.7233 18.357 39.91C17.9503 40.0967 17.5136 40.19 17.047 40.19ZM16.997 38.67C17.2636 38.67 17.5136 38.6167 17.747 38.51C17.9803 38.4033 18.1836 38.26 18.357 38.08C18.537 37.8933 18.6736 37.6767 18.767 37.43C18.867 37.1767 18.917 36.9033 18.917 36.61C18.917 36.33 18.867 36.0667 18.767 35.82C18.667 35.5667 18.527 35.3467 18.347 35.16C18.1736 34.9667 17.9703 34.8167 17.737 34.71C17.5103 34.6033 17.2636 34.55 16.997 34.55C16.737 34.55 16.4903 34.6033 16.257 34.71C16.0303 34.8167 15.827 34.9667 15.647 35.16C15.4736 35.3467 15.3336 35.5667 15.227 35.82C15.127 36.0667 15.077 36.3333 15.077 36.62C15.077 36.9 15.127 37.1667 15.227 37.42C15.3336 37.6667 15.4736 37.8833 15.647 38.07C15.827 38.2567 16.0303 38.4033 16.257 38.51C16.4836 38.6167 16.7303 38.67 16.997 38.67ZM21.863 40.09C21.623 40.09 21.4497 40.0533 21.343 39.98C21.2364 39.9067 21.1697 39.81 21.143 39.69C21.123 39.57 21.113 39.4467 21.113 39.32V33.85C21.113 33.7233 21.123 33.6033 21.143 33.49C21.1697 33.3767 21.2364 33.2833 21.343 33.21C21.4497 33.1367 21.6264 33.1 21.873 33.1H23.953C24.2264 33.1 24.5064 33.15 24.793 33.25C25.0797 33.35 25.343 33.5033 25.583 33.71C25.823 33.9167 26.0164 34.1733 26.163 34.48C26.3097 34.7867 26.383 35.15 26.383 35.57C26.383 35.85 26.3397 36.12 26.253 36.38C26.173 36.64 26.0497 36.88 25.883 37.1C25.7164 37.32 25.5097 37.51 25.263 37.67C25.0164 37.8233 24.733 37.9333 24.413 38H22.633V39.33C22.633 39.4567 22.6197 39.58 22.593 39.7C22.5664 39.8133 22.4997 39.9067 22.393 39.98C22.2864 40.0533 22.1097 40.09 21.863 40.09ZM26.083 39.89C25.8364 40.07 25.6397 40.14 25.493 40.1C25.3464 40.06 25.193 39.93 25.033 39.71L23.273 37.19L24.983 36.97L26.273 38.82C26.3864 38.98 26.4564 39.1167 26.483 39.23C26.5164 39.3433 26.4997 39.45 26.433 39.55C26.373 39.65 26.2564 39.7633 26.083 39.89ZM22.633 36.5H24.023C24.1164 36.5 24.213 36.4833 24.313 36.45C24.413 36.41 24.503 36.3533 24.583 36.28C24.663 36.2067 24.7297 36.11 24.783 35.99C24.8364 35.87 24.863 35.7267 24.863 35.56C24.863 35.3667 24.823 35.2 24.743 35.06C24.6697 34.92 24.563 34.8133 24.423 34.74C24.283 34.66 24.1197 34.62 23.933 34.62H22.633V36.5ZM27.8963 40.09C27.663 40.09 27.493 40.0533 27.3863 39.98C27.2863 39.9067 27.2197 39.8133 27.1863 39.7C27.153 39.58 27.1363 39.4533 27.1363 39.32V33.85C27.1363 33.7233 27.1497 33.6033 27.1763 33.49C27.203 33.37 27.2697 33.2733 27.3763 33.2C27.483 33.1267 27.6597 33.0933 27.9063 33.1H29.7063C30.1863 33.1 30.633 33.1867 31.0463 33.36C31.4597 33.5333 31.823 33.7767 32.1363 34.09C32.4497 34.4033 32.693 34.77 32.8663 35.19C33.0397 35.61 33.1263 36.0667 33.1263 36.56C33.1263 37.06 33.0397 37.5267 32.8663 37.96C32.693 38.3867 32.4497 38.76 32.1363 39.08C31.823 39.3933 31.4563 39.64 31.0363 39.82C30.623 40 30.1697 40.09 29.6763 40.09H27.8963ZM28.6563 38.56H29.7063C30.0663 38.56 30.3897 38.4767 30.6763 38.31C30.963 38.1367 31.1897 37.9033 31.3563 37.61C31.523 37.3167 31.6063 36.98 31.6063 36.6C31.6063 36.22 31.523 35.88 31.3563 35.58C31.1897 35.28 30.963 35.0467 30.6763 34.88C30.3897 34.7067 30.063 34.62 29.6963 34.62H28.6563V38.56ZM34.6663 40.09C34.4263 40.09 34.2529 40.0567 34.1463 39.99C34.0396 39.9167 33.9729 39.82 33.9463 39.7C33.9263 39.58 33.9163 39.4567 33.9163 39.33V33.86C33.9163 33.5667 33.9729 33.3667 34.0863 33.26C34.1996 33.1533 34.4029 33.1 34.6963 33.1H38.4763C38.6096 33.1 38.7329 33.1133 38.8463 33.14C38.9596 33.16 39.0529 33.2233 39.1263 33.33C39.1996 33.4367 39.2363 33.6167 39.2363 33.87C39.2363 34.11 39.1996 34.2833 39.1263 34.39C39.0529 34.4967 38.9563 34.5633 38.8363 34.59C38.7229 34.61 38.5996 34.62 38.4663 34.62H35.4363V35.91H37.4963C37.6296 35.91 37.7463 35.92 37.8463 35.94C37.9529 35.96 38.0363 36.0167 38.0963 36.11C38.1563 36.2033 38.1863 36.36 38.1863 36.58C38.1863 36.7867 38.1563 36.9367 38.0963 37.03C38.0363 37.1233 37.9529 37.18 37.8463 37.2C37.7396 37.22 37.6163 37.23 37.4763 37.23H35.4363V38.57H38.4763C38.6096 38.57 38.7329 38.5833 38.8463 38.61C38.9596 38.6367 39.0529 38.7033 39.1263 38.81C39.1996 38.91 39.2363 39.0867 39.2363 39.34C39.2363 39.58 39.1996 39.7533 39.1263 39.86C39.0529 39.9667 38.9563 40.03 38.8363 40.05C38.7229 40.0767 38.5996 40.09 38.4663 40.09H34.6663ZM40.7498 40.09C40.5098 40.09 40.3364 40.0533 40.2298 39.98C40.1231 39.9067 40.0564 39.81 40.0298 39.69C40.0098 39.57 39.9998 39.4467 39.9998 39.32V33.85C39.9998 33.7233 40.0098 33.6033 40.0298 33.49C40.0564 33.3767 40.1231 33.2833 40.2298 33.21C40.3364 33.1367 40.5131 33.1 40.7598 33.1H42.8398C43.1131 33.1 43.3931 33.15 43.6798 33.25C43.9664 33.35 44.2298 33.5033 44.4698 33.71C44.7098 33.9167 44.9031 34.1733 45.0498 34.48C45.1964 34.7867 45.2698 35.15 45.2698 35.57C45.2698 35.85 45.2264 36.12 45.1398 36.38C45.0598 36.64 44.9364 36.88 44.7698 37.1C44.6031 37.32 44.3964 37.51 44.1498 37.67C43.9031 37.8233 43.6198 37.9333 43.2998 38H41.5198V39.33C41.5198 39.4567 41.5064 39.58 41.4798 39.7C41.4531 39.8133 41.3864 39.9067 41.2798 39.98C41.1731 40.0533 40.9964 40.09 40.7498 40.09ZM44.9698 39.89C44.7231 40.07 44.5264 40.14 44.3798 40.1C44.2331 40.06 44.0798 39.93 43.9198 39.71L42.1598 37.19L43.8698 36.97L45.1598 38.82C45.2731 38.98 45.3431 39.1167 45.3698 39.23C45.4031 39.3433 45.3864 39.45 45.3198 39.55C45.2598 39.65 45.1431 39.7633 44.9698 39.89ZM41.5198 36.5H42.9098C43.0031 36.5 43.0998 36.4833 43.1998 36.45C43.2998 36.41 43.3898 36.3533 43.4698 36.28C43.5498 36.2067 43.6164 36.11 43.6698 35.99C43.7231 35.87 43.7498 35.7267 43.7498 35.56C43.7498 35.3667 43.7098 35.2 43.6298 35.06C43.5564 34.92 43.4498 34.8133 43.3098 34.74C43.1698 34.66 43.0064 34.62 42.8198 34.62H41.5198V36.5Z" fill="black"/>
<mask id="mask0_210_702" style="mask-type:alpha" maskUnits="userSpaceOnUse" x="0" y="0" width="59" height="59">
<circle cx="29.5" cy="29.5" r="29.5" fill="#FFCE31"/>
</mask>
<g mask="url(#mask0_210_702)">
<rect x="24.1367" y="44.7307" width="4" height="14" transform="rotate(4.96394 24.1367 44.7307)" fill="black"/>
<rect x="27.1367" y="-0.269287" width="4" height="14" transform="rotate(4.96394 27.1367 -0.269287)" fill="black"/>
<rect x="9.19336" y="43.4326" width="4" height="14" transform="rotate(4.96394 9.19336 43.4326)" fill="black"/>
<rect x="12.1934" y="-1.56738" width="4" height="14" transform="rotate(4.96394 12.1934 -1.56738)" fill="black"/>
<rect x="4.21094" y="43" width="4" height="14" transform="rotate(4.96394 4.21094 43)" fill="black"/>
<rect x="7.21094" y="-2" width="4" height="14" transform="rotate(4.96394 7.21094 -2)" fill="black"/>
<rect x="39.0801" y="46.0286" width="4" height="14" transform="rotate(4.96394 39.0801 46.0286)" fill="black"/>
<rect x="42.0801" y="1.02856" width="4" height="14" transform="rotate(4.96394 42.0801 1.02856)" fill="black"/>
<rect x="29.1172" y="45.1633" width="4" height="14" transform="rotate(4.96394 29.1172 45.1633)" fill="black"/>
<rect x="32.1172" y="0.16333" width="4" height="14" transform="rotate(4.96394 32.1172 0.16333)" fill="black"/>
<rect x="14.1738" y="43.8652" width="4" height="14" transform="rotate(4.96394 14.1738 43.8652)" fill="black"/>
<rect x="17.1738" y="-1.13477" width="4" height="14" transform="rotate(4.96394 17.1738 -1.13477)" fill="black"/>
<rect x="44.0625" y="46.4612" width="4" height="14" transform="rotate(4.96394 44.0625 46.4612)" fill="black"/>
<rect x="47.0625" y="1.46118" width="4" height="14" transform="rotate(4.96394 47.0625 1.46118)" fill="black"/>
<rect x="34.0996" y="45.5959" width="4" height="14" transform="rotate(4.96394 34.0996 45.5959)" fill="black"/>
<rect x="37.0996" y="0.595947" width="4" height="14" transform="rotate(4.96394 37.0996 0.595947)" fill="black"/>
<rect x="19.1562" y="44.2979" width="4" height="14" transform="rotate(4.96394 19.1562 44.2979)" fill="black"/>
<rect x="22.1562" y="-0.702148" width="4" height="14" transform="rotate(4.96394 22.1562 -0.702148)" fill="black"/>
<rect x="49.043" y="46.8938" width="4" height="14" transform="rotate(4.96394 49.043 46.8938)" fill="black"/>
<rect x="52.043" y="1.8938" width="4" height="14" transform="rotate(4.96394 52.043 1.8938)" fill="black"/>
</g>
</svg>
