<svg width="37" height="20" viewBox="0 0 37 20" fill="none" xmlns="http://www.w3.org/2000/svg">
<path d="M5.42 15.38C4.71333 15.38 4.09333 15.2933 3.56 15.12C3.04 14.9467 2.59333 14.74 2.22 14.5C1.86 14.2467 1.57333 14 1.36 13.76C1.14667 13.52 1 13.34 0.92 13.22C0.693333 12.9267 0.553333 12.6733 0.5 12.46C0.446667 12.2333 0.473333 12.0067 0.58 11.78C0.7 11.5533 0.9 11.3067 1.18 11.04C1.46 10.8 1.72 10.6733 1.96 10.66C2.21333 10.6333 2.46 10.6933 2.7 10.84C2.94 10.9867 3.17333 11.1933 3.4 11.46C3.72 11.8467 4.03333 12.12 4.34 12.28C4.66 12.4267 4.99333 12.5 5.34 12.5C5.78 12.5 6.15333 12.4467 6.46 12.34C6.76667 12.2333 7 12.0667 7.16 11.84C7.32 11.6 7.4 11.3 7.4 10.94C7.4 10.6467 7.28667 10.4133 7.06 10.24C6.84667 10.0533 6.55333 9.89333 6.18 9.76C5.82 9.62667 5.41333 9.5 4.96 9.38C4.52 9.24667 4.08 9.09333 3.64 8.92C3.33333 8.81333 3.04 8.68 2.76 8.52C2.48 8.36 2.21333 8.18 1.96 7.98C1.70667 7.78 1.48667 7.54 1.3 7.26C1.12667 6.98 0.986667 6.66 0.88 6.3C0.786667 5.94 0.74 5.52667 0.74 5.06C0.74 4.27333 0.933333 3.57333 1.32 2.96C1.70667 2.34667 2.24 1.86667 2.92 1.52C3.61333 1.16 4.40667 0.979999 5.3 0.979999C5.9 0.979999 6.42 1.03333 6.86 1.14C7.31333 1.24667 7.69333 1.37333 8 1.52C8.30667 1.66667 8.54667 1.81333 8.72 1.96C8.90667 2.09333 9.03333 2.2 9.1 2.28C9.47333 2.62667 9.68 2.92667 9.72 3.18C9.76 3.42 9.62 3.76 9.3 4.2C8.96667 4.66667 8.63333 4.92667 8.3 4.98C7.98 5.03333 7.61333 4.92 7.2 4.64C7.04 4.49333 6.88 4.36 6.72 4.24C6.56 4.12 6.36667 4.02667 6.14 3.96C5.92667 3.88 5.64 3.84 5.28 3.84C5.06667 3.84 4.86667 3.87333 4.68 3.94C4.49333 3.99333 4.33333 4.07333 4.2 4.18C4.06667 4.28667 3.96 4.42 3.88 4.58C3.8 4.72667 3.76 4.89333 3.76 5.08C3.76 5.38667 3.86 5.63333 4.06 5.82C4.27333 6.00667 4.54667 6.16 4.88 6.28C5.22667 6.38667 5.60667 6.49333 6.02 6.6C6.44667 6.69333 6.88 6.80667 7.32 6.94C7.72 7.07333 8.10667 7.24 8.48 7.44C8.85333 7.62667 9.18667 7.86667 9.48 8.16C9.77333 8.45333 10.0067 8.82 10.18 9.26C10.3667 9.7 10.46 10.24 10.46 10.88C10.46 11.68 10.3067 12.3667 10 12.94C9.69333 13.5133 9.28667 13.98 8.78 14.34C8.27333 14.7 7.72667 14.96 7.14 15.12C6.55333 15.2933 5.98 15.38 5.42 15.38ZM19.998 12.46C20.4113 12.82 20.6313 13.1667 20.658 13.5C20.6846 13.82 20.5046 14.1933 20.118 14.62C19.8246 14.9267 19.5646 15.1267 19.338 15.22C19.1246 15.3133 18.9113 15.3133 18.698 15.22C18.4846 15.14 18.238 14.9733 17.958 14.72L14.798 11.96V13.68C14.798 13.9467 14.7713 14.1933 14.718 14.42C14.678 14.6467 14.5513 14.8333 14.338 14.98C14.138 15.1133 13.7913 15.18 13.298 15.18C12.818 15.18 12.4713 15.1133 12.258 14.98C12.0446 14.8333 11.9113 14.6467 11.858 14.42C11.818 14.18 11.798 13.9267 11.798 13.66V2.12C11.798 1.85333 11.8246 1.60667 11.878 1.38C11.9313 1.15333 12.0646 0.973333 12.278 0.84C12.4913 0.693333 12.838 0.619999 13.318 0.619999C13.798 0.619999 14.138 0.693333 14.338 0.84C14.5513 0.973333 14.678 1.16 14.718 1.4C14.7713 1.62667 14.798 1.87333 14.798 2.14V8.18L17.038 6.02C17.3046 5.76667 17.5513 5.59333 17.778 5.5C18.018 5.40667 18.2513 5.4 18.478 5.48C18.7046 5.56 18.9446 5.74 19.198 6.02C19.6246 6.48667 19.8313 6.86667 19.818 7.16C19.8046 7.44 19.598 7.78 19.198 8.18L17.038 10.14L19.998 12.46ZM23.4161 15.18C22.9228 15.18 22.5694 15.1133 22.3561 14.98C22.1561 14.8333 22.0294 14.6467 21.9761 14.42C21.9361 14.18 21.9161 13.9333 21.9161 13.68V6.7C21.9161 6.43333 21.9361 6.18667 21.9761 5.96C22.0294 5.73333 22.1628 5.55333 22.3761 5.42C22.5894 5.27333 22.9428 5.2 23.4361 5.2C23.9161 5.2 24.2561 5.27333 24.4561 5.42C24.6694 5.56667 24.7961 5.75333 24.8361 5.98C24.8894 6.20667 24.9161 6.46 24.9161 6.74V13.7C24.9161 13.9533 24.8894 14.2 24.8361 14.44C24.7961 14.6667 24.6694 14.8467 24.4561 14.98C24.2561 15.1133 23.9094 15.18 23.4161 15.18ZM23.4161 3.74C22.9094 3.74 22.5494 3.66667 22.3361 3.52C22.1228 3.37333 21.9894 3.18 21.9361 2.94C21.8961 2.7 21.8761 2.44667 21.8761 2.18C21.8761 1.9 21.9028 1.64667 21.9561 1.42C22.0094 1.18 22.1428 0.993333 22.3561 0.86C22.5694 0.713332 22.9294 0.639999 23.4361 0.639999C23.9294 0.639999 24.2828 0.713332 24.4961 0.86C24.7094 1.00667 24.8361 1.2 24.8761 1.44C24.9294 1.68 24.9561 1.93333 24.9561 2.2C24.9561 2.46667 24.9294 2.72 24.8761 2.96C24.8361 3.2 24.7094 3.39333 24.4961 3.54C24.2828 3.67333 23.9228 3.74 23.4161 3.74ZM31.8998 15C31.2465 15 30.6665 14.8733 30.1598 14.62C29.6665 14.3533 29.2532 14 28.9198 13.56C28.5998 13.1067 28.3532 12.5867 28.1798 12C28.0198 11.4133 27.9465 10.78 27.9598 10.1C27.9598 9.44667 28.0465 8.82667 28.2198 8.24C28.3932 7.64 28.6398 7.11333 28.9598 6.66C29.2932 6.19333 29.6998 5.83333 30.1798 5.58C30.6732 5.31333 31.2465 5.18 31.8998 5.18C32.4865 5.18 33.0532 5.31333 33.5998 5.58C34.1598 5.84667 34.6532 6.21333 35.0798 6.68C35.5065 7.13333 35.8398 7.66 36.0798 8.26C36.3332 8.86 36.4598 9.49333 36.4598 10.16C36.4598 10.8267 36.3332 11.46 36.0798 12.06C35.8398 12.6467 35.5065 13.16 35.0798 13.6C34.6532 14.04 34.1665 14.3867 33.6198 14.64C33.0732 14.88 32.4998 15 31.8998 15ZM28.0398 19.32C27.5598 19.32 27.2132 19.2467 26.9998 19.1C26.7998 18.9667 26.6732 18.7867 26.6198 18.56C26.5798 18.3467 26.5598 18.1133 26.5598 17.86V6.68C26.5598 6.41333 26.5798 6.17333 26.6198 5.96C26.6598 5.73333 26.7798 5.54667 26.9798 5.4C27.1932 5.25333 27.5398 5.18 28.0198 5.18C28.4332 5.18 28.7598 5.24 28.9998 5.36C29.2532 5.48 29.4332 5.66667 29.5398 5.92V17.84C29.5532 18.0933 29.5332 18.3333 29.4798 18.56C29.4265 18.7867 29.2932 18.9667 29.0798 19.1C28.8798 19.2467 28.5332 19.32 28.0398 19.32ZM31.4798 12.18C31.8532 12.18 32.1865 12.0933 32.4798 11.92C32.7732 11.7333 33.0065 11.4867 33.1798 11.18C33.3665 10.8733 33.4598 10.5333 33.4598 10.16C33.4598 9.77333 33.3732 9.43333 33.1998 9.14C33.0265 8.83333 32.7932 8.59333 32.4998 8.42C32.2065 8.24667 31.8732 8.16 31.4998 8.16C31.1398 8.16 30.8065 8.25333 30.4998 8.44C30.2065 8.61333 29.9732 8.85333 29.7998 9.16C29.6398 9.45333 29.5598 9.78667 29.5598 10.16C29.5598 10.5333 29.6465 10.8733 29.8198 11.18C29.9932 11.4867 30.2265 11.7333 30.5198 11.92C30.8132 12.0933 31.1332 12.18 31.4798 12.18Z" fill="#F5F5F5"/>
</svg>
