<svg width="21" height="29" viewBox="0 0 21 29" fill="none" xmlns="http://www.w3.org/2000/svg">
<path d="M10.8323 28.1428C16.1688 28.1428 20.4948 23.8168 20.4948 18.4804C20.4948 13.144 16.1688 8.81799 10.8323 8.81799C5.49594 8.81799 1.16992 13.144 1.16992 18.4804C1.16992 23.8168 5.49594 28.1428 10.8323 28.1428Z" fill="#D3976E"/>
<path d="M6.00222 6.14453C5.7677 6.14453 5.58008 6.33215 5.58008 6.56668V10.5067C5.58008 10.7412 5.7677 10.9288 6.00222 10.9288H15.6646C15.8992 10.9288 16.0868 10.7412 16.0868 10.5067V6.56668C16.0868 6.33215 15.8992 6.14453 15.6646 6.14453H6.00222ZM15.2425 9.24026C15.2425 9.47479 15.0549 9.6624 14.8204 9.6624H6.89342C6.65889 9.6624 6.47127 9.47479 6.47127 9.24026V7.45787C6.47127 7.22335 6.65889 7.03573 6.89342 7.03573H14.8204C15.0549 7.03573 15.2425 7.22335 15.2425 7.45787V9.24026Z" fill="#D3976E"/>
<path opacity="0.33" d="M14.5389 25.9382C18.9011 23.0301 20.2144 17.3546 17.6816 12.9456L18.1037 13.5084C20.8242 17.5422 19.6985 23.0301 15.6178 25.7975C14.3982 26.6418 13.038 27.1109 11.6777 27.2516C12.7096 26.9701 13.6477 26.548 14.5389 25.9382Z" fill="white"/>
<path opacity="0.5" d="M10.5996 13.8368C9.61463 13.8368 8.81725 14.6341 8.81725 15.5722H7.55081C7.55081 15.713 7.50391 15.8537 7.50391 15.9944H9.2863C9.2863 15.0094 10.0837 14.212 11.0687 14.212C11.4439 14.212 11.7723 14.3527 12.0537 14.5403C11.7254 14.1651 11.2094 13.8368 10.5996 13.8368ZM13.367 18.668C14.1175 18.0113 14.5866 17.0732 14.5866 16.0413C14.5866 14.9625 14.1175 13.9775 13.3201 13.3208C13.8361 13.9306 14.1644 14.728 14.1644 15.5722C14.1644 16.6041 13.6954 17.5892 12.9449 18.1989C13.6954 18.8556 14.1644 19.7937 14.1644 20.8256C14.1644 22.7487 12.5696 24.3435 10.6465 24.3435C9.80225 24.3435 9.00487 24.0151 8.3951 23.4992C9.05177 24.2497 9.98987 24.7656 11.1156 24.7656C13.0387 24.7656 14.6335 23.1708 14.6335 21.2477C14.5866 20.2627 14.1175 19.3246 13.367 18.668Z" fill="#3E4347"/>
<path opacity="0.33" d="M11.068 12.5235C11.9123 12.5235 12.7097 12.8518 13.3194 13.3678C12.6627 12.6173 11.7246 12.1013 10.5989 12.1013C8.67582 12.1013 7.08105 13.6961 7.08105 15.6192H7.5501C7.78463 13.8837 9.23868 12.5235 11.068 12.5235ZM12.8035 16.0413C12.8035 15.4316 12.522 14.9156 12.053 14.5873C12.2406 14.8687 12.3813 15.197 12.3813 15.5723C12.3813 16.5573 11.5839 17.3547 10.5989 17.3547V19.1371C10.7396 19.1371 10.8804 19.184 11.0211 19.184V17.8237C12.0061 17.8237 12.8035 17.0263 12.8035 16.0413ZM11.068 23.0771C12.053 23.0771 12.8504 22.2797 12.8504 21.2947C12.8504 20.6849 12.5689 20.169 12.0999 19.8406C12.2875 20.1221 12.4282 20.4504 12.4282 20.8256C12.4282 21.8107 11.6308 22.608 10.6458 22.608C10.2706 22.608 9.94226 22.4673 9.66083 22.2797C9.94226 22.7957 10.4582 23.0771 11.068 23.0771ZM8.91035 21.3416C8.86344 21.2009 8.86344 21.0602 8.86344 20.9195H7.08105C7.08105 21.9983 7.5501 22.9833 8.34749 23.6399C7.83153 23.0302 7.5032 22.2328 7.5032 21.3885L8.91035 21.3416Z" fill="white"/>
<path d="M17.4467 0L12.1465 7.92694H14.7732L20.6832 0H17.4467Z" fill="#428BC1"/>
<path d="M14.7729 0L9.51953 7.92694H12.1462L17.4465 0H14.7729Z" fill="#E8E8E8"/>
<path d="M12.1469 0L6.89355 7.92694H9.52023L14.7736 0H12.1469Z" fill="#ED4C5C"/>
<path opacity="0.5" d="M2.53155 19.6062C2.53155 14.3529 6.56538 10.0845 11.7249 9.70926C11.4904 9.70926 11.209 9.66235 10.9744 9.66235C6.04942 9.66235 2.0625 13.6493 2.0625 18.6212C2.0625 20.0753 2.43774 21.4824 3.0475 22.7019C2.71917 21.7169 2.53155 20.685 2.53155 19.6062Z" fill="#3E4347"/>
<path d="M6.89343 7.92694H9.52011L4.21984 0H0.983398L6.89343 7.92694Z" fill="#ED4C5C"/>
<path d="M9.51999 7.92694H12.1467L6.89331 0H4.21973L9.51999 7.92694Z" fill="#E8E8E8"/>
<path opacity="0.5" d="M11.2557 1.31348L9.94238 3.28349L13.0381 7.92708H14.7736L15.2426 7.27041L11.2557 1.31348Z" fill="#3E4347"/>
<path d="M12.1469 7.92694H14.7736L9.52023 0H6.89355L12.1469 7.92694Z" fill="#428BC1"/>
</svg>
