<svg width="21" height="29" viewBox="0 0 21 29" fill="none" xmlns="http://www.w3.org/2000/svg">
<path d="M17.4467 0L12.1465 7.92607H14.7732L20.6832 0H17.4467Z" fill="#428BC1"/>
<path d="M14.7729 0L9.51953 7.92607H12.1462L17.4465 0H14.7729Z" fill="#E8E8E8"/>
<path d="M12.1469 0L6.89355 7.92607H9.52023L14.7736 0H12.1469Z" fill="#ED4C5C"/>
<path d="M10.8333 28.1397C16.1697 28.1397 20.4957 23.8142 20.4957 18.4784C20.4957 13.1426 16.1697 8.81702 10.8333 8.81702C5.49691 8.81702 1.1709 13.1426 1.1709 18.4784C1.1709 23.8142 5.49691 28.1397 10.8333 28.1397Z" fill="#B2C1C0"/>
<path d="M6.00222 6.14392C5.7677 6.14392 5.58008 6.33152 5.58008 6.56602V10.5056C5.58008 10.7401 5.7677 10.9277 6.00222 10.9277H15.6646C15.8992 10.9277 16.0868 10.7401 16.0868 10.5056V6.56602C16.0868 6.33152 15.8992 6.14392 15.6646 6.14392H6.00222ZM15.2425 9.23931C15.2425 9.47381 15.0549 9.66141 14.8204 9.66141H6.89342C6.65889 9.66141 6.47127 9.47381 6.47127 9.23931V7.45712C6.47127 7.22262 6.65889 7.03502 6.89342 7.03502H14.8204C15.0549 7.03502 15.2425 7.22262 15.2425 7.45712V9.23931Z" fill="#B2C1C0"/>
<path opacity="0.5" d="M2.53057 19.6043C2.53057 14.3515 6.5644 10.0836 11.724 9.7084C11.4894 9.7084 11.208 9.6615 10.9735 9.6615C6.04845 9.6615 2.06152 13.648 2.06152 18.6194C2.06152 20.0733 2.43676 21.4803 3.04653 22.6997C2.71819 21.7148 2.53057 20.683 2.53057 19.6043Z" fill="#3E4347"/>
<path opacity="0.33" d="M14.5389 25.9357C18.9011 23.0279 20.2144 17.353 17.6816 12.9445C17.8223 13.1321 17.963 13.3197 18.1037 13.5542C20.8242 17.5875 19.6985 23.0748 15.6178 25.8419C14.3982 26.6861 13.038 27.1551 11.6777 27.2958C12.7096 26.9675 13.6477 26.5454 14.5389 25.9357Z" fill="white"/>
<path d="M6.89343 7.92607H9.52011L4.21984 0H0.983398L6.89343 7.92607Z" fill="#ED4C5C"/>
<path d="M9.51999 7.92607H12.1467L6.89331 0H4.21973L9.51999 7.92607Z" fill="#E8E8E8"/>
<path opacity="0.5" d="M11.2547 1.31323L9.94141 3.28303L13.0371 7.92611H14.7726L15.2417 7.26951L11.2547 1.31323Z" fill="#3E4347"/>
<path d="M12.1469 7.92607H14.7736L9.52023 0H6.89355L12.1469 7.92607Z" fill="#428BC1"/>
<path opacity="0.5" d="M10.5987 13.8355C9.61365 13.8355 8.81627 14.6328 8.81627 15.5707H7.54983C7.54983 15.7114 7.50293 15.8521 7.50293 15.9928H9.28532C9.28532 15.0079 10.0827 14.2107 11.0677 14.2107C11.4429 14.2107 11.7713 14.3514 12.0527 14.539C11.7244 14.1638 11.2084 13.8355 10.5987 13.8355ZM14.1165 24.3879H7.54983V24.8569H14.5856V23.0747H14.1165V24.3879ZM10.5987 19.1351C9.61365 19.1351 8.81627 19.9324 8.81627 20.9173V22.6995H9.23841V21.3863C9.23841 20.4014 10.0358 19.6041 11.0208 19.6041C12.9439 19.6041 14.5387 18.0095 14.5387 16.0866C14.5387 15.0079 14.0696 14.0231 13.2722 13.3665C13.7882 13.9762 14.1165 14.7734 14.1165 15.6176C14.1165 17.5405 12.5687 19.1351 10.5987 19.1351Z" fill="#3E4347"/>
<path opacity="0.33" d="M9.28559 22.6526H14.1168V23.0747H9.28559V22.6526ZM11.068 17.8219C12.053 17.8219 12.8504 17.0246 12.8504 16.0397C12.8504 15.43 12.5689 14.9141 12.0999 14.5858C12.2875 14.8672 12.4282 15.1955 12.4282 15.5707C12.4282 16.5556 11.6308 17.3529 10.6458 17.3529C8.72273 17.3529 7.12796 18.9475 7.12796 20.8704V24.3879H7.5501V21.2925C7.5501 19.3696 9.09797 17.8219 11.068 17.8219ZM11.068 12.5222C11.9123 12.5222 12.7097 12.8505 13.3194 13.3664C12.6627 12.616 11.7246 12.1001 10.5989 12.1001C8.67582 12.1001 7.08105 13.6947 7.08105 15.6176H7.5501C7.78463 13.8823 9.23868 12.5222 11.068 12.5222Z" fill="white"/>
</svg>
