<svg width="21" height="29" viewBox="0 0 21 29" fill="none" xmlns="http://www.w3.org/2000/svg">
<path d="M17.4453 0L12.1455 7.92629H14.772L20.6815 0H17.4453Z" fill="#428BC1"/>
<path d="M14.7725 0L9.51953 7.92629H12.146L17.4458 0H14.7725Z" fill="#E8E8E8"/>
<path d="M12.1455 0L6.89258 7.92629H9.51904L14.772 0H12.1455Z" fill="#ED4C5C"/>
<path d="M10.8325 28.1407C16.1685 28.1407 20.4942 23.815 20.4942 18.479C20.4942 13.143 16.1685 8.81738 10.8325 8.81738C5.49656 8.81738 1.1709 13.143 1.1709 18.479C1.1709 23.815 5.49656 28.1407 10.8325 28.1407Z" fill="#FFCE31"/>
<path d="M6.00219 6.14404C5.76768 6.14404 5.58008 6.33165 5.58008 6.56615V10.5059C5.58008 10.7404 5.76768 10.928 6.00219 10.928H15.6638C15.8983 10.928 16.0859 10.7404 16.0859 10.5059V6.56615C16.0859 6.33165 15.8983 6.14404 15.6638 6.14404H6.00219ZM15.2417 9.23952C15.2417 9.47403 15.0541 9.66163 14.8196 9.66163H6.89331C6.65881 9.66163 6.4712 9.47403 6.4712 9.23952V7.45728C6.4712 7.22277 6.65881 7.03516 6.89331 7.03516H14.8196C15.0541 7.03516 15.2417 7.22277 15.2417 7.45728V9.23952Z" fill="#FFCE31"/>
<path opacity="0.5" d="M2.53054 19.6048C2.53054 14.3519 6.56404 10.0839 11.7232 9.70864C11.4887 9.70864 11.2072 9.66174 10.9727 9.66174C6.04812 9.66174 2.06152 13.6483 2.06152 18.6199C2.06152 20.0738 2.43673 21.4808 3.04645 22.7003C2.71814 21.7153 2.53054 20.6835 2.53054 19.6048Z" fill="#89664C"/>
<path opacity="0.33" d="M14.5377 25.9364C18.8995 23.0286 20.2128 17.3535 17.6801 12.9448L18.1022 13.5076C20.8225 17.5411 19.6969 23.0286 15.6165 25.7957C14.397 26.64 13.0369 27.109 11.6768 27.2497C12.7086 26.9683 13.6466 26.5462 14.5377 25.9364Z" fill="white"/>
<path d="M6.89294 7.92629H9.51941L4.21958 0H0.983398L6.89294 7.92629Z" fill="#ED4C5C"/>
<path d="M9.51956 7.92629H12.146L6.89309 0H4.21973L9.51956 7.92629Z" fill="#E8E8E8"/>
<path opacity="0.5" d="M11.2546 1.31323L9.94141 3.28308L13.0369 7.9263H14.7722L15.2412 7.26968L11.2546 1.31323Z" fill="#3E4347"/>
<path d="M12.1455 7.92629H14.772L9.51904 0H6.89258L12.1455 7.92629Z" fill="#428BC1"/>
<path opacity="0.5" d="M8.39355 15.5712V16.0402C8.86257 16.0402 9.28468 15.9464 9.70679 15.7588V15.1021C9.33158 15.3836 8.90947 15.5243 8.39355 15.5712ZM11.489 12.5226H11.9111V22.6532H11.489V12.5226ZM13.2713 23.0753V24.3886H8.39355V24.8576H13.6934V23.0753H13.2713Z" fill="#89664C"/>
<path opacity="0.33" d="M11.9114 22.6533H13.2246V23.0755H11.9114V22.6533ZM10.1761 12.5227H11.4893V12.1006H9.70705C9.70705 13.0855 8.90973 13.8828 7.9248 13.8828V15.6182C8.06551 15.6182 8.20621 15.6182 8.34692 15.5713V14.258C9.37874 14.3049 10.1761 13.5076 10.1761 12.5227ZM10.1761 23.0755V15.5713C10.0354 15.6651 9.89465 15.712 9.75395 15.8058V22.6533H7.97171V24.3887H8.39382V23.0755H10.1761Z" fill="white"/>
</svg>
